<svg viewBox="0 0 178.54 55.29" xmlns="http://www.w3.org/2000/svg"><g transform="translate(-69.9 -164.48)"><path d="m105.38 214.42c-.14.5-.79 3-.79 3l-.65-.36c-7.71-1.08-21.75.58-27.72 2.52-5 1.66-6.48-5.26-4.39-9.94 7.56-4.39 30.31-2.45 32.55 1.44.14.14-.36-.07-.36-.07l1 1.22-.65.14s1.15 1.54 1.01 2.05zm-33.85-15.2a120.86 120.86 0 0 0 8.47-31.75c5.9-.86 9.22-.65 10.87.5 2.81-.07 5.47.86 6 4.18a159.73 159.73 0 0 0 8.5 32.69c-.07 0-1.15-1.15-1.15-1.15l-.5.79-.79-.5-.65-.36-.79.65s-.29-.65-.65-1.3c-.22.58-1.15 2.81-1.15 2.81l-.69-.44c-7.42-2.09-15.84-1.15-22 0-3.31.58-4.68-2-4.61-5.11a1.27 1.27 0 0 0 -.86-1.01zm21-4.1c-1.58-3.67-3-7.34-4.32-10.8a101.87 101.87 0 0 1 -4.21 9.36 40.2 40.2 0 0 1 8.56 1.44z"/><path d="m123.52 215.93c-2.59 0-7.27.36-11.74-.79-.29.5-.58.94-.79 1.37s-.86-.07-1.08-.79c-.29 1.51-.14 1.94-.65 2.23s-.79 1.3-1.08 1.37a50.92 50.92 0 0 1 -.29-5.69c-3.6-1.94-6.48-5.4-7.27-11.67a25.9 25.9 0 0 0 7.06 2.66c-.07-3.67-.14-7.63-.29-11.52-1.15 0-2.38.07-3.67.14 0 0-3.82-2.3-1.44-7.78a4.82 4.82 0 0 1 1.8-.58l-.08-.78s1.22-.29 3.1-.79c-.14-2.52-.29-4.9-.43-7a3.5 3.5 0 0 1 -1.67-.31c-1.15-.86-2.23-4.68-1.22-6.41l2.09-.36a2.43 2.43 0 0 0 -.29-.86s5.26-2.23 8.35-.14c6.62-.72 15-1.15 19.87.29 2.38 1.73 3 6.12 3 9.58 0 0-.65 3.31-6.26 6.34 7.78 1.87 14.26 6.26 14.76 15.41.61 11.4-9.54 16-21.78 16.08zm-7.2-23c-.22 5.83-.65 9.94-1 12.6 6.91.22 14.76-1.15 21-5.69.02.03 1.1-6.38-20-6.84zm.07-12.53c4.18-1.44 8.35-3.17 10.51-5-.86-.5-5.69-.14-10.58.29 0 1.71.07 3.23.07 4.74z"/><path d="m191.71 217.8c-17.14-.79-20.74-17-21.39-26.43-2 6.84-6.62 11.67-12.75 11.52-9.43-.14-14.83-12.46-14.83-18.72 0-10.08 5.33-16.63 6.12-17 3-1.37 7 2 7.27 3.46v.07a.39.39 0 0 0 .36-.43 1.68 1.68 0 0 1 -.5-.5 1.5 1.5 0 0 1 .86-1c3.24-1.44 12 .79 14.11 10.37.79-4.68 1.87-8.86 1.87-8.86s-.58-1.87-.14-2.23c2-1.73 11.88-1.58 11.81 4.82 0 1.87-6.77 26.64 1.8 38.09 15.41-5.26 11.3-39.17 4.18-44l.5-.65a7 7 0 0 1 1.22.07c.07.07 5.11 3.6 6.55 7.42-1.37-4.68-5.54-7.56-5.4-7.56 18.95 4.18 19.31 52.57-1.64 51.56zm-42.92-.72c6-1.94 15-4 22.75-2.88l.65.36s.65-2.45.79-3-1-2.09-1-2.09l.58-.14-.94-1.15s.43.14.36 0c-2.23-3.89-20-5.47-27.58-1.08-2.09 4.72-.65 11.64 4.39 9.98zm14-36.08c0-10.58-6.55-10.15-6.55-10.15a1.21 1.21 0 0 1 -.79 1.51 17.66 17.66 0 0 0 -3 9.72c0 8.14 4.18 10.8 5 10.87 1.35.15 5.31-3.59 5.31-11.95z"/><path d="m248.44 168.19c-.29 2.66-2.59 7.49-8.86 9.5-3.67.14-7.06.36-10.08.5-.43 14.55-2.45 31.11-2.45 31.11l-1.58 3.53-.58-.07-1.15 2.59s-.36-.58-.86.07a7.86 7.86 0 0 0 -.65 1.51h-.58l-.94 1.44-.65-1.8s-.65 2.45-.94 2.52c-.36-2.23-.29-25.2-.94-40.32l-11.38.65c-6 .14-6.19-11.67-2.3-12.24a97.26 97.26 0 0 1 12.89-.65 2.26 2.26 0 0 1 .79-.58c1.8-.5 5.11-1 7.7.79 7.12.26 14.86.87 22.56 1.45z"/><g fill="#fff"><path d="m104.38 213.42c-.14.5-.79 3-.79 3l-.65-.36c-7.71-1.08-21.75.58-27.72 2.52-5 1.66-6.48-5.26-4.39-9.94 7.56-4.39 30.31-2.45 32.55 1.44.14.14-.36-.07-.36-.07l1 1.22-.65.14s1.15 1.54 1.01 2.05zm-33.85-15.2a120.86 120.86 0 0 0 8.47-31.75c5.9-.86 9.22-.65 10.87.5 2.81-.07 5.47.86 6 4.18a159.73 159.73 0 0 0 8.5 32.69c-.07 0-1.15-1.15-1.15-1.15l-.5.79-.79-.5-.65-.36-.79.65s-.29-.65-.65-1.3c-.22.58-1.15 2.81-1.15 2.81l-.69-.44c-7.42-2.09-15.84-1.15-22 0-3.31.58-4.68-2-4.61-5.11a1.27 1.27 0 0 0 -.86-1.01zm21-4.1c-1.58-3.67-3-7.34-4.32-10.8a101.87 101.87 0 0 1 -4.21 9.36 40.2 40.2 0 0 1 8.56 1.44z"/><path d="m122.52 214.93c-2.59 0-7.27.36-11.74-.79-.29.5-.58.94-.79 1.37s-.86-.07-1.08-.79c-.29 1.51-.14 1.94-.65 2.23s-.79 1.3-1.08 1.37a50.92 50.92 0 0 1 -.29-5.69c-3.6-1.94-6.48-5.4-7.27-11.67a25.9 25.9 0 0 0 7.06 2.66c-.07-3.67-.14-7.63-.29-11.52-1.15 0-2.38.07-3.67.14 0 0-3.82-2.3-1.44-7.78a4.82 4.82 0 0 1 1.8-.58l-.08-.78s1.22-.29 3.1-.79c-.14-2.52-.29-4.9-.43-7a3.5 3.5 0 0 1 -1.67-.31c-1.15-.86-2.23-4.68-1.22-6.41l2.09-.36a2.43 2.43 0 0 0 -.29-.86s5.26-2.23 8.35-.14c6.62-.72 15-1.15 19.87.29 2.38 1.73 3 6.12 3 9.58 0 0-.65 3.31-6.26 6.34 7.78 1.87 14.26 6.26 14.76 15.41.61 11.4-9.54 16-21.78 16.08zm-7.2-23c-.22 5.83-.65 9.94-1 12.6 6.91.22 14.76-1.15 21-5.69.02.03 1.1-6.38-20-6.84zm.07-12.53c4.18-1.44 8.35-3.17 10.51-5-.86-.5-5.69-.14-10.58.29 0 1.71.07 3.23.07 4.74z"/><path d="m190.71 216.8c-17.14-.79-20.74-17-21.39-26.43-2 6.84-6.62 11.67-12.75 11.52-9.43-.14-14.83-12.46-14.83-18.72 0-10.08 5.33-16.63 6.12-17 3-1.37 7 2 7.27 3.46v.07a.39.39 0 0 0 .36-.43 1.68 1.68 0 0 1 -.5-.5 1.5 1.5 0 0 1 .86-1c3.24-1.44 12 .79 14.11 10.37.79-4.68 1.87-8.86 1.87-8.86s-.58-1.87-.14-2.23c2-1.73 11.88-1.58 11.81 4.82 0 1.87-6.77 26.64 1.8 38.09 15.41-5.26 11.3-39.17 4.18-44l.5-.65a7 7 0 0 1 1.22.07c.07.07 5.11 3.6 6.55 7.42-1.37-4.68-5.54-7.56-5.4-7.56 18.95 4.18 19.31 52.57-1.64 51.56zm-42.92-.72c6-1.94 15-4 22.75-2.88l.65.36s.65-2.45.79-3-1-2.09-1-2.09l.58-.14-.94-1.15s.43.14.36 0c-2.23-3.89-20-5.47-27.58-1.08-2.09 4.72-.65 11.64 4.39 9.98zm14-36.08c0-10.58-6.55-10.15-6.55-10.15a1.21 1.21 0 0 1 -.79 1.51 17.66 17.66 0 0 0 -3 9.72c0 8.14 4.18 10.8 5 10.87 1.35.15 5.31-3.59 5.31-11.95z"/><path d="m247.44 167.19c-.29 2.66-2.59 7.49-8.86 9.5-3.67.14-7.06.36-10.08.5-.43 14.55-2.45 31.11-2.45 31.11l-1.58 3.53-.58-.07-1.15 2.59s-.36-.58-.86.07a7.86 7.86 0 0 0 -.65 1.51h-.58l-.94 1.44-.65-1.8s-.65 2.45-.94 2.52c-.36-2.23-.29-25.2-.94-40.32l-11.38.65c-6 .14-6.19-11.67-2.3-12.24a97.26 97.26 0 0 1 12.89-.65 2.26 2.26 0 0 1 .79-.58c1.8-.5 5.11-1 7.7.79 7.12.26 14.86.87 22.56 1.45z"/></g></g></svg>