<svg viewBox="0 0 236.53 58.14" xmlns="http://www.w3.org/2000/svg"><g transform="translate(-64.84 -243.34)"><path d="m85.23 298.2c-9.72 0-19.87-7.2-19.37-23 .94-27.58 31.25-30.89 31-21.67-.07 3.17-1.73 8.14-4 9.07-11.45-5.83-21 4.75-21.24 13.68-.22 4.54 5.33 10.94 13.11 10.94 9.22 0 16.2-9.14 16.27-12.82.07-2.66 1.58.07 1.58.07 3.42 12.78-4.75 23.73-17.35 23.73z"/><path d="m106.25 249.81c3-1.37 7 2 7.27 3.46.14.5.07 1.58-.72 1.73a17.66 17.66 0 0 0 -3 9.72c0 8.14 4.18 10.8 5 10.87 1.37.14 5.33-3.6 5.33-12 0-10.58-6.55-10.15-6.55-10.15l-.29-.07s.72-.22.58-.5a1.69 1.69 0 0 1 -.5-.5 1.5 1.5 0 0 1 .86-1c3.67-1.66 14.55 1.44 14.55 14.62 0 10.66-5.47 19.66-13.83 19.51-9.43-.14-14.83-12.46-14.83-18.72.01-10.06 5.34-16.61 6.13-16.97zm-.07 49.9c6-1.94 14.19-4 21.89-3l.65.36s.65-2.45.79-3-1-2.09-1-2.09l.58-.14-.94-1.15s.43.14.36 0c-2.23-3.89-19.15-5.4-26.71-1-2.1 4.76-.66 11.68 4.38 10.02z"/><path d="m166 296.76c-1 2.88-8.86 6.48-10.87-1.94-5-7.78-10-18.36-14.55-27.43-.86 12.39-2.16 24-2.16 24l-.43-.22-1.79 3.83-1.08.58-.86 2.52-.86-.79-1 2.66a3.8 3.8 0 0 0 -1.3.22 2.4 2.4 0 0 0 -.86.86c-.5-3.1.43-46.44-1.3-52.78a10.89 10.89 0 0 1 3-.65c4-1.8 9.5-1.44 11.23 3.31 3.53 10.08 8.79 22 12 29.16.94-13.61 3-31 4.25-35.79.22.22.29 1.66.5 1.87s.43-1 .58-.86.72 2.66.94 3a1.46 1.46 0 0 0 1.3.14 47.76 47.76 0 0 1 3 7c.07.22.14.43.22.72-2.18 36.63.77 38.43.04 40.59z"/><path d="m208.49 249.88c-.29 2.66-2.59 7.49-8.86 9.5-3.67.14-7.06.36-10.08.5-.43 14.55-2.45 31.11-2.45 31.11l-1.58 3.53-.58-.07-1.14 2.55s-.36-.58-.86.07a7.86 7.86 0 0 0 -.65 1.51h-.58l-.94 1.44-.65-1.8s-.65 2.45-.94 2.52c-.36-2.23-.29-25.2-.94-40.32l-11.38.65c-6 .14-6.19-11.67-2.3-12.24a97.26 97.26 0 0 1 12.89-.65 2.26 2.26 0 0 1 .79-.58c1.8-.5 5.11-1 7.7.79 7.14.34 14.85.92 22.55 1.49z"/><path d="m230 296.11c-.14.5-.79 3-.79 3l-.65-.36c-7.71-1.08-21.75.58-27.72 2.52-5 1.66-6.48-5.26-4.39-9.94 7.56-4.39 30.31-2.45 32.55 1.44.14.14-.36-.07-.36-.07l1 1.22-.64.08s1.17 1.61 1 2.11zm-33.84-15.19a120.86 120.86 0 0 0 8.5-31.75c5.9-.86 9.22-.65 10.87.5 2.81-.07 5.47.86 6 4.18a159.73 159.73 0 0 0 8.5 32.69c-.07 0-1.15-1.15-1.15-1.15l-.5.79-.79-.5-.65-.36-.79.65s-.29-.65-.65-1.3c-.22.58-1.15 2.81-1.15 2.81l-.65-.43c-7.42-2.09-15.84-1.15-22 0-3.31.58-4.68-2-4.61-5.11a1.27 1.27 0 0 0 -.91-1.02zm21-4.1c-1.58-3.67-3-7.34-4.32-10.8a101.87 101.87 0 0 1 -4.25 9.36 40.21 40.21 0 0 1 8.61 1.43z"/><path d="m245.93 298.2c-9.72 0-19.87-7.2-19.37-23 .94-27.58 31.25-30.89 31-21.67-.07 3.17-1.73 8.14-4 9.07-11.45-5.83-21 4.75-21.24 13.68-.22 4.54 5.33 10.94 13.1 10.94 9.22 0 16.2-9.14 16.27-12.82.07-2.66 1.58.07 1.58.07 3.47 12.78-4.74 23.73-17.34 23.73z"/><path d="m301.37 249.88c-.29 2.66-2.59 7.49-8.86 9.5-3.67.14-7.06.36-10.08.5-.43 14.56-2.43 31.12-2.43 31.12l-1.58 3.53-.58-.07-1.16 2.54s-.36-.58-.86.07a7.86 7.86 0 0 0 -.65 1.51h-.58l-.94 1.44-.65-1.8s-.65 2.45-.94 2.52c-.36-2.23-.29-25.2-.94-40.32l-11.38.65c-6 .14-6.19-11.67-2.3-12.24a97.26 97.26 0 0 1 12.89-.65 2.26 2.26 0 0 1 .79-.58c1.8-.5 5.11-1 7.7.79 7.18.34 14.85.92 22.55 1.49z"/><g fill="#fff"><path d="m84.23 297.2c-9.72 0-19.87-7.2-19.37-23 .94-27.58 31.25-30.89 31-21.67-.07 3.17-1.73 8.14-4 9.07-11.45-5.83-21 4.75-21.24 13.68-.22 4.54 5.33 10.94 13.11 10.94 9.22 0 16.2-9.14 16.27-12.82.07-2.66 1.58.07 1.58.07 3.42 12.78-4.75 23.73-17.35 23.73z"/><path d="m105.25 248.81c3-1.37 7 2 7.27 3.46.14.5.07 1.58-.72 1.73a17.66 17.66 0 0 0 -3 9.72c0 8.14 4.18 10.8 5 10.87 1.37.14 5.33-3.6 5.33-12 0-10.58-6.55-10.15-6.55-10.15l-.29-.07s.72-.22.58-.5a1.69 1.69 0 0 1 -.5-.5 1.5 1.5 0 0 1 .86-1c3.67-1.66 14.55 1.44 14.55 14.62 0 10.66-5.47 19.66-13.83 19.51-9.43-.14-14.83-12.46-14.83-18.72.01-10.06 5.34-16.61 6.13-16.97zm-.07 49.9c6-1.94 14.19-4 21.89-3l.65.36s.65-2.45.79-3-1-2.09-1-2.09l.58-.14-.94-1.15s.43.14.36 0c-2.23-3.89-19.15-5.4-26.71-1-2.1 4.76-.66 11.68 4.38 10.02z"/><path d="m165 295.76c-1 2.88-8.86 6.48-10.87-1.94-5-7.78-10-18.36-14.55-27.43-.86 12.39-2.16 24-2.16 24l-.43-.22-1.79 3.83-1.08.58-.86 2.52-.86-.79-1 2.66a3.8 3.8 0 0 0 -1.3.22 2.4 2.4 0 0 0 -.86.86c-.5-3.1.43-46.44-1.3-52.78a10.89 10.89 0 0 1 3-.65c4-1.8 9.5-1.44 11.23 3.31 3.53 10.08 8.79 22 12 29.16.94-13.61 3-31 4.25-35.79.22.22.29 1.66.5 1.87s.43-1 .58-.86.72 2.66.94 3a1.46 1.46 0 0 0 1.3.14 47.76 47.76 0 0 1 3 7c.07.22.14.43.22.72-2.18 36.63.77 38.43.04 40.59z"/><path d="m207.49 248.88c-.29 2.66-2.59 7.49-8.86 9.5-3.67.14-7.06.36-10.08.5-.43 14.55-2.45 31.11-2.45 31.11l-1.58 3.53-.58-.07-1.14 2.55s-.36-.58-.86.07a7.86 7.86 0 0 0 -.65 1.51h-.58l-.94 1.44-.65-1.8s-.65 2.45-.94 2.52c-.36-2.23-.29-25.2-.94-40.32l-11.38.65c-6 .14-6.19-11.67-2.3-12.24a97.26 97.26 0 0 1 12.89-.65 2.26 2.26 0 0 1 .79-.58c1.8-.5 5.11-1 7.7.79 7.14.34 14.85.92 22.55 1.49z"/><path d="m229 295.11c-.14.5-.79 3-.79 3l-.65-.36c-7.71-1.08-21.75.58-27.72 2.52-5 1.66-6.48-5.26-4.39-9.94 7.56-4.39 30.31-2.45 32.55 1.44.14.14-.36-.07-.36-.07l1 1.22-.64.08s1.17 1.61 1 2.11zm-33.84-15.19a120.86 120.86 0 0 0 8.5-31.75c5.9-.86 9.22-.65 10.87.5 2.81-.07 5.47.86 6 4.18a159.73 159.73 0 0 0 8.5 32.69c-.07 0-1.15-1.15-1.15-1.15l-.5.79-.79-.5-.65-.36-.79.65s-.29-.65-.65-1.3c-.22.58-1.15 2.81-1.15 2.81l-.65-.43c-7.42-2.09-15.84-1.15-22 0-3.31.58-4.68-2-4.61-5.11a1.27 1.27 0 0 0 -.91-1.02zm21-4.1c-1.58-3.67-3-7.34-4.32-10.8a101.87 101.87 0 0 1 -4.25 9.36 40.21 40.21 0 0 1 8.61 1.43z"/><path d="m244.93 297.2c-9.72 0-19.87-7.2-19.37-23 .94-27.58 31.25-30.89 31-21.67-.07 3.17-1.73 8.14-4 9.07-11.45-5.83-21 4.75-21.24 13.68-.22 4.54 5.33 10.94 13.1 10.94 9.22 0 16.2-9.14 16.27-12.82.07-2.66 1.58.07 1.58.07 3.47 12.78-4.74 23.73-17.34 23.73z"/><path d="m300.37 248.88c-.29 2.66-2.59 7.49-8.86 9.5-3.67.14-7.06.36-10.08.5-.43 14.56-2.43 31.12-2.43 31.12l-1.58 3.53-.58-.07-1.16 2.54s-.36-.58-.86.07a7.86 7.86 0 0 0 -.65 1.51h-.58l-.94 1.44-.65-1.8s-.65 2.45-.94 2.52c-.36-2.23-.29-25.2-.94-40.32l-11.38.65c-6 .14-6.19-11.67-2.3-12.24a97.26 97.26 0 0 1 12.89-.65 2.26 2.26 0 0 1 .79-.58c1.8-.5 5.11-1 7.7.79 7.18.34 14.85.92 22.55 1.49z"/></g></g></svg>