<svg xmlns="http://www.w3.org/2000/svg" viewBox="0 0 269.22 55.77"><defs><style>.a{fill:#fff}</style></defs><title>facebook</title><path d="M34.77 12.46c-.36 0-9 .58-16.2 1l-.22 6c5.9-.65 12.6-.94 16.06-.94a5.5 5.5 0 0 1-.58 1.51l-.22 1.73-2.23 1.22.86.07-2.3 1.51.07.72-2.59.65-.5.86s-2.52 1.22-3.6 1.66c-.29 0-2.74.65-5.47 1.37-.5 8.28-1 14.69-1 14.69l-.5-.58-.29 1.8-.86.22-.94 2.74-2.09 1.3-1.22 1.73-.63-.31-.58 1.87a2.45 2.45 0 0 1-.86.86c-.43-2.23-.65-25.49-1.51-40.4l-.86-.22.5-.86-1.4-.45-1.94-.43.65-.72-1.08-.94 1.15-1-2.81-.07A3.69 3.69 0 0 1 1 7.75c.58-.07 2.74-.43 5.83-.94a33 33 0 0 0-.58-4.1 1.28 1.28 0 0 1 1-1.15C9.63.84 15.1-.17 17.48 5.16c8.86-1.44 18.43-3.1 20.81-3.89 1.53 1.32 5.03 11.19-3.52 11.19z"/><path d="M66.74 50.4c-.14.5-.79 3-.79 3l-.65-.36c-7.71-1.08-21.75.58-27.72 2.52-5 1.66-6.48-5.26-4.39-9.94 7.56-4.39 30.31-2.45 32.55 1.44.14.14-.36-.07-.36-.07l1 1.22-.65.14s1.16 1.55 1.01 2.05zM32.9 35.21a120.86 120.86 0 0 0 8.5-31.75c5.9-.86 9.22-.65 10.87.5 2.81-.07 5.47.86 6 4.18a159.72 159.72 0 0 0 8.5 32.69c-.07 0-1.15-1.15-1.15-1.15l-.5.79-.79-.5-.65-.36-.79.65s-.29-.65-.65-1.3c-.22.58-1.15 2.81-1.15 2.81l-.65-.43c-7.42-2.09-15.84-1.15-22 0-3.31.58-4.68-2-4.61-5.11a1.27 1.27 0 0 0-.93-1.02zm21-4.1c-1.58-3.67-3-7.34-4.32-10.8a101.86 101.86 0 0 1-4.25 9.36 40.23 40.23 0 0 1 8.6 1.44z"/><path d="M82.65 52.49c-9.72 0-19.87-7.2-19.37-23 .94-27.58 31.25-30.89 31-21.67-.07 3.17-1.73 8.14-4 9.07-11.45-5.83-21 4.75-21.24 13.68-.22 4.54 5.33 10.94 13.1 10.94 9.22 0 16.2-9.14 16.27-12.82.07-2.66 1.58.07 1.58.07 3.47 12.79-4.73 23.73-17.34 23.73z"/><path d="M140.69 35.28c0 .5-1.37 1.8-1.37 1.8l-.36.86-2.74 1.27 2 .22a14.65 14.65 0 0 0-3.17 1.73c-1.22.94-1.58 1.94-2.52 2.3a136.72 136.72 0 0 0-30.46 10.44c-2.23 1.08-6.34-8.35-2.74-10.23a7.85 7.85 0 0 1 1.51-.65c0-12.31.36-34-.94-38.6a13.5 13.5 0 0 1 5.69-.86c7.63-1 24.12-.65 28.8-.58a9 9 0 0 0-.07 1.87 7.75 7.75 0 0 0-2.23 1.58c-.22.22-1.66 1.22-1.66 1.22l1.44.07-2.38 1.22-.07.86s-2.88 1.22-3.31 1.37-7.7 1.22-14 2.23c0 .58-.07 1.15-.07 1.73-.07 1.87-.22 3.6-.36 5.33a153.17 153.17 0 0 1 18.07-1.15 5.51 5.51 0 0 1-.58 1.51l-.29 1.73-2.23 1.22.94.07-2.38 1.51.07.72-2.59.65-.5.86s-2.59 1.22-3.6 1.58c-.43 0-4.39 1.15-8 2-.36 3.82-.79 6.77-1.08 8.57 9.72-3.08 22.9-6.03 31.18-4.45z"/><path d="M153.72 51.92c-2.59 0-7.27.36-11.74-.79-.29.5-.58.94-.79 1.37s-.86-.07-1.08-.79c-.29 1.51-.14 1.94-.65 2.23s-.79 1.3-1.08 1.37a50.94 50.94 0 0 1-.29-5.69c-3.6-1.94-6.48-5.4-7.27-11.67a25.9 25.9 0 0 0 7.06 2.66c-.07-3.67-.14-7.63-.29-11.52-1.15 0-2.38.07-3.67.14 0 0-3.82-2.3-1.44-7.78a4.81 4.81 0 0 1 1.8-.58l-.07-.79s1.22-.29 3.1-.79c-.14-2.52-.29-4.9-.43-7a3.49 3.49 0 0 1-1.66-.29c-1.15-.86-2.23-4.68-1.22-6.41l2.09-.36a2.44 2.44 0 0 0-.29-.86s5.26-2.23 8.35-.14c6.62-.72 15-1.15 19.87.29 2.38 1.73 3 6.12 3 9.58 0 0-.65 3.31-6.26 6.34 7.78 1.87 14.26 6.26 14.76 15.41.59 11.36-9.56 15.99-21.8 16.07zm-7.2-23c-.22 5.83-.65 9.94-1 12.6 6.91.22 14.76-1.15 21-5.69.02.03 1.1-6.38-20-6.88zm.07-12.53c4.18-1.44 8.35-3.17 10.51-5-.86-.5-5.69-.14-10.59.29.01 1.71.08 3.22.08 4.74zm34.73-13.18c3-1.37 7 2 7.27 3.46.14.5.07 1.58-.72 1.73a17.66 17.66 0 0 0-3 9.72c0 8.14 4.18 10.8 5 10.87 1.37.14 5.33-3.6 5.33-12 0-10.58-6.55-10.15-6.55-10.15l-.29-.07s.72-.22.58-.5a1.68 1.68 0 0 1-.5-.5 1.5 1.5 0 0 1 .86-1c3.67-1.66 14.54 1.44 14.54 14.62 0 10.66-5.47 19.66-13.83 19.51-9.43-.14-14.83-12.46-14.83-18.72.06-10.1 5.39-16.65 6.14-16.97zm-.65 49.9c6-1.94 29.81-6 49.68-3l.65.36s.65-2.45.79-3a3.22 3.22 0 0 0-.72-1.66c-.14-.22-18.79-3.89-31.32-2.74 12-1.66 29.09 1.66 29.09 1.66l-.94-1.15s.43.14.36 0c-2.23-3.89-44.43-4.82-52-.43-2.02 4.66-.58 11.57 4.46 9.92zm29.79-49.9c3-1.37 7 2 7.27 3.46.14.5.07 1.58-.72 1.73a17.66 17.66 0 0 0-3 9.72c0 8.14 4.18 10.8 5 10.87 1.37.14 5.33-3.6 5.33-12 0-10.58-6.55-10.15-6.55-10.15l-.29-.07s.72-.22.58-.5a1.68 1.68 0 0 1-.5-.5 1.5 1.5 0 0 1 .86-1c3.67-1.66 14.55 1.44 14.55 14.62 0 10.66-5.47 19.66-13.83 19.51-9.42-.16-14.84-12.48-14.84-18.69 0-10.13 5.34-16.68 6.14-17zm47.3 23.29c5.62 5.62 10.87 18.72 8.93 25.92a23.54 23.54 0 0 0-2.59-11.59s2.81 9.29 1.8 12.46a3.4 3.4 0 0 0-.36-.43s-.79 1.51-1.3 1.58a15.28 15.28 0 0 0-2 .36l-.65-.72c-1.66-6.48-7.85-17.07-11.59-21.46a43.5 43.5 0 0 1-5.11 3c-.36 6-.72 10.23-.72 10.23s-.5.79-1.22 2.09a19.23 19.23 0 0 0-1.51 3 3.64 3.64 0 0 0-1.44.86c-.14.22-.65 1.44-.65 1.44h-.58l-.86 1.44a1.69 1.69 0 0 0-.72-.36c-.36.22-.58 1-.86 1-.58-2.88-.86-42.12-2.66-50.26a1.25 1.25 0 0 1 1.08-1.08c3-.86 11.45-1.87 11.09 10.8-.07 3.46-.22 6.91-.36 10.3a40.87 40.87 0 0 0 13.25-21c2.16-3.82 11.52 1.94 10.44 6.34-1.26 5.2-6.01 11.18-11.41 16.08z"/><path class="a" d="M33.77 11.46c-.36 0-9 .58-16.2 1l-.22 6c5.9-.65 12.6-.94 16.06-.94a5.5 5.5 0 0 1-.58 1.51l-.22 1.73-2.23 1.22.86.07-2.3 1.51.07.72-2.59.65-.5.86s-2.52 1.22-3.6 1.66c-.29 0-2.74.65-5.47 1.37-.5 8.28-1 14.69-1 14.69l-.5-.58-.29 1.8-.86.22-.94 2.74-2.09 1.3-1.22 1.73-.63-.31-.58 1.87a2.45 2.45 0 0 1-.86.86c-.43-2.23-.65-25.49-1.51-40.4l-.86-.22.5-.86-1.4-.45-1.94-.43.65-.72-1.08-.94 1.15-1-2.81-.07A3.69 3.69 0 0 1 0 6.75c.58-.07 2.74-.43 5.83-.94a33 33 0 0 0-.58-4.1 1.28 1.28 0 0 1 1-1.15c2.38-.72 7.85-1.73 10.23 3.6 8.86-1.44 18.43-3.1 20.81-3.89 1.53 1.32 5.03 11.19-3.52 11.19z"/><path class="a" d="M65.74 49.4c-.14.5-.79 3-.79 3l-.65-.36c-7.71-1.08-21.75.58-27.72 2.52-5 1.66-6.48-5.26-4.39-9.94 7.56-4.39 30.31-2.45 32.55 1.44.14.14-.36-.07-.36-.07l1 1.22-.65.14s1.16 1.55 1.01 2.05zM31.9 34.21a120.86 120.86 0 0 0 8.5-31.75c5.9-.86 9.22-.65 10.87.5 2.81-.07 5.47.86 6 4.18a159.72 159.72 0 0 0 8.5 32.69c-.07 0-1.15-1.15-1.15-1.15l-.5.79-.79-.5-.65-.36-.79.65s-.29-.65-.65-1.3c-.22.58-1.15 2.81-1.15 2.81l-.65-.43c-7.42-2.09-15.84-1.15-22 0-3.31.58-4.68-2-4.61-5.11a1.27 1.27 0 0 0-.93-1.02zm21-4.1c-1.58-3.67-3-7.34-4.32-10.8a101.86 101.86 0 0 1-4.25 9.36 40.23 40.23 0 0 1 8.6 1.44z"/><path class="a" d="M81.65 51.49c-9.72 0-19.87-7.2-19.37-23C63.22.91 93.53-2.4 93.28 6.82c-.07 3.17-1.73 8.14-4 9.07-11.45-5.83-21 4.75-21.24 13.68-.22 4.54 5.33 10.94 13.1 10.94 9.22 0 16.2-9.14 16.27-12.82.07-2.66 1.58.07 1.58.07 3.47 12.79-4.73 23.73-17.34 23.73z"/><path class="a" d="M139.69 34.28c0 .5-1.37 1.8-1.37 1.8l-.36.86-2.74 1.27 2 .22a14.65 14.65 0 0 0-3.17 1.73c-1.22.94-1.58 1.94-2.52 2.3a136.72 136.72 0 0 0-30.46 10.44c-2.23 1.08-6.34-8.35-2.74-10.23a7.85 7.85 0 0 1 1.51-.65c0-12.31.36-34-.94-38.6a13.5 13.5 0 0 1 5.69-.86c7.63-1 24.12-.65 28.8-.58a9 9 0 0 0-.07 1.87 7.75 7.75 0 0 0-2.23 1.58c-.22.22-1.66 1.22-1.66 1.22l1.44.07-2.38 1.22-.07.86s-2.88 1.22-3.31 1.37-7.7 1.22-14 2.23c0 .58-.07 1.15-.07 1.73-.07 1.87-.22 3.6-.36 5.33a153.17 153.17 0 0 1 18.07-1.15 5.51 5.51 0 0 1-.58 1.51l-.29 1.73-2.23 1.22.94.07-2.38 1.51.07.72-2.59.65-.5.86s-2.59 1.22-3.6 1.58c-.43 0-4.39 1.15-8 2-.36 3.82-.79 6.77-1.08 8.57 9.72-3.08 22.9-6.03 31.18-4.45z"/><path class="a" d="M152.72 50.92c-2.59 0-7.27.36-11.74-.79-.29.5-.58.94-.79 1.37s-.86-.07-1.08-.79c-.29 1.51-.14 1.94-.65 2.23s-.79 1.3-1.08 1.37a50.94 50.94 0 0 1-.29-5.69c-3.6-1.94-6.48-5.4-7.27-11.67a25.9 25.9 0 0 0 7.06 2.66c-.07-3.67-.14-7.63-.29-11.52-1.15 0-2.38.07-3.67.14 0 0-3.82-2.3-1.44-7.78a4.81 4.81 0 0 1 1.8-.58l-.07-.79s1.22-.29 3.1-.79c-.14-2.52-.29-4.9-.43-7a3.49 3.49 0 0 1-1.66-.29c-1.15-.86-2.23-4.68-1.22-6.41l2.09-.36a2.44 2.44 0 0 0-.29-.86s5.26-2.23 8.35-.14c6.62-.72 15-1.15 19.87.29 2.38 1.73 3 6.12 3 9.58 0 0-.65 3.31-6.26 6.34 7.78 1.87 14.26 6.26 14.76 15.41.59 11.36-9.56 15.99-21.8 16.07zm-7.2-23c-.22 5.83-.65 9.94-1 12.6 6.91.22 14.76-1.15 21-5.69.02.03 1.1-6.38-20-6.88zm.07-12.53c4.18-1.44 8.35-3.17 10.51-5-.86-.5-5.69-.14-10.59.29.01 1.71.08 3.22.08 4.74zm34.73-13.18c3-1.37 7 2 7.27 3.46.14.5.07 1.58-.72 1.73a17.66 17.66 0 0 0-3 9.72c0 8.14 4.18 10.8 5 10.87 1.37.14 5.33-3.6 5.33-12 0-10.58-6.55-10.15-6.55-10.15l-.29-.07s.72-.22.58-.5a1.68 1.68 0 0 1-.5-.5 1.5 1.5 0 0 1 .86-1c3.67-1.66 14.54 1.44 14.54 14.62 0 10.66-5.47 19.66-13.83 19.51-9.43-.14-14.83-12.46-14.83-18.72.06-10.1 5.39-16.65 6.14-16.97zm-.65 49.9c6-1.94 29.81-6 49.68-3l.65.36s.65-2.45.79-3a3.22 3.22 0 0 0-.72-1.66c-.14-.22-18.79-3.89-31.32-2.74 12-1.66 29.09 1.66 29.09 1.66l-.94-1.15s.43.14.36 0c-2.23-3.89-44.43-4.82-52-.43-2.02 4.66-.58 11.57 4.46 9.92zm29.79-49.9c3-1.37 7 2 7.27 3.46.14.5.07 1.58-.72 1.73a17.66 17.66 0 0 0-3 9.72c0 8.14 4.18 10.8 5 10.87 1.37.14 5.33-3.6 5.33-12 0-10.58-6.55-10.15-6.55-10.15l-.29-.07s.72-.22.58-.5a1.68 1.68 0 0 1-.5-.5 1.5 1.5 0 0 1 .86-1c3.67-1.66 14.55 1.44 14.55 14.62 0 10.66-5.47 19.66-13.83 19.51-9.42-.16-14.84-12.48-14.84-18.69 0-10.13 5.34-16.68 6.14-17zm47.3 23.29c5.62 5.62 10.87 18.72 8.93 25.92a23.54 23.54 0 0 0-2.59-11.59s2.81 9.29 1.8 12.46a3.4 3.4 0 0 0-.36-.43s-.79 1.51-1.3 1.58a15.28 15.28 0 0 0-2 .36l-.65-.72c-1.66-6.48-7.85-17.07-11.59-21.46a43.5 43.5 0 0 1-5.11 3c-.36 6-.72 10.23-.72 10.23s-.5.79-1.22 2.09a19.23 19.23 0 0 0-1.51 3 3.64 3.64 0 0 0-1.44.86c-.14.22-.65 1.44-.65 1.44h-.58l-.86 1.44a1.69 1.69 0 0 0-.72-.36c-.36.22-.58 1-.86 1-.58-2.88-.86-42.12-2.66-50.26a1.25 1.25 0 0 1 1.08-1.08c3-.86 11.45-1.87 11.09 10.8-.07 3.46-.22 6.91-.36 10.3a40.87 40.87 0 0 0 13.25-21c2.16-3.82 11.52 1.94 10.44 6.34-1.26 5.2-6.01 11.18-11.41 16.08z"/></svg>