<svg xmlns="http://www.w3.org/2000/svg" viewBox="0 0 154.8 54.17"><defs><style>.a{fill:#fff}</style></defs><title>home</title><path d="M36.51 15.43a241.3 241.3 0 0 0-1.8 29.16l-.29.72-.43-.07-.43 2.23-.5-.07-.5-.14-1 4.39-.79-.65-.36.65-.86.07a2.26 2.26 0 0 1-.5 1.15 1.22 1.22 0 0 1-.5.07c-1.58-4-2.59-9.65-3.17-15.84a2.74 2.74 0 0 1-.94.43c-2.88 0-8.5 1.08-12.6 1.8-.22 3.24-.36 5.26-.36 5.26l-.5-.65-.39 1.9-.86.22-.91 2.71-2.09 1.3-1.26 1.77-.65-.48-.58 1.94a3.74 3.74 0 0 1-.94.86c-.5-3-.58-43.06-2.3-51.41A1.2 1.2 0 0 1 2 1.6C5.17.6 13.67-.78 13.23 12.47c-.14 5.54-.43 11.45-.72 16.71a58.79 58.79 0 0 1 12.31-.14c-.5-11.38.14-22.68.79-26.79 3.1-1.37 10.37-1.37 11.52 2 .69 2.03.17 5.06-.62 11.18zm6.76-12.17c3-1.37 7 2 7.27 3.46.14.5.07 1.58-.72 1.73a17.66 17.66 0 0 0-3 9.72c0 8.14 4.18 10.8 5 10.87 1.37.14 5.33-3.6 5.33-12 0-10.58-6.55-10.15-6.55-10.15l-.27-.05s.72-.22.58-.5a1.69 1.69 0 0 1-.5-.5 1.5 1.5 0 0 1 .86-1c3.67-1.66 14.55 1.44 14.55 14.62 0 10.66-5.47 19.66-13.83 19.51-9.43-.14-14.83-12.46-14.83-18.72-.01-10.08 5.32-16.63 6.11-16.99zm-.07 49.9c6-1.94 14.19-4 21.89-3l.65.36s.65-2.45.79-3-1-2.09-1-2.09l.58-.14-.94-1.15s.43.14.36 0c-2.23-3.89-19.15-5.4-26.71-1-2.1 4.76-.66 11.7 4.38 10.02z"/><path d="M114.34 44.23l-.72 2.61-.72.14-.29 1.8-.58 2.16-.94.14-.14 1.66a2.21 2.21 0 0 0-1.13.1c-.22.07-.14.72-.36.79-3.89-7.06-6.55-19.73-8.06-30.89-2.45 7.7-6.12 18.07-8.42 24.27-.5 1.51-7.27 4-7.92-2.52-1.73-4-4.54-11.09-7.56-18.29-1.15 10.8-2.52 19-2.52 19l-.94-.14-2.76 4.78-1.87.58-.59 1.16s-1.15-.94-1.8-.65-1 1.87-1.44 1.87c.86-8.86 2.38-38 1.37-48.75a.38.38 0 0 0-.13-.21.25.25 0 0 0 .14-.07 14.37 14.37 0 0 0-.29-2.16 11.52 11.52 0 0 1 5.83-.29c3.89-.79 8.14-.14 9.15 3.17 2.88 9.94 5.47 19.23 7 25.06 4-10.73 9.07-21.39 11-25.27a13.31 13.31 0 0 1-.07-1.58c2.88-1.8 10.08-2.81 11.74.5.94 1.94.65 4.68.72 11a254.77 254.77 0 0 0 2.3 30.03z"/><path d="M154.82 34.44c0 .5-1.37 1.8-1.37 1.8l-.36.86-2.74 1.3 2 .22a14.66 14.66 0 0 0-3.17 1.73c-1.22.94-1.58 1.94-2.52 2.3a136.71 136.71 0 0 0-30.46 10.44c-2.23 1.08-6.34-8.35-2.74-10.23a7.88 7.88 0 0 1 1.51-.65c0-12.31.36-34-.94-38.6a13.5 13.5 0 0 1 5.69-.86c7.63-1 24.12-.65 28.8-.58a9 9 0 0 0-.07 1.87 7.76 7.76 0 0 0-2.23 1.58c-.2.22-1.64 1.22-1.64 1.22l1.44.07-2.38 1.22-.07.86s-2.88 1.22-3.31 1.37-7.7 1.22-14 2.23c0 .58-.07 1.15-.07 1.73-.07 1.87-.22 3.6-.36 5.33a153.15 153.15 0 0 1 17.99-1.12 5.51 5.51 0 0 1-.58 1.51l-.29 1.73-2.23 1.22.94.07-2.38 1.51.07.72-2.59.65-.5.86s-2.59 1.22-3.6 1.58c-.43 0-4.39 1.15-8 2-.36 3.82-.79 6.77-1.08 8.57 9.76-3.11 22.94-6.11 31.24-4.51z"/><path class="a" d="M35.51 14.43a241.3 241.3 0 0 0-1.8 29.16l-.29.72-.43-.07-.43 2.23-.5-.07-.5-.14-1 4.39-.79-.65-.36.65-.86.07a2.26 2.26 0 0 1-.5 1.15 1.22 1.22 0 0 1-.5.07c-1.58-4-2.59-9.65-3.17-15.84a2.74 2.74 0 0 1-.94.43c-2.88 0-8.5 1.08-12.6 1.8-.22 3.24-.36 5.26-.36 5.26l-.5-.65-.39 1.9-.86.22-.91 2.71-2.09 1.3-1.26 1.77-.65-.48-.58 1.94a3.74 3.74 0 0 1-.94.86c-.5-3-.58-43.06-2.3-51.41A1.2 1.2 0 0 1 1 .6c3.17-1 11.67-2.38 11.23 10.87-.14 5.54-.43 11.45-.72 16.71a58.79 58.79 0 0 1 12.31-.14c-.5-11.38.14-22.68.79-26.79 3.1-1.37 10.37-1.37 11.52 2 .69 2.03.17 5.06-.62 11.18zm6.76-12.17c3-1.37 7 2 7.27 3.46.14.5.07 1.58-.72 1.73a17.66 17.66 0 0 0-3 9.72c0 8.14 4.18 10.8 5 10.87 1.37.14 5.33-3.6 5.33-12 0-10.58-6.55-10.15-6.55-10.15l-.27-.05s.72-.22.58-.5a1.69 1.69 0 0 1-.5-.5 1.5 1.5 0 0 1 .86-1c3.67-1.66 14.55 1.44 14.55 14.62 0 10.66-5.47 19.66-13.83 19.51-9.43-.14-14.83-12.46-14.83-18.72-.01-10.08 5.32-16.63 6.11-16.99zm-.07 49.9c6-1.94 14.19-4 21.89-3l.65.36s.65-2.45.79-3-1-2.09-1-2.09l.58-.14-.94-1.15s.43.14.36 0c-2.23-3.89-19.15-5.4-26.71-1-2.1 4.76-.66 11.7 4.38 10.02z"/><path class="a" d="M113.34 43.23l-.72 2.61-.72.14-.29 1.8-.58 2.16-.94.14-.14 1.66a2.21 2.21 0 0 0-1.13.1c-.22.07-.14.72-.36.79-3.89-7.06-6.55-19.73-8.06-30.89-2.45 7.7-6.12 18.07-8.42 24.27-.5 1.51-7.27 4-7.92-2.52-1.73-4-4.54-11.09-7.56-18.29-1.15 10.8-2.52 19-2.52 19l-.94-.14-2.76 4.78-1.87.58-.59 1.16s-1.15-.94-1.8-.65-1 1.87-1.44 1.87c.86-8.86 2.38-38 1.37-48.75a.38.38 0 0 0-.13-.21.25.25 0 0 0 .14-.07 14.37 14.37 0 0 0-.29-2.16A11.52 11.52 0 0 1 71.5.32c3.89-.79 8.14-.14 9.15 3.17 2.88 9.94 5.47 19.23 7 25.06 4-10.73 9.07-21.39 11-25.27a13.31 13.31 0 0 1-.07-1.58c2.88-1.8 10.08-2.81 11.74.5.94 1.94.65 4.68.72 11a254.77 254.77 0 0 0 2.3 30.03z"/><path class="a" d="M153.82 33.44c0 .5-1.37 1.8-1.37 1.8l-.36.86-2.74 1.3 2 .22a14.66 14.66 0 0 0-3.17 1.73c-1.22.94-1.58 1.94-2.52 2.3a136.71 136.71 0 0 0-30.46 10.44c-2.23 1.08-6.34-8.35-2.74-10.23a7.88 7.88 0 0 1 1.51-.65c0-12.31.36-34-.94-38.6a13.5 13.5 0 0 1 5.69-.86c7.63-1 24.12-.65 28.8-.58a9 9 0 0 0-.07 1.87 7.76 7.76 0 0 0-2.23 1.58c-.2.22-1.64 1.22-1.64 1.22l1.44.07-2.38 1.22-.07.86s-2.88 1.22-3.31 1.37-7.7 1.22-14 2.23c0 .58-.07 1.15-.07 1.73-.07 1.87-.22 3.6-.36 5.33a153.15 153.15 0 0 1 17.99-1.12 5.51 5.51 0 0 1-.58 1.51l-.29 1.73-2.23 1.22.94.07-2.38 1.51.07.72-2.59.65-.5.86s-2.59 1.22-3.6 1.58c-.43 0-4.39 1.15-8 2-.36 3.82-.79 6.77-1.08 8.57 9.76-3.11 22.94-6.11 31.24-4.51z"/></svg>