<svg xmlns="http://www.w3.org/2000/svg" viewBox="0 0 297.58 58.25"><defs><style>.a{fill:#fff}</style></defs><title>instagram</title><path d="M13.1 16.69c-.58 14.91-2.09 32.4-2.09 32.4l-.5-.65-.36 1.8-.86.22-.94 2.66-2.09 1.22L5.04 56l-.58-.5-.61 1.95a2.69 2.69 0 0 1-.94.79c-.5-3-.29-43.56-1.94-52.13a1.16 1.16 0 0 1 1-1.08c3.21-.79 11.57-1.66 11.13 11.66zm38.16 36.73c-1 2.88-8.86 6.48-10.87-1.94-5-7.78-10-18.36-14.55-27.43-.86 12.38-2.16 24-2.16 24l-.43-.17-1.8 3.82-1.08.58-.86 2.52-.86-.79-1 2.66a3.79 3.79 0 0 0-1.3.22 2.39 2.39 0 0 0-.86.86c-.5-3.1.43-46.44-1.3-52.78a10.91 10.91 0 0 1 3-.65c4-1.8 9.5-1.44 11.23 3.31 3.53 10.08 8.79 22 12 29.16.94-13.61 3-31 4.25-35.79.22.22.29 1.66.5 1.87s.43-1 .58-.86.72 2.66.94 3a1.46 1.46 0 0 0 1.3.14 47.75 47.75 0 0 1 3 7c.07.22.14.43.22.72-2.18 36.59.77 38.39.05 40.55zm30.89-38.74c-8.5 0-19.87 3.6-19.87 4.1-.14 1.3 26.71 5.54 25.71 21.82-.79 13.32-9.72 16.2-19.66 16.2S51.91 46.5 52.27 40.89a37.31 37.31 0 0 1 1.51-9.22 66.83 66.83 0 0 0-.22 7.06 58.75 58.75 0 0 1 .86-7.85l1.15-1.3.36.86c-1.3 22.25 25.78 13.83 26 10.37.36-6.26-30.89-8.28-30.17-20.74.36-6.26 1.15-6 1.15-6 .43-7.85 24.41-9.65 26.79-9.65 0 .03 6.34 3.56 2.45 10.26z"/><path d="M125.64 6.54c-.29 2.66-2.59 7.49-8.86 9.5-3.67.14-7.06.36-10.08.5-.43 14.55-2.45 31.11-2.45 31.11l-1.58 3.53-.58-.07-1.15 2.59s-.36-.58-.86.07a7.79 7.79 0 0 0-.65 1.51h-.58l-.94 1.44-.65-1.8s-.65 2.45-.94 2.52c-.36-2.23-.29-25.2-.94-40.32L84 17.77c-6 .14-6.19-11.67-2.3-12.24a97.26 97.26 0 0 1 12.89-.65 2.26 2.26 0 0 1 .79-.58c1.8-.5 5.11-1 7.71.79 7.14.3 14.85.87 22.55 1.45z"/><path d="M147.17 52.77c-.14.5-.79 3-.79 3l-.65-.36c-7.7-1.08-21.75.58-27.72 2.52-5 1.66-6.48-5.26-4.39-9.94 7.56-4.39 30.31-2.45 32.55 1.44.14.14-.36-.07-.36-.07l1 1.22-.65.14s1.15 1.54 1.01 2.05zm-33.84-15.19a120.88 120.88 0 0 0 8.5-31.75c5.91-.86 9.22-.65 10.87.5 2.81-.07 5.47.86 6 4.18a159.76 159.76 0 0 0 8.5 32.69c-.07 0-1.15-1.15-1.15-1.15l-.5.79-.79-.5-.65-.36-.79.65s-.29-.65-.65-1.3c-.22.58-1.15 2.81-1.15 2.81l-.65-.43c-7.42-2.09-15.84-1.15-22 0-3.31.58-4.68-2-4.61-5.11a1.27 1.27 0 0 0-.93-1.03zm21-4.1c-1.58-3.67-3-7.34-4.32-10.8a102 102 0 0 1-4.25 9.36 40.23 40.23 0 0 1 8.59 1.43z"/><path d="M163.8 54.71c-9.72 0-19.87-7.2-19.37-23 .94-27.58 31.25-30.89 31-21.67-.07 3.17-1.73 8.14-4 9.07-11.45-5.83-21 4.75-21.24 13.68-.22 4.54 5.33 10.95 13.11 10.95 6 0 11.16-4 14-7.71-5.26-.36-14.11-1.3-14.62-1.3-3-.86-5.54-3.74-7.34-6-.22-.22 3.1-.86 9.58-1.8a70.69 70.69 0 0 0-10.58.72 1 1 0 0 1-.86-.58c4.82-.58 18.43-2.88 24.7-2 3 .36 4.18 6.63 3.67 9.58 1.1 11.13-6.67 20.06-18.05 20.06z"/><path d="M209.66 37.88c2.74 5 4 11.09 3 15.48a20.53 20.53 0 0 0-2.52-11.38s2.74 9.22 1.8 12.24a5.37 5.37 0 0 1-.36-.43 4.67 4.67 0 0 1-1.3 1.51c-.43.07-1.87.43-1.87.43l-.65-.72c-1.44-5.62-4.75-10.66-7.92-14.69a47.35 47.35 0 0 1-6.41.43H193c-.29 4.46-.5 7.42-.5 7.42s-.5.86-1.22 2c-.43.65-1.44 2.88-1.44 2.88a3.26 3.26 0 0 0-1.37.94 14.63 14.63 0 0 0-.58 1.44l-.58-.07-.86 1.37a1.35 1.35 0 0 0-.65-.29c-.36.14-.58.94-.86.94-.22-1.22-.43-9.58-.72-19.23a11.9 11.9 0 0 1-5.18-7 8.27 8.27 0 0 1-.29-3c.36 1.94 1.44 4.61 2.16 5.26-1.37-2.74-1.8-5.4-1.44-7 .36 1.08 2 2.38 4.54 3.38-.22-4.75-.43-9.43-.65-13.32-1.44.22-2.88.5-4.39.86-2.3-.86-4.54-7-2-9.29s42.63-11.59 42.41 16.2c-.14 7.29-4.46 11.32-9.72 13.64zm-15.7-22.54c.07.72.07 1.58.07 2.52-.07 4.54-.29 9.36-.58 13.83 8.71-.07 19.87-4.61 20.23-9.36.3-4.05-6.9-7.51-19.71-7.01zm56.96 37.43c-.14.5-.79 3-.79 3l-.65-.36c-7.7-1.08-21.75.58-27.72 2.52-5 1.66-6.48-5.26-4.39-9.94 7.56-4.39 30.31-2.45 32.55 1.44.14.14-.36-.07-.36-.07l1 1.22-.65.14s1.15 1.54 1.01 2.05zm-33.84-15.19a120.88 120.88 0 0 0 8.5-31.75c5.91-.86 9.22-.65 10.87.5 2.81-.07 5.47.86 6 4.18a159.76 159.76 0 0 0 8.5 32.69c-.07 0-1.15-1.15-1.15-1.15l-.5.79-.79-.5-.65-.36-.79.65s-.29-.65-.65-1.3c-.22.58-1.15 2.81-1.15 2.81l-.65-.43c-7.42-2.09-15.84-1.15-22 0-3.31.58-4.68-2-4.61-5.11a1.27 1.27 0 0 0-.93-1.03zm21-4.1c-1.58-3.67-3-7.34-4.32-10.8a102 102 0 0 1-4.25 9.36 40.23 40.23 0 0 1 8.59 1.43z"/><path d="M297.58 47.44l-.73 2.59-.72.14-.28 1.81-.58 2.16-.94.14-.14 1.66a2.21 2.21 0 0 0-1.15.07c-.22.07-.14.72-.36.79-3.89-7.06-6.55-19.73-8.06-30.89-2.45 7.7-6.12 18.07-8.42 24.27-.5 1.51-7.27 4-7.92-2.52-1.73-4-4.54-11.09-7.56-18.29-1.15 10.8-2.52 19-2.52 19l-.94-.14-2.74 4.83-1.87.58-.58 1.15s-1.15-.94-1.8-.65-1 1.87-1.44 1.87c.86-8.86 2.38-38 1.37-48.75a.38.38 0 0 0-.14-.22.25.25 0 0 0 .14-.07 14.45 14.45 0 0 0-.29-2.16 11.51 11.51 0 0 1 5.83-.29c3.89-.79 8.14-.14 9.15 3.17 2.88 9.94 5.47 19.23 7 25.06 4-10.73 9.07-21.39 11-25.27a13.5 13.5 0 0 1-.04-1.6c2.88-1.8 10.08-2.81 11.74.5.94 1.94.65 4.68.72 11a254.71 254.71 0 0 0 2.27 30.06z"/><path class="a" d="M12.1 15.69c-.58 14.91-2.09 32.4-2.09 32.4l-.5-.65-.36 1.8-.86.22-.94 2.66-2.09 1.22L4.04 55l-.58-.5-.61 1.95a2.69 2.69 0 0 1-.94.79c-.5-3-.29-43.56-1.94-52.13a1.16 1.16 0 0 1 1-1.08c3.21-.79 11.57-1.66 11.13 11.66zm38.16 36.73c-1 2.88-8.86 6.48-10.87-1.94-5-7.78-10-18.36-14.55-27.43-.86 12.38-2.16 24-2.16 24l-.43-.17-1.8 3.82-1.08.58-.86 2.52-.86-.79-1 2.66a3.79 3.79 0 0 0-1.3.22 2.39 2.39 0 0 0-.86.86c-.5-3.1.43-46.44-1.3-52.78a10.91 10.91 0 0 1 3-.65c4-1.8 9.5-1.44 11.23 3.31 3.53 10.08 8.79 22 12 29.16.94-13.61 3-31 4.25-35.79.22.22.29 1.66.5 1.87s.43-1 .58-.86.72 2.66.94 3a1.46 1.46 0 0 0 1.3.14 47.75 47.75 0 0 1 3 7c.07.22.14.43.22.72-2.18 36.59.77 38.39.05 40.55zm30.89-38.74c-8.5 0-19.87 3.6-19.87 4.1-.14 1.3 26.71 5.54 25.71 21.82-.79 13.32-9.72 16.2-19.66 16.2S50.91 45.5 51.27 39.89a37.31 37.31 0 0 1 1.51-9.22 66.83 66.83 0 0 0-.22 7.06 58.75 58.75 0 0 1 .86-7.85l1.15-1.3.36.86c-1.3 22.25 25.78 13.83 26 10.37.36-6.26-30.89-8.28-30.17-20.74.36-6.26 1.15-6 1.15-6 .43-7.85 24.41-9.65 26.79-9.65 0 .03 6.34 3.56 2.45 10.26z"/><path class="a" d="M124.64 5.54c-.29 2.66-2.59 7.49-8.86 9.5-3.67.14-7.06.36-10.08.5-.43 14.55-2.45 31.11-2.45 31.11l-1.58 3.53-.58-.07-1.15 2.59s-.36-.58-.86.07a7.79 7.79 0 0 0-.65 1.51h-.58l-.94 1.44-.65-1.8s-.65 2.45-.94 2.52c-.36-2.23-.29-25.2-.94-40.32L83 16.77c-6 .14-6.19-11.67-2.3-12.24a97.26 97.26 0 0 1 12.89-.65 2.26 2.26 0 0 1 .79-.58c1.8-.5 5.11-1 7.71.79 7.14.3 14.85.87 22.55 1.45z"/><path class="a" d="M146.17 51.77c-.14.5-.79 3-.79 3l-.65-.36c-7.7-1.08-21.75.58-27.72 2.52-5 1.66-6.48-5.26-4.39-9.94 7.56-4.39 30.31-2.45 32.55 1.44.14.14-.36-.07-.36-.07l1 1.22-.65.14s1.15 1.54 1.01 2.05zm-33.84-15.19a120.88 120.88 0 0 0 8.5-31.75c5.91-.86 9.22-.65 10.87.5 2.81-.07 5.47.86 6 4.18a159.76 159.76 0 0 0 8.5 32.69c-.07 0-1.15-1.15-1.15-1.15l-.5.79-.79-.5-.65-.36-.79.65s-.29-.65-.65-1.3c-.22.58-1.15 2.81-1.15 2.81l-.65-.43c-7.42-2.09-15.84-1.15-22 0-3.31.58-4.68-2-4.61-5.11a1.27 1.27 0 0 0-.93-1.03zm21-4.1c-1.58-3.67-3-7.34-4.32-10.8a102 102 0 0 1-4.25 9.36 40.23 40.23 0 0 1 8.59 1.43z"/><path class="a" d="M162.8 53.71c-9.72 0-19.87-7.2-19.37-23 .94-27.58 31.25-30.89 31-21.67-.07 3.17-1.73 8.14-4 9.07-11.45-5.83-21 4.75-21.24 13.68-.22 4.54 5.33 10.95 13.11 10.95 6 0 11.16-4 14-7.71-5.26-.36-14.11-1.3-14.62-1.3-3-.86-5.54-3.74-7.34-6-.22-.22 3.1-.86 9.58-1.8a70.69 70.69 0 0 0-10.58.72 1 1 0 0 1-.86-.58c4.82-.58 18.43-2.88 24.7-2 3 .36 4.18 6.63 3.67 9.58 1.1 11.13-6.67 20.06-18.05 20.06z"/><path class="a" d="M208.66 36.88c2.74 5 4 11.09 3 15.48a20.53 20.53 0 0 0-2.52-11.38s2.74 9.22 1.8 12.24a5.37 5.37 0 0 1-.36-.43 4.67 4.67 0 0 1-1.3 1.51c-.43.07-1.87.43-1.87.43l-.65-.72c-1.44-5.62-4.75-10.66-7.92-14.69a47.35 47.35 0 0 1-6.41.43H192c-.29 4.46-.5 7.42-.5 7.42s-.5.86-1.22 2c-.43.65-1.44 2.88-1.44 2.88a3.26 3.26 0 0 0-1.37.94 14.63 14.63 0 0 0-.58 1.44l-.58-.07-.86 1.37a1.35 1.35 0 0 0-.65-.29c-.36.14-.58.94-.86.94-.22-1.22-.43-9.58-.72-19.23a11.9 11.9 0 0 1-5.18-7 8.27 8.27 0 0 1-.29-3c.36 1.94 1.44 4.61 2.16 5.26-1.37-2.74-1.8-5.4-1.44-7 .36 1.08 2 2.38 4.54 3.38-.22-4.75-.43-9.43-.65-13.32-1.44.22-2.88.5-4.39.86-2.3-.86-4.54-7-2-9.29s42.63-11.59 42.41 16.2c-.14 7.29-4.46 11.32-9.72 13.64zm-15.7-22.54c.07.72.07 1.58.07 2.52-.07 4.54-.29 9.36-.58 13.83 8.71-.07 19.87-4.61 20.23-9.36.3-4.05-6.9-7.51-19.71-7.01zm56.96 37.43c-.14.5-.79 3-.79 3l-.65-.36c-7.7-1.08-21.75.58-27.72 2.52-5 1.66-6.48-5.26-4.39-9.94 7.56-4.39 30.31-2.45 32.55 1.44.14.14-.36-.07-.36-.07l1 1.22-.65.14s1.15 1.54 1.01 2.05zm-33.84-15.19a120.88 120.88 0 0 0 8.5-31.75c5.91-.86 9.22-.65 10.87.5 2.81-.07 5.47.86 6 4.18a159.76 159.76 0 0 0 8.5 32.69c-.07 0-1.15-1.15-1.15-1.15l-.5.79-.79-.5-.65-.36-.79.65s-.29-.65-.65-1.3c-.22.58-1.15 2.81-1.15 2.81l-.65-.43c-7.42-2.09-15.84-1.15-22 0-3.31.58-4.68-2-4.61-5.11a1.27 1.27 0 0 0-.93-1.03zm21-4.1c-1.58-3.67-3-7.34-4.32-10.8a102 102 0 0 1-4.25 9.36 40.23 40.23 0 0 1 8.59 1.43z"/><path class="a" d="M296.58 46.44l-.73 2.59-.72.14-.28 1.81-.58 2.16-.94.14-.14 1.66a2.21 2.21 0 0 0-1.15.07c-.22.07-.14.72-.36.79-3.89-7.06-6.55-19.73-8.06-30.89-2.45 7.7-6.12 18.07-8.42 24.27-.5 1.51-7.27 4-7.92-2.52-1.73-4-4.54-11.09-7.56-18.29-1.15 10.8-2.52 19-2.52 19l-.94-.14-2.74 4.83-1.87.58-.58 1.15s-1.15-.94-1.8-.65-1 1.87-1.44 1.87c.86-8.86 2.38-38 1.37-48.75a.38.38 0 0 0-.14-.22.25.25 0 0 0 .14-.07 14.45 14.45 0 0 0-.29-2.16 11.51 11.51 0 0 1 5.83-.29c3.89-.79 8.14-.14 9.15 3.17 2.88 9.94 5.47 19.23 7 25.06 4-10.73 9.07-21.39 11-25.27a13.5 13.5 0 0 1-.04-1.6c2.88-1.8 10.08-2.81 11.74.5.94 1.94.65 4.68.72 11a254.71 254.71 0 0 0 2.27 30.06z"/></svg>