<svg xmlns="http://www.w3.org/2000/svg" viewBox="0 0 169.57 55.02"><defs><style>.a{fill:#fff}</style></defs><title>media</title><path d="M49.75 44.22l-.72 2.59-.72.14-.29 1.8-.58 2.16-.94.14-.14 1.66a2.21 2.21 0 0 0-1.15.07c-.22.07-.14.72-.36.79-3.89-7.06-6.55-19.73-8.06-30.89-2.45 7.7-6.12 18.07-8.42 24.27-.5 1.51-7.27 4-7.92-2.52-1.73-4-4.54-11.09-7.56-18.29-1.15 10.8-2.52 19-2.52 19L9.43 45l-2.74 4.83-1.87.58-.58 1.2s-1.1-1-1.8-.69-1 1.87-1.44 1.87c.86-8.86 2.38-38 1.37-48.75a.38.38 0 0 0-.14-.22.25.25 0 0 0 .14-.07 14.37 14.37 0 0 0-.29-2.16 11.51 11.51 0 0 1 5.83-.29c3.89-.79 8.14-.14 9.15 3.17 2.88 9.94 5.47 19.23 7 25.06a275.66 275.66 0 0 1 11-25.27 13.32 13.32 0 0 1-.07-1.58c2.88-1.8 10.08-2.81 11.74.5.94 1.94.65 4.68.72 11a254.77 254.77 0 0 0 2.3 30.04z"/><path d="M90.21 34.43c0 .5-1.37 1.8-1.37 1.8l-.36.86-2.74 1.3 2 .22a14.65 14.65 0 0 0-3.17 1.73c-1.22.94-1.58 1.94-2.52 2.3a136.72 136.72 0 0 0-30.46 10.44c-2.23 1.08-6.34-8.35-2.74-10.23a7.85 7.85 0 0 1 1.51-.65c0-12.31.36-34-.94-38.6a13.5 13.5 0 0 1 5.69-.86c7.63-1 24.12-.65 28.8-.58a9 9 0 0 0-.07 1.87 7.75 7.75 0 0 0-2.19 1.58c-.22.22-1.66 1.22-1.66 1.22l1.44.07-2.38 1.22-.07.86s-2.88 1.22-3.31 1.37-7.7 1.22-14 2.23c0 .58-.07 1.15-.07 1.73-.07 1.87-.22 3.6-.36 5.33a153.17 153.17 0 0 1 18.07-1.15 5.51 5.51 0 0 1-.58 1.51l-.29 1.73-2.3 1.25 1 .07-2.41 1.56.07.72-2.59.65-.5.86s-2.57 1.18-3.57 1.54c-.43 0-4.39 1.15-8 2-.36 3.82-.79 6.77-1.08 8.57 9.7-3.15 22.87-6.11 31.15-4.52z"/><path d="M126.36 29.61c-.07 18.64-21.22 21.45-27.87 21.45-.65 0-1.3-.07-2-.14l-.43.94-1.3-.07-.79 1.94-.83-.22a3.38 3.38 0 0 1-.65.86c-.07-.5-.14-2.16-.22-4.46-4.79-1.8-10.13-6.3-10.13-16.99 0 0 1.22-2.52 1.22.07 0 1.94 3.53 4.75 8.64 6.12-.22-8.35-.5-18.29-1-25.13a49 49 0 0 0-5.4 1.3c-2.38-1.08-4.82-8.57-2.09-11.38s43.06-8.57 42.85 25.71zm-27.65 10.3c-.07-4.32 0-9.14 0-9.14l-.65 9.14h.65zm2.16-25.85c-.14 8.5-.58 19.87-.86 25.78 9.07-.72 19.95-7.27 20.31-12.75.28-4.61-8.36-11.31-19.45-13.04z"/><path d="M136.22 13.48c-.58 14.9-2.08 32.4-2.08 32.4l-.5-.65-.36 1.8-.86.22-.94 2.66-2.09 1.22-1.25 1.66-.58-.5-.58 1.94a2.68 2.68 0 0 1-.94.79c-.5-3-.29-43.56-1.94-52.13a1.16 1.16 0 0 1 1-1.08c3.2-.79 11.55-1.66 11.12 11.67zm33.34 36.07c-.14.5-.79 3-.79 3l-.63-.41c-7.71-1.08-21.75.58-27.72 2.52-5 1.66-6.48-5.26-4.39-9.94 7.56-4.39 30.31-2.45 32.55 1.44.14.14-.36-.07-.36-.07l1 1.22-.65.14s1.13 1.6.99 2.1zm-33.85-15.19a120.86 120.86 0 0 0 8.5-31.75c5.9-.86 9.22-.65 10.87.5 2.81-.07 5.47.86 6 4.18a159.72 159.72 0 0 0 8.5 32.69c-.07 0-1.15-1.15-1.15-1.15l-.5.79-.79-.51-.65-.36-.79.65s-.29-.65-.65-1.3c-.22.58-1.15 2.81-1.15 2.81l-.65-.43c-7.42-2.09-15.84-1.15-22 0-3.31.58-4.68-2-4.61-5.11a1.27 1.27 0 0 0-.93-1.01zm21-4.1c-1.58-3.67-3-7.34-4.32-10.8a101.86 101.86 0 0 1-4.25 9.35 40.23 40.23 0 0 1 8.6 1.44z"/><path class="a" d="M48.75 43.22l-.72 2.59-.72.14-.29 1.8-.58 2.16-.94.14-.14 1.66a2.21 2.21 0 0 0-1.15.07c-.22.07-.14.72-.36.79-3.89-7.06-6.55-19.73-8.06-30.89-2.45 7.7-6.12 18.07-8.42 24.27-.5 1.51-7.27 4-7.92-2.52-1.73-4-4.54-11.09-7.56-18.29-1.15 10.8-2.52 19-2.52 19L8.43 44l-2.74 4.83-1.87.58-.58 1.2s-1.1-1-1.8-.69-1 1.87-1.44 1.87c.86-8.86 2.38-38 1.37-48.75a.38.38 0 0 0-.14-.22.25.25 0 0 0 .14-.07A14.37 14.37 0 0 0 1.08.59 11.51 11.51 0 0 1 6.91.3c3.89-.79 8.14-.14 9.15 3.17 2.88 9.94 5.47 19.23 7 25.06a275.66 275.66 0 0 1 11-25.27 13.32 13.32 0 0 1-.07-1.58c2.88-1.8 10.08-2.81 11.74.5.94 1.94.65 4.68.72 11a254.77 254.77 0 0 0 2.3 30.04z"/><path class="a" d="M89.21 33.43c0 .5-1.37 1.8-1.37 1.8l-.36.86-2.74 1.3 2 .22a14.65 14.65 0 0 0-3.17 1.73c-1.22.94-1.58 1.94-2.52 2.3a136.72 136.72 0 0 0-30.46 10.44c-2.23 1.08-6.34-8.35-2.74-10.23a7.85 7.85 0 0 1 1.51-.65c0-12.31.36-34-.94-38.6a13.5 13.5 0 0 1 5.69-.86c7.63-1 24.12-.65 28.8-.58a9 9 0 0 0-.07 1.87 7.75 7.75 0 0 0-2.19 1.58c-.22.22-1.66 1.22-1.66 1.22l1.44.07-2.38 1.22-.07.86S75.1 9.2 74.67 9.35s-7.7 1.22-14 2.23c0 .58-.07 1.15-.07 1.73-.07 1.87-.22 3.6-.36 5.33a153.17 153.17 0 0 1 18.07-1.15 5.51 5.51 0 0 1-.58 1.51l-.29 1.73-2.3 1.25 1 .07-2.41 1.56.07.72-2.59.65-.5.86s-2.57 1.18-3.57 1.54c-.43 0-4.39 1.15-8 2-.36 3.82-.79 6.77-1.08 8.57 9.7-3.15 22.87-6.11 31.15-4.52z"/><path class="a" d="M125.36 28.61c-.07 18.64-21.22 21.45-27.87 21.45-.65 0-1.3-.07-2-.14l-.43.94-1.3-.07-.79 1.94-.83-.22a3.38 3.38 0 0 1-.65.86c-.07-.5-.14-2.16-.22-4.46-4.79-1.8-10.13-6.3-10.13-16.99 0 0 1.22-2.52 1.22.07 0 1.94 3.53 4.75 8.64 6.12-.22-8.35-.5-18.29-1-25.13a49 49 0 0 0-5.4 1.3c-2.38-1.08-4.82-8.57-2.09-11.38s43.06-8.57 42.85 25.71zm-27.65 10.3c-.07-4.32 0-9.14 0-9.14l-.65 9.14h.65zm2.16-25.85c-.14 8.5-.58 19.87-.86 25.78 9.07-.72 19.95-7.27 20.31-12.75.28-4.61-8.36-11.31-19.45-13.04z"/><path class="a" d="M135.22 12.48c-.58 14.9-2.08 32.4-2.08 32.4l-.5-.65-.36 1.8-.86.22-.94 2.66-2.09 1.22-1.25 1.66-.58-.5-.58 1.94a2.68 2.68 0 0 1-.94.79c-.5-3-.29-43.56-1.94-52.13a1.16 1.16 0 0 1 1-1.08c3.2-.79 11.55-1.66 11.12 11.67zm33.34 36.07c-.14.5-.79 3-.79 3l-.63-.41c-7.71-1.08-21.75.58-27.72 2.52-5 1.66-6.48-5.26-4.39-9.94 7.56-4.39 30.31-2.45 32.55 1.44.14.14-.36-.07-.36-.07l1 1.22-.65.14s1.13 1.6.99 2.1zm-33.85-15.19a120.86 120.86 0 0 0 8.5-31.75c5.9-.86 9.22-.65 10.87.5 2.81-.07 5.47.86 6 4.18a159.72 159.72 0 0 0 8.5 32.69c-.07 0-1.15-1.15-1.15-1.15l-.5.79-.79-.51-.65-.36-.79.65s-.29-.65-.65-1.3c-.22.58-1.15 2.81-1.15 2.81l-.65-.43c-7.42-2.09-15.84-1.15-22 0-3.31.58-4.68-2-4.61-5.11a1.27 1.27 0 0 0-.93-1.01zm21-4.1c-1.58-3.67-3-7.34-4.32-10.8a101.86 101.86 0 0 1-4.25 9.35 40.23 40.23 0 0 1 8.6 1.44z"/></svg>