<svg xmlns="http://www.w3.org/2000/svg" viewBox="0 0 277 54.45"><defs><style>.a{fill:#fff}</style></defs><title>members</title><path d="M49.75 44.23l-.72 2.59-.72.14-.29 1.8-.58 2.16-.94.14-.13 1.69a2.21 2.21 0 0 0-1.15.07c-.22.07-.14.72-.36.79-3.89-7.06-6.55-19.73-8.06-30.89-2.45 7.7-6.12 18.07-8.42 24.27-.5 1.51-7.27 4-7.92-2.52-1.73-4-4.54-11.09-7.56-18.29-1.15 10.8-2.52 19-2.52 19l-.94-.14-2.74 4.82-1.87.58-.58 1.15s-1.15-.94-1.8-.65-1 1.87-1.44 1.87c.86-8.86 2.38-38 1.37-48.75a.38.38 0 0 0-.14-.22.25.25 0 0 0 .13-.09 14.38 14.38 0 0 0-.29-2.16 11.52 11.52 0 0 1 5.83-.29c3.89-.79 8.14-.14 9.15 3.17 2.88 9.94 5.47 19.23 7 25.06 4-10.73 9.07-21.39 11-25.27a13.31 13.31 0 0 1-.07-1.58c2.88-1.8 10.08-2.81 11.74.5.94 1.94.65 4.68.72 11a254.77 254.77 0 0 0 2.3 30.05z"/><path d="M90.21 34.43c0 .5-1.37 1.8-1.37 1.8l-.36.86-2.74 1.3 2 .22a14.66 14.66 0 0 0-3.17 1.73c-1.22.94-1.58 1.94-2.52 2.3a136.71 136.71 0 0 0-30.48 10.44c-2.23 1.08-6.34-8.35-2.74-10.23a7.88 7.88 0 0 1 1.51-.65c0-12.31.36-34-.94-38.6a13.5 13.5 0 0 1 5.69-.86c7.63-1 24.12-.65 28.8-.58a9 9 0 0 0-.07 1.87 7.76 7.76 0 0 0-2.23 1.58c-.22.22-1.66 1.22-1.66 1.22l1.44.07-2.38 1.22-.07.86s-2.88 1.22-3.31 1.37-7.7 1.22-14 2.23c0 .58-.07 1.15-.07 1.73-.07 1.87-.22 3.6-.36 5.33a153.15 153.15 0 0 1 18.07-1.15 5.51 5.51 0 0 1-.58 1.51l-.27 1.75-2.23 1.22.94.07-2.38 1.51.07.72-2.59.65-.5.86s-2.59 1.22-3.6 1.58c-.43 0-4.39 1.15-8 2-.36 3.82-.79 6.77-1.08 8.57 9.73-3.13 22.9-6.08 31.18-4.5z"/><path d="M130.57 44.23l-.72 2.59-.72.14-.29 1.8-.58 2.16-.94.14-.17 1.69a2.21 2.21 0 0 0-1.15.07c-.22.07-.14.72-.36.79-3.89-7.06-6.55-19.73-8.06-30.89-2.45 7.7-6.12 18.07-8.42 24.27-.5 1.51-7.27 4-7.92-2.52-1.73-4-4.54-11.09-7.56-18.29-1.15 10.8-2.52 19-2.52 19l-.94-.14-2.74 4.82-1.87.58-.58 1.15s-1.15-.94-1.8-.65-1 1.87-1.44 1.87c.86-8.86 2.38-38 1.37-48.75a.38.38 0 0 0-.14-.22.25.25 0 0 0 .14-.07 14.38 14.38 0 0 0-.29-2.16 11.52 11.52 0 0 1 5.83-.29c3.89-.79 8.14-.14 9.15 3.17 2.88 9.94 5.47 19.23 7 25.06 4-10.73 9.07-21.39 11-25.27a13.31 13.31 0 0 1-.07-1.58c2.88-1.8 10.08-2.81 11.74.5.94 1.94.65 4.68.72 11a254.77 254.77 0 0 0 2.33 30.03z"/><path d="M149.76 51.07c-2.59 0-7.27.36-11.74-.79-.29.5-.58.94-.79 1.37s-.86-.07-1.08-.79c-.29 1.51-.14 1.94-.65 2.23s-.79 1.3-1.08 1.37a50.92 50.92 0 0 1-.29-5.69c-3.6-1.94-6.48-5.4-7.27-11.67a25.9 25.9 0 0 0 7.06 2.66c-.07-3.67-.14-7.63-.29-11.52-1.15 0-2.38.07-3.67.14 0 0-3.82-2.3-1.44-7.78a4.82 4.82 0 0 1 1.8-.58l-.07-.79s1.22-.29 3.1-.79c-.14-2.52-.29-4.9-.43-7a3.5 3.5 0 0 1-1.66-.29c-1.15-.86-2.23-4.68-1.22-6.41l2.09-.36a2.43 2.43 0 0 0-.29-.86s5.26-2.23 8.35-.14c6.62-.72 15-1.15 19.87.29 2.38 1.73 3 6.12 3 9.58 0 0-.65 3.31-6.26 6.34 7.78 1.87 14.26 6.26 14.76 15.41.59 11.39-9.56 15.99-21.8 16.07zm-7.2-23c-.22 5.83-.65 9.94-1 12.6 6.91.22 14.76-1.15 21-5.69.01.03 1.09-6.38-19.99-6.88zm.07-12.53c4.18-1.44 8.35-3.17 10.51-5-.86-.5-5.69-.14-10.58.29.01 1.71.07 3.22.07 4.74z"/><path d="M210.09 34.43c0 .5-1.37 1.8-1.37 1.8l-.36.86-2.74 1.3 2 .22a14.66 14.66 0 0 0-3.17 1.73c-1.22.94-1.58 1.94-2.52 2.3a136.72 136.72 0 0 0-30.46 10.44c-2.23 1.08-6.34-8.35-2.74-10.23a7.88 7.88 0 0 1 1.51-.65c0-12.31.36-34-.94-38.6a13.5 13.5 0 0 1 5.69-.86c7.63-1 24.12-.65 28.8-.58a9 9 0 0 0-.07 1.87 7.75 7.75 0 0 0-2.23 1.58c-.22.22-1.66 1.22-1.66 1.22l1.44.07-2.38 1.22-.07.86s-2.88 1.22-3.31 1.37-7.71 1.22-14 2.23c0 .58-.07 1.15-.07 1.73-.07 1.87-.22 3.6-.36 5.33a153.16 153.16 0 0 1 18.07-1.15 5.51 5.51 0 0 1-.58 1.51l-.29 1.75-2.23 1.22.94.07-2.42 1.53.07.72-2.59.65-.48.81s-2.59 1.22-3.6 1.58c-.43 0-4.39 1.15-8 2-.36 3.82-.79 6.77-1.08 8.57 9.74-3.1 22.92-6.05 31.2-4.47z"/><path d="M233.78 34.65c2.74 5 4 11.09 3 15.48a20.53 20.53 0 0 0-2.57-11.38s2.74 9.22 1.8 12.24a5.44 5.44 0 0 1-.36-.43 4.67 4.67 0 0 1-1.3 1.51c-.43.07-1.87.43-1.87.43l-.65-.72c-1.44-5.62-4.75-10.66-7.92-14.69a47.29 47.29 0 0 1-6.41.43h-.43c-.29 4.46-.5 7.42-.5 7.42s-.5.86-1.22 2c-.43.65-1.44 2.88-1.44 2.88a3.26 3.26 0 0 0-1.34.93 14.63 14.63 0 0 0-.58 1.44l-.58-.07-.84 1.39a1.35 1.35 0 0 0-.65-.29c-.36.14-.58.94-.86.94-.22-1.22-.43-9.58-.72-19.23a11.9 11.9 0 0 1-5.18-7 8.27 8.27 0 0 1-.29-3c.36 1.94 1.44 4.61 2.16 5.26-1.37-2.74-1.8-5.4-1.44-7 .36 1.08 2 2.38 4.54 3.38-.22-4.75-.43-9.43-.65-13.32-1.44.22-2.88.5-4.39.86-2.3-.86-4.54-7-2-9.29s42.63-11.59 42.41 16.2c-.14 7.29-4.46 11.32-9.72 13.63zm-15.7-22.54c.07.72.07 1.58.07 2.52-.07 4.54-.29 9.36-.58 13.83 8.71-.07 19.87-4.61 20.23-9.36.3-4.04-6.9-7.49-19.72-6.99z"/><path d="M271.15 11.46c-8.5 0-19.87 3.6-19.87 4.1-.14 1.3 26.71 5.54 25.71 21.82-.79 13.32-9.72 16.2-19.66 16.2s-16.42-10.3-16.06-15.91a37.34 37.34 0 0 1 1.51-9.22 66.83 66.83 0 0 0-.22 7.06 58.83 58.83 0 0 1 .86-7.85l1.15-1.3.36.86c-1.3 22.25 25.78 13.83 26 10.37.36-6.26-30.89-8.28-30.17-20.74.36-6.26 1.15-6 1.15-6C242.34 3 266.32 1.2 268.7 1.2c0 .04 6.33 3.55 2.45 10.26z"/><path class="a" d="M48.75 43.23l-.72 2.59-.72.14-.29 1.8-.58 2.16-.94.14-.13 1.69a2.21 2.21 0 0 0-1.15.07c-.22.07-.14.72-.36.79-3.89-7.06-6.55-19.73-8.06-30.89-2.45 7.7-6.12 18.07-8.42 24.27-.5 1.51-7.27 4-7.92-2.52-1.73-4-4.54-11.09-7.56-18.29-1.15 10.8-2.52 19-2.52 19l-.94-.14-2.74 4.82-1.87.58-.58 1.15s-1.15-.94-1.8-.65-1 1.87-1.44 1.87c.86-8.86 2.38-38 1.37-48.75a.38.38 0 0 0-.14-.22.25.25 0 0 0 .13-.09A14.38 14.38 0 0 0 1.08.59 11.52 11.52 0 0 1 6.91.3c3.89-.79 8.14-.14 9.15 3.17 2.88 9.94 5.47 19.23 7 25.06 4-10.73 9.07-21.39 11-25.27a13.31 13.31 0 0 1-.07-1.58c2.88-1.8 10.08-2.81 11.74.5.94 1.94.65 4.68.72 11a254.77 254.77 0 0 0 2.3 30.05z"/><path class="a" d="M89.21 33.43c0 .5-1.37 1.8-1.37 1.8l-.36.86-2.74 1.3 2 .22a14.66 14.66 0 0 0-3.17 1.73c-1.22.94-1.58 1.94-2.52 2.3a136.71 136.71 0 0 0-30.48 10.44c-2.23 1.08-6.34-8.35-2.74-10.23a7.88 7.88 0 0 1 1.51-.65c0-12.31.36-34-.94-38.6a13.5 13.5 0 0 1 5.69-.86c7.63-1 24.12-.65 28.8-.58a9 9 0 0 0-.07 1.87 7.76 7.76 0 0 0-2.23 1.58c-.22.22-1.66 1.22-1.66 1.22l1.44.07-2.38 1.22-.07.86s-2.88 1.22-3.31 1.37-7.7 1.22-14 2.23c0 .58-.07 1.15-.07 1.73-.07 1.87-.22 3.6-.36 5.33a153.15 153.15 0 0 1 18.07-1.15 5.51 5.51 0 0 1-.58 1.51l-.27 1.75-2.23 1.22.94.07-2.38 1.51.07.72-2.59.65-.5.86s-2.59 1.22-3.6 1.58c-.43 0-4.39 1.15-8 2-.36 3.82-.79 6.77-1.08 8.57 9.73-3.13 22.9-6.08 31.18-4.5z"/><path class="a" d="M129.57 43.23l-.72 2.59-.72.14-.29 1.8-.58 2.16-.94.14-.17 1.69a2.21 2.21 0 0 0-1.15.07c-.22.07-.14.72-.36.79-3.89-7.06-6.55-19.73-8.06-30.89-2.45 7.7-6.12 18.07-8.42 24.27-.5 1.51-7.27 4-7.92-2.52-1.73-4-4.54-11.09-7.56-18.29-1.15 10.8-2.52 19-2.52 19l-.94-.14-2.74 4.82-1.87.58-.58 1.15s-1.15-.94-1.8-.65-1 1.87-1.44 1.87c.86-8.86 2.38-38 1.37-48.75a.38.38 0 0 0-.14-.22.25.25 0 0 0 .14-.07 14.38 14.38 0 0 0-.29-2.16A11.52 11.52 0 0 1 87.7.32c3.89-.79 8.14-.14 9.15 3.17 2.88 9.94 5.47 19.23 7 25.06 4-10.73 9.07-21.39 11-25.27a13.31 13.31 0 0 1-.07-1.58c2.88-1.8 10.08-2.81 11.74.5.94 1.94.65 4.68.72 11a254.77 254.77 0 0 0 2.33 30.03z"/><path class="a" d="M148.76 50.07c-2.59 0-7.27.36-11.74-.79-.29.5-.58.94-.79 1.37s-.86-.07-1.08-.79c-.29 1.51-.14 1.94-.65 2.23s-.79 1.3-1.08 1.37a50.92 50.92 0 0 1-.29-5.69c-3.6-1.94-6.48-5.4-7.27-11.67a25.9 25.9 0 0 0 7.06 2.66c-.07-3.67-.14-7.63-.29-11.52-1.15 0-2.38.07-3.67.14 0 0-3.82-2.3-1.44-7.78a4.82 4.82 0 0 1 1.8-.58l-.07-.79s1.22-.29 3.1-.79c-.14-2.52-.29-4.9-.43-7a3.5 3.5 0 0 1-1.66-.29c-1.15-.86-2.23-4.68-1.22-6.41l2.09-.36a2.43 2.43 0 0 0-.29-.86s5.26-2.23 8.35-.14c6.62-.72 15-1.15 19.87.29 2.38 1.73 3 6.12 3 9.58 0 0-.65 3.31-6.26 6.34 7.78 1.87 14.26 6.26 14.76 15.41.59 11.39-9.56 15.99-21.8 16.07zm-7.2-23c-.22 5.83-.65 9.94-1 12.6 6.91.22 14.76-1.15 21-5.69.01.03 1.09-6.38-19.99-6.88zm.07-12.53c4.18-1.44 8.35-3.17 10.51-5-.86-.5-5.69-.14-10.58.29.01 1.71.07 3.22.07 4.74z"/><path class="a" d="M209.09 33.43c0 .5-1.37 1.8-1.37 1.8l-.36.86-2.74 1.3 2 .22a14.66 14.66 0 0 0-3.17 1.73c-1.22.94-1.58 1.94-2.52 2.3a136.72 136.72 0 0 0-30.46 10.44c-2.23 1.08-6.34-8.35-2.74-10.23a7.88 7.88 0 0 1 1.51-.65c0-12.31.36-34-.94-38.6a13.5 13.5 0 0 1 5.69-.86c7.63-1 24.12-.65 28.8-.58a9 9 0 0 0-.07 1.87 7.75 7.75 0 0 0-2.23 1.58c-.22.22-1.66 1.22-1.66 1.22l1.44.07-2.38 1.22-.07.86s-2.88 1.22-3.31 1.37-7.71 1.22-14 2.23c0 .58-.07 1.15-.07 1.73-.07 1.87-.22 3.6-.36 5.33a153.16 153.16 0 0 1 18.07-1.15 5.51 5.51 0 0 1-.58 1.51l-.29 1.75-2.23 1.22.94.07-2.42 1.53.07.72-2.59.65-.48.81s-2.59 1.22-3.6 1.58c-.43 0-4.39 1.15-8 2-.36 3.82-.79 6.77-1.08 8.57 9.74-3.1 22.92-6.05 31.2-4.47z"/><path class="a" d="M232.78 33.65c2.74 5 4 11.09 3 15.48a20.53 20.53 0 0 0-2.57-11.38s2.74 9.22 1.8 12.24a5.44 5.44 0 0 1-.36-.43 4.67 4.67 0 0 1-1.3 1.51c-.43.07-1.87.43-1.87.43l-.65-.72c-1.44-5.62-4.75-10.66-7.92-14.69a47.29 47.29 0 0 1-6.41.43h-.43c-.29 4.46-.5 7.42-.5 7.42s-.5.86-1.22 2c-.43.65-1.44 2.88-1.44 2.88a3.26 3.26 0 0 0-1.34.93 14.63 14.63 0 0 0-.58 1.44l-.58-.07-.84 1.39a1.35 1.35 0 0 0-.65-.29c-.36.14-.58.94-.86.94-.22-1.22-.43-9.58-.72-19.23a11.9 11.9 0 0 1-5.18-7 8.27 8.27 0 0 1-.29-3c.36 1.94 1.44 4.61 2.16 5.26-1.37-2.74-1.8-5.4-1.44-7 .36 1.08 2 2.38 4.54 3.38-.22-4.75-.43-9.43-.65-13.32-1.44.22-2.88.5-4.39.86-2.3-.86-4.54-7-2-9.29s42.63-11.59 42.41 16.2c-.14 7.29-4.46 11.32-9.72 13.63zm-15.7-22.54c.07.72.07 1.58.07 2.52-.07 4.54-.29 9.36-.58 13.83 8.71-.07 19.87-4.61 20.23-9.36.3-4.04-6.9-7.49-19.72-6.99z"/><path class="a" d="M270.15 10.46c-8.5 0-19.87 3.6-19.87 4.1-.14 1.3 26.71 5.54 25.71 21.82-.79 13.32-9.72 16.2-19.66 16.2s-16.42-10.3-16.06-15.91a37.34 37.34 0 0 1 1.51-9.22 66.83 66.83 0 0 0-.22 7.06 58.83 58.83 0 0 1 .86-7.85l1.15-1.3.36.86c-1.3 22.25 25.78 13.83 26 10.37.36-6.26-30.89-8.28-30.17-20.74.36-6.26 1.15-6 1.15-6C241.34 2 265.32.2 267.7.2c0 .04 6.33 3.55 2.45 10.26z"/></svg>