<svg xmlns="http://www.w3.org/2000/svg" viewBox="0 0 133.15 52.38"><defs><style>.a{isolation:isolate;}.b{mix-blend-mode:multiply;}.c{fill:#231f20;}.d{fill:#fff;}</style></defs><title>logo-sm-4</title><g class="a"><g class="b"><path class="c" d="M195.46,99.24c-0.85,2.59-7.51,5.82-9.22-1.75-4.21-7-8.49-16.5-12.34-24.65-0.73,11.13-1.83,21.61-1.83,21.61l-0.37-.19-1.53,3.43-0.92.52-0.73,2.26-0.73-.71-0.86,2.39a3.05,3.05,0,0,0-1.1.19,2.08,2.08,0,0,0-.73.78c-0.43-2.78.37-41.73-1.1-47.42a8.84,8.84,0,0,1,2.5-.58c3.36-1.62,8.06-1.29,9.53,3,3,9.06,7.45,19.8,10.14,26.2,0.79-12.23,2.5-27.88,3.6-32.15,0.18,0.19.24,1.49,0.43,1.68s0.37-.91.49-0.78,0.61,2.39.79,2.72a1.18,1.18,0,0,0,1.1.13,44.35,44.35,0,0,1,2.5,6.28c0.06,0.19.12,0.39,0.18,0.65C193.56,95.68,196.07,97.3,195.46,99.24Z" transform="translate(-163 -51.14)"/><path class="c" d="M201.08,57.06c2.57-1.23,5.92,1.81,6.17,3.11,0.12,0.45.06,1.42-.61,1.55a16.52,16.52,0,0,0-2.5,8.73c0,7.31,3.54,9.7,4.21,9.77,1.16,0.13,4.52-3.23,4.52-10.74,0-9.51-5.56-9.12-5.56-9.12l-0.24-.06s0.61-.19.49-0.45a1.48,1.48,0,0,1-.43-0.45,1.33,1.33,0,0,1,.73-0.91C211,57,220.2,59.78,220.2,71.62c0,9.58-4.64,17.66-11.73,17.53-8-.13-12.58-11.19-12.58-16.82C195.89,63.27,200.41,57.38,201.08,57.06ZM201,101.89c5.07-1.75,12-3.62,18.57-2.65l0.55,0.32s0.55-2.2.67-2.65A4.72,4.72,0,0,0,220,95l0.49-.13-0.79-1s0.37,0.13.31,0c-1.89-3.49-16.25-4.85-22.66-.91C195.52,97.17,196.74,103.38,201,101.89Z" transform="translate(-163 -51.14)"/><path class="c" d="M261.55,98c-0.18.45-.73,2.65-0.73,2.65l-0.55-.32c-7.88-2.52-30.6,1.23-35.67,3-4.28,1.42-5.5-4.72-3.73-8.93L221.6,94c0.06-11.77.31-32.61-.61-38.17a1,1,0,0,1,.85-1c2.75-.71,9.9-1.42,9.28,10.42-0.55,10.48-1.71,22.32-2.14,26.85,10.08-1.36,25.41-.52,31.7,2.85,0.12,0.06-.31,0-0.31,0l0.79,1-0.55.13S261.67,97.56,261.55,98Zm-29-14.17a116.39,116.39,0,0,0,7.21-28.53c4.95-.78,7.82-0.58,9.22.45,2.38-.06,4.64.78,5.07,3.75a149.42,149.42,0,0,0,7.21,29.37c-0.06,0-1-1-1-1l-0.43.71-0.67-.39-0.55-.39-0.67.58a10.51,10.51,0,0,0-.55-1.1c-0.18.52-1,2.46-1,2.46l-0.49-.32c-6.35-1.94-13.44-1-18.69-.06-2.81.52-4-1.81-3.91-4.59A1.12,1.12,0,0,0,232.6,83.84Zm17.84-3.69c-1.34-3.23-2.57-6.53-3.66-9.7-1.1,3-2.32,5.76-3.6,8.41A36.47,36.47,0,0,1,250.43,80.16Z" transform="translate(-163 -51.14)"/><path class="c" d="M277.68,100c-2.2,0-6.17.32-10-.71-0.24.45-.49,0.84-0.67,1.23s-0.73-.06-0.92-0.71c-0.24,1.36-.12,1.75-0.55,2s-0.67,1.16-.92,1.23a48.51,48.51,0,0,1-.24-5.11c-3.05-1.75-5.5-4.85-6.17-10.48a21.22,21.22,0,0,0,6,2.39c-0.06-3.3-.12-6.86-0.24-10.35-1,0-2,.06-3.12.13,0,0-3.24-2.07-1.22-7a4,4,0,0,1,1.53-.52l-0.06-.71s1-.26,2.63-0.71c-0.12-2.26-.24-4.4-0.37-6.28a2.82,2.82,0,0,1-1.4-.26c-1-.78-1.89-4.21-1-5.76l1.77-.32a2.26,2.26,0,0,0-.24-0.78s4.46-2,7.09-.13c5.62-.65,12.71-1,16.86.26,2,1.55,2.5,5.5,2.5,8.6,0,0-.55,3-5.31,5.69,6.6,1.68,12.09,5.63,12.52,13.85C296.68,95.81,288.06,100,277.68,100Zm-6.11-20.64c-0.18,5.24-.55,8.93-0.85,11.32,5.86,0.19,12.52-1,17.84-5.11C288.55,85.59,289.47,79.83,271.57,79.38Zm0.06-11.26c3.54-1.29,7.08-2.85,8.92-4.46-0.73-.45-4.83-0.13-9,0.26C271.57,65.41,271.63,66.76,271.63,68.12Z" transform="translate(-163 -51.14)"/></g><path class="d" d="M194.46,98.24c-0.85,2.59-7.51,5.82-9.22-1.75-4.21-7-8.49-16.5-12.34-24.65-0.73,11.13-1.83,21.61-1.83,21.61l-0.37-.19-1.53,3.43-0.92.52-0.73,2.26-0.73-.71-0.86,2.39a3.05,3.05,0,0,0-1.1.19,2.08,2.08,0,0,0-.73.78c-0.43-2.78.37-41.73-1.1-47.42a8.84,8.84,0,0,1,2.5-.58c3.36-1.62,8.06-1.29,9.53,3,3,9.06,7.45,19.8,10.14,26.2,0.79-12.23,2.5-27.88,3.6-32.15,0.18,0.19.24,1.49,0.43,1.68s0.37-.91.49-0.78,0.61,2.39.79,2.72a1.18,1.18,0,0,0,1.1.13,44.35,44.35,0,0,1,2.5,6.28c0.06,0.19.12,0.39,0.18,0.65C192.56,94.68,195.07,96.3,194.46,98.24Z" transform="translate(-163 -51.14)"/><path class="d" d="M200.08,56.06c2.57-1.23,5.92,1.81,6.17,3.11,0.12,0.45.06,1.42-.61,1.55a16.52,16.52,0,0,0-2.5,8.73c0,7.31,3.54,9.7,4.21,9.77,1.16,0.13,4.52-3.23,4.52-10.74,0-9.51-5.56-9.12-5.56-9.12l-0.24-.06s0.61-.19.49-0.45a1.48,1.48,0,0,1-.43-0.45,1.33,1.33,0,0,1,.73-0.91C210,56,219.2,58.78,219.2,70.62c0,9.58-4.64,17.66-11.73,17.53-8-.13-12.58-11.19-12.58-16.82C194.89,62.27,199.41,56.38,200.08,56.06ZM200,100.89c5.07-1.75,12-3.62,18.57-2.65l0.55,0.32s0.55-2.2.67-2.65A4.72,4.72,0,0,0,219,94l0.49-.13-0.79-1s0.37,0.13.31,0c-1.89-3.49-16.25-4.85-22.66-.91C194.52,96.17,195.74,102.38,200,100.89Z" transform="translate(-163 -51.14)"/><path class="d" d="M260.55,97c-0.18.45-.73,2.65-0.73,2.65l-0.55-.32c-7.88-2.52-30.6,1.23-35.67,3-4.28,1.42-5.5-4.72-3.73-8.93L220.6,93c0.06-11.77.31-32.61-.61-38.17a1,1,0,0,1,.85-1c2.75-.71,9.9-1.42,9.28,10.42-0.55,10.48-1.71,22.32-2.14,26.85,10.08-1.36,25.41-.52,31.7,2.85,0.12,0.06-.31,0-0.31,0l0.79,1-0.55.13S260.67,96.56,260.55,97Zm-29-14.17a116.39,116.39,0,0,0,7.21-28.53c4.95-.78,7.82-0.58,9.22.45,2.38-.06,4.64.78,5.07,3.75a149.42,149.42,0,0,0,7.21,29.37c-0.06,0-1-1-1-1l-0.43.71-0.67-.39-0.55-.39-0.67.58a10.51,10.51,0,0,0-.55-1.1c-0.18.52-1,2.46-1,2.46l-0.49-.32c-6.35-1.94-13.44-1-18.69-.06-2.81.52-4-1.81-3.91-4.59A1.12,1.12,0,0,0,231.6,82.84Zm17.84-3.69c-1.34-3.23-2.57-6.53-3.66-9.7-1.1,3-2.32,5.76-3.6,8.41A36.47,36.47,0,0,1,249.43,79.16Z" transform="translate(-163 -51.14)"/><path class="d" d="M276.68,99c-2.2,0-6.17.32-10-.71-0.24.45-.49,0.84-0.67,1.23s-0.73-.06-0.92-0.71c-0.24,1.36-.12,1.75-0.55,2s-0.67,1.16-.92,1.23a48.51,48.51,0,0,1-.24-5.11c-3.05-1.75-5.5-4.85-6.17-10.48a21.22,21.22,0,0,0,6,2.39c-0.06-3.3-.12-6.86-0.24-10.35-1,0-2,.06-3.12.13,0,0-3.24-2.07-1.22-7a4,4,0,0,1,1.53-.52l-0.06-.71s1-.26,2.63-0.71c-0.12-2.26-.24-4.4-0.37-6.28a2.82,2.82,0,0,1-1.4-.26c-1-.78-1.89-4.21-1-5.76l1.77-.32a2.26,2.26,0,0,0-.24-0.78s4.46-2,7.09-.13c5.62-.65,12.71-1,16.86.26,2,1.55,2.5,5.5,2.5,8.6,0,0-.55,3-5.31,5.69,6.6,1.68,12.09,5.63,12.52,13.85C295.68,94.81,287.06,99,276.68,99Zm-6.11-20.64c-0.18,5.24-.55,8.93-0.85,11.32,5.86,0.19,12.52-1,17.84-5.11C287.55,84.59,288.47,78.83,270.57,78.38Zm0.06-11.26c3.54-1.29,7.08-2.85,8.92-4.46-0.73-.45-4.83-0.13-9,0.26C270.57,64.41,270.63,65.76,270.63,67.12Z" transform="translate(-163 -51.14)"/></g></svg>