<svg xmlns="http://www.w3.org/2000/svg" viewBox="0 0 165.69 103.77"><defs><style>.a{fill:#fff;}.b{fill:#d7b73f;}</style></defs><title>logo-large-white</title><path d="M279.83,315.17a1.13,1.13,0,0,0-.84-1.52c-1.31,0-2.62.11-3.92,0.19a3.72,3.72,0,0,1-3.74-1.53,1,1,0,0,1,.51-1.73,1.77,1.77,0,0,0,1-1,0.66,0.66,0,0,0-.72-1,3.56,3.56,0,0,0-1.25.46c-0.82.44-1.32,0.2-1.48-.69-0.08-.42-0.09-0.86-0.18-1.27a13.39,13.39,0,0,1-.53-4.47c0-.66,0-1.24,0-1.83a0.59,0.59,0,0,1,.49-0.68,2.67,2.67,0,0,1,2.79,1,4,4,0,0,0,1.18,1.1c1,0.59.93,0.74,0.67,1.56l-0.08.24c-0.09.24,0,.34,0.25,0.36,0.41,0,.82.08,1.24,0.09a1.69,1.69,0,0,0,2-1.28,1.09,1.09,0,0,1,.16-0.38c0.65-.91.38-1.61-0.32-2.41a9.47,9.47,0,0,0-6-3.49,11.85,11.85,0,0,1-5.28-2,1.66,1.66,0,0,1-.86-0.78,2.33,2.33,0,0,0-.86-1.18c-1.38-1.17-2.07-1.24-3.7-.52a1.48,1.48,0,0,1-1.07.25,9.68,9.68,0,0,1-1.8-.75,12.61,12.61,0,0,1-4.48-4.47,2,2,0,0,0-1.72-1,8.48,8.48,0,0,1-1.63-.2,1.68,1.68,0,0,1-1.27-1.9,4.47,4.47,0,0,1,.4-1.05,0.79,0.79,0,0,1,1-.49,7.58,7.58,0,0,0,2.31.13,1.51,1.51,0,0,0,1.52-1.51,33.48,33.48,0,0,1,.89-3.56,1.13,1.13,0,0,0-.28-1.23,1.38,1.38,0,0,1-.31-1.63c0.19-.65.59-1.38,0-2.05a2.81,2.81,0,0,1-.67-2.3,2.2,2.2,0,0,0-.89-2.09,8.24,8.24,0,0,0-7.09-2c-2.52.53-4.62,1.66-5.59,4.28a7.12,7.12,0,0,0-.51,4.27,5.72,5.72,0,0,0,.71,1.65c0.58,1,.91,2,1.54,3,0.77,1.14.79,2.27-.66,2.94l-0.28.13a10.1,10.1,0,0,0-3.5,2.66c-0.59.75-1,1.61-1.47,2.4a38.53,38.53,0,0,0-3.06,5.53,20.22,20.22,0,0,0-1.42,9.4,4.26,4.26,0,0,0,.2,1.43c0.57,1.34,1.06,2.71,1.51,4.09a24.51,24.51,0,0,1,1.42,4.75,3.16,3.16,0,0,0,2.47,2.75,9,9,0,0,0,5.59-.25,27.18,27.18,0,0,0,8.22-5.32,18.8,18.8,0,0,1,1.6-1.34,10.86,10.86,0,0,0,3.05-2.83,1.77,1.77,0,0,1,.45-0.42,0.47,0.47,0,0,1,.74.09,5.33,5.33,0,0,1,1.38,4.33,9.64,9.64,0,0,0,.43,4.23,2,2,0,0,0,1.71,1.32,4.69,4.69,0,0,0,4.76-2.2c0.32-.53.74-0.5,1.16,0a3.26,3.26,0,0,1,.53,3.52,6.9,6.9,0,0,0-.39,3.59,0.81,0.81,0,0,0,.4.62,3.23,3.23,0,0,0,2.59.35c1-.36,2-0.61,3-0.92a15.74,15.74,0,0,1,5.31-1.12A3.8,3.8,0,0,0,279,319a0.46,0.46,0,0,0,.3-0.25,5.5,5.5,0,0,0,.43-3.11A0.65,0.65,0,0,1,279.83,315.17ZM251,298.43a6.57,6.57,0,0,1-1.72,1.33l1-3,0.76,1.38A0.18,0.18,0,0,1,251,298.43Zm9.43,4.87a3.59,3.59,0,0,1-1-1.35c-0.05-.31,0-0.53.35-0.6a0.44,0.44,0,0,1,.62.37A4.77,4.77,0,0,1,260.4,303.3Z" transform="translate(-116.94 -250.57)"/><path class="a" d="M278.83,314.17a1.13,1.13,0,0,0-.84-1.52c-1.31,0-2.62.11-3.92,0.19a3.72,3.72,0,0,1-3.74-1.53,1,1,0,0,1,.51-1.73,1.77,1.77,0,0,0,1-1,0.66,0.66,0,0,0-.72-1,3.56,3.56,0,0,0-1.25.46c-0.82.44-1.32,0.2-1.48-.69-0.08-.42-0.09-0.86-0.18-1.27a13.39,13.39,0,0,1-.53-4.47c0-.66,0-1.24,0-1.83a0.59,0.59,0,0,1,.49-0.68,2.67,2.67,0,0,1,2.79,1,4,4,0,0,0,1.18,1.1c1,0.59.93,0.74,0.67,1.56l-0.08.24c-0.09.24,0,.34,0.25,0.36,0.41,0,.82.08,1.24,0.09a1.69,1.69,0,0,0,2-1.28,1.09,1.09,0,0,1,.16-0.38c0.65-.91.38-1.61-0.32-2.41a9.47,9.47,0,0,0-6-3.49,11.85,11.85,0,0,1-5.28-2,1.66,1.66,0,0,1-.86-0.78,2.33,2.33,0,0,0-.86-1.18c-1.38-1.17-2.07-1.24-3.7-.52a1.48,1.48,0,0,1-1.07.25,9.68,9.68,0,0,1-1.8-.75,12.61,12.61,0,0,1-4.48-4.47,2,2,0,0,0-1.72-1,8.48,8.48,0,0,1-1.63-.2,1.68,1.68,0,0,1-1.27-1.9,4.47,4.47,0,0,1,.4-1.05,0.79,0.79,0,0,1,1-.49,7.58,7.58,0,0,0,2.31.13,1.51,1.51,0,0,0,1.52-1.51,33.48,33.48,0,0,1,.89-3.56,1.13,1.13,0,0,0-.28-1.23,1.38,1.38,0,0,1-.31-1.63c0.19-.65.59-1.38,0-2.05a2.81,2.81,0,0,1-.67-2.3,2.2,2.2,0,0,0-.89-2.09,8.24,8.24,0,0,0-7.09-2c-2.52.53-4.62,1.66-5.59,4.28a7.12,7.12,0,0,0-.51,4.27,5.72,5.72,0,0,0,.71,1.65c0.58,1,.91,2,1.54,3,0.77,1.14.79,2.27-.66,2.94l-0.28.13a10.1,10.1,0,0,0-3.5,2.66c-0.59.75-1,1.61-1.47,2.4a38.53,38.53,0,0,0-3.06,5.53,20.22,20.22,0,0,0-1.42,9.4,4.26,4.26,0,0,0,.2,1.43c0.57,1.34,1.06,2.71,1.51,4.09a24.51,24.51,0,0,1,1.42,4.75,3.16,3.16,0,0,0,2.47,2.75,9,9,0,0,0,5.59-.25,27.18,27.18,0,0,0,8.22-5.32,18.8,18.8,0,0,1,1.6-1.34,10.86,10.86,0,0,0,3.05-2.83,1.77,1.77,0,0,1,.45-0.42,0.47,0.47,0,0,1,.74.09,5.33,5.33,0,0,1,1.38,4.33,9.64,9.64,0,0,0,.43,4.23,2,2,0,0,0,1.71,1.32,4.69,4.69,0,0,0,4.76-2.2c0.32-.53.74-0.5,1.16,0a3.26,3.26,0,0,1,.53,3.52,6.9,6.9,0,0,0-.39,3.59,0.81,0.81,0,0,0,.4.62,3.23,3.23,0,0,0,2.59.35c1-.36,2-0.61,3-0.92a15.74,15.74,0,0,1,5.31-1.12A3.8,3.8,0,0,0,278,318a0.46,0.46,0,0,0,.3-0.25,5.5,5.5,0,0,0,.43-3.11A0.65,0.65,0,0,1,278.83,314.17ZM250,297.43a6.57,6.57,0,0,1-1.72,1.33l1-3,0.76,1.38A0.18,0.18,0,0,1,250,297.43Zm9.43,4.87a3.59,3.59,0,0,1-1-1.35c-0.05-.31,0-0.53.35-0.6a0.44,0.44,0,0,1,.62.37A4.77,4.77,0,0,1,259.4,302.3Z" transform="translate(-116.94 -250.57)"/><path class="b" d="M250.24,261.19c-0.09-.49-0.18-0.89-0.24-1.3a14.48,14.48,0,0,1,.23-5.14c0.08-.36-0.15-0.39-0.37-0.48a0.31,0.31,0,0,0-.48.2c-0.63,1.27-1.25,2.54-1.92,3.78a14.79,14.79,0,0,1-2.18,3.22c-0.46.48-.7,0.53-1.21,0.11a13.55,13.55,0,0,1-1.61-1.55,51,51,0,0,1-3.88-5.35,0.48,0.48,0,0,1,.06-0.69,1.8,1.8,0,0,0,.47-1.43,1.21,1.21,0,0,0-.62-1.13,2.06,2.06,0,0,0-1.89.12,1.53,1.53,0,0,0-.28,2.57,4.3,4.3,0,0,0,1,.42,0.47,0.47,0,0,1,.46.31A42.11,42.11,0,0,1,239,261a8.34,8.34,0,0,1,0,2.88c-0.18.77-.32,0.9-1.16,0.82a7,7,0,0,1-1.88-.42c-1.31-.5-2.59-1.08-3.87-1.65-0.73-.33-1.44-0.71-2.16-1.07a0.31,0.31,0,0,1-.2-0.48,1.31,1.31,0,0,0,.14-0.7,1.18,1.18,0,0,0-.46-1.17,2.08,2.08,0,0,0-1.9,0,1.55,1.55,0,1,0,1.26,2.83,0.64,0.64,0,0,1,.88.13c1.09,1.1,2.21,2.17,3.27,3.31a10.38,10.38,0,0,1,1.23,1.77c0.26,0.43.21,0.46,0.7,0.27a4.84,4.84,0,0,0-.44-1.09c-0.54-.75-1.16-1.46-1.73-2.19a0.93,0.93,0,0,1-.08-0.36,0.82,0.82,0,0,1,.32,0c0.5,0.2,1,.41,1.5.62a11.35,11.35,0,0,0,3.39.87,1.56,1.56,0,0,0,2-1.55,11.14,11.14,0,0,0,0-1.93c-0.17-1.45-.41-2.89-0.62-4.33a2.29,2.29,0,0,1,0-.41l0.1,0a1.72,1.72,0,0,1,.27.23c0.66,0.87,1.28,1.77,2,2.59a26.73,26.73,0,0,0,2.17,2.21,1.21,1.21,0,0,0,1.72,0,4,4,0,0,0,.91-0.93c0.84-1.29,1.63-2.61,2.44-3.92a1.46,1.46,0,0,1,.3-0.27,1.16,1.16,0,0,1,.17.37c0.06,0.88.14,1.77,0.15,2.65A1.27,1.27,0,0,0,250.24,261.19Zm-7.82,6a0.52,0.52,0,0,0-.76-0.26,19.27,19.27,0,0,0-4.71,2.56,13.24,13.24,0,0,0-1.45,1.32,0.78,0.78,0,0,0-.14,1,0.92,0.92,0,0,0,1,.47,13.67,13.67,0,0,0,2.11-.47,52.76,52.76,0,0,0,5.91-2.48,36.1,36.1,0,0,0,5.47-3.05,20.6,20.6,0,0,0,2-1.69,0.79,0.79,0,0,0-.07-1.24,2.05,2.05,0,0,0-1.67-.47,15.63,15.63,0,0,0-5,1,36.31,36.31,0,0,0-5.82,2.59,41.81,41.81,0,0,0-5.81,4.06,1.64,1.64,0,0,0-.42,1,6.16,6.16,0,0,0,.89-0.65c0.6-.51,1.19-1,1.8-1.55a28.38,28.38,0,0,1,5.62-3.35,28.76,28.76,0,0,1,7-2.38,5,5,0,0,1,2.36,0,3.37,3.37,0,0,1,.68.38,2.34,2.34,0,0,1-.44.66,27.48,27.48,0,0,1-2.64,1.82c-1.59.91-3.21,1.75-4.84,2.57a33.29,33.29,0,0,1-5.66,2.28,9.9,9.9,0,0,1-1.46.26,0.42,0.42,0,0,1-.35-0.15,0.43,0.43,0,0,1,.12-0.35,5.72,5.72,0,0,1,.74-0.71,19.61,19.61,0,0,1,5.2-2.95A1.87,1.87,0,0,0,242.42,267.21Zm7.74-16.52a1.47,1.47,0,0,0-.91,2,1.57,1.57,0,0,0,2.21.84,1.36,1.36,0,0,0,.73-1.88A1.54,1.54,0,0,0,250.16,250.68Z" transform="translate(-116.94 -250.57)"/><path class="b" d="M250.24,261.19a1.27,1.27,0,0,1-.85-1.11c0-.88-0.09-1.77-0.15-2.65a1.16,1.16,0,0,0-.17-0.37,1.46,1.46,0,0,0-.3.27c-0.82,1.3-1.61,2.63-2.44,3.92a4,4,0,0,1-.91.93,1.21,1.21,0,0,1-1.72,0,26.73,26.73,0,0,1-2.17-2.21c-0.71-.83-1.33-1.73-2-2.59a1.72,1.72,0,0,0-.27-0.23l-0.1,0a2.29,2.29,0,0,0,0,.41c0.21,1.44.45,2.89,0.62,4.33a11.14,11.14,0,0,1,0,1.93,1.56,1.56,0,0,1-2,1.55,11.35,11.35,0,0,1-3.39-.87c-0.5-.21-1-0.42-1.5-0.62a0.82,0.82,0,0,0-.32,0,0.93,0.93,0,0,0,.08.36c0.57,0.73,1.19,1.43,1.73,2.19a4.84,4.84,0,0,1,.44,1.09c-0.49.19-.44,0.16-0.7-0.27a10.38,10.38,0,0,0-1.23-1.77c-1.05-1.14-2.17-2.21-3.27-3.31a0.64,0.64,0,0,0-.88-0.13,1.55,1.55,0,1,1-1.26-2.83,2.08,2.08,0,0,1,1.9,0,1.18,1.18,0,0,1,.46,1.17,1.31,1.31,0,0,1-.14.7,0.31,0.31,0,0,0,.2.48c0.72,0.36,1.43.74,2.16,1.07,1.28,0.57,2.56,1.14,3.87,1.65a7,7,0,0,0,1.88.42c0.84,0.07,1-.06,1.16-0.82a8.34,8.34,0,0,0,0-2.88,42.11,42.11,0,0,0-1.2-6.16,0.47,0.47,0,0,0-.46-0.31,4.3,4.3,0,0,1-1-.42,1.53,1.53,0,0,1,.28-2.57,2.06,2.06,0,0,1,1.89-.12,1.21,1.21,0,0,1,.62,1.13,1.8,1.8,0,0,1-.47,1.43,0.48,0.48,0,0,0-.06.69,51,51,0,0,0,3.88,5.35,13.55,13.55,0,0,0,1.61,1.55c0.51,0.42.75,0.37,1.21-.11a14.79,14.79,0,0,0,2.18-3.22c0.67-1.24,1.3-2.51,1.92-3.78a0.31,0.31,0,0,1,.48-0.2c0.22,0.09.45,0.12,0.37,0.48a14.48,14.48,0,0,0-.23,5.14C250.06,260.31,250.15,260.71,250.24,261.19Zm-13.7-7.84a1.31,1.31,0,0,0,.18.23,1,1,0,0,0,1.35.07,1.36,1.36,0,0,0,.27-1.49,0.3,0.3,0,0,0-.13-0.11,1.34,1.34,0,0,0-1.31.07A1.05,1.05,0,0,0,236.55,253.36ZM228,259.74a1,1,0,0,0-.72,1,0.9,0.9,0,0,0,.66.76,1,1,0,0,0,1-.28,1.29,1.29,0,0,0,.32-1.29A1.12,1.12,0,0,0,228,259.74Z" transform="translate(-116.94 -250.57)"/><path class="b" d="M242.42,267.21a1.87,1.87,0,0,1-.32.2,19.61,19.61,0,0,0-5.2,2.95,5.72,5.72,0,0,0-.74.71,0.43,0.43,0,0,0-.12.35,0.42,0.42,0,0,0,.35.15,9.9,9.9,0,0,0,1.46-.26,33.29,33.29,0,0,0,5.66-2.28c1.63-.82,3.26-1.66,4.84-2.57a27.48,27.48,0,0,0,2.64-1.82,2.34,2.34,0,0,0,.44-0.66,3.37,3.37,0,0,0-.68-0.38,5,5,0,0,0-2.36,0,28.76,28.76,0,0,0-7,2.38,28.38,28.38,0,0,0-5.62,3.35c-0.62.5-1.2,1-1.8,1.55a6.16,6.16,0,0,1-.89.65,1.64,1.64,0,0,1,.42-1,41.81,41.81,0,0,1,5.81-4.06,36.31,36.31,0,0,1,5.82-2.59,15.63,15.63,0,0,1,5-1,2.05,2.05,0,0,1,1.67.47,0.79,0.79,0,0,1,.07,1.24,20.6,20.6,0,0,1-2,1.69,36.1,36.1,0,0,1-5.47,3.05,52.76,52.76,0,0,1-5.91,2.48,13.67,13.67,0,0,1-2.11.47,0.92,0.92,0,0,1-1-.47,0.78,0.78,0,0,1,.14-1,13.24,13.24,0,0,1,1.45-1.32,19.27,19.27,0,0,1,4.71-2.56A0.52,0.52,0,0,1,242.42,267.21Z" transform="translate(-116.94 -250.57)"/><path class="b" d="M250.16,250.68a1.54,1.54,0,0,1,2,1,1.36,1.36,0,0,1-.73,1.88,1.57,1.57,0,0,1-2.21-.84A1.47,1.47,0,0,1,250.16,250.68Zm1,2.36a0.81,0.81,0,0,0,.49-1.1,1,1,0,0,0-1.26-.61,0.8,0.8,0,0,0-.48,1.1A1,1,0,0,0,251.12,253Z" transform="translate(-116.94 -250.57)"/><path d="M155.22,313.89c-0.53,1.42-4.69,2.52-7.14,2.33-1.78-.19-2.71-1.23-3.17-3.88-4.63-6.66-9.38-15.85-13.55-23.74-0.73,10.48-1.65,20.38-1.65,20.38l-0.4-.13L127.66,312l-1,.52-0.79,2.14-0.79-.65-0.92,2.2a3.56,3.56,0,0,0-1.19.19,2.19,2.19,0,0,0-.79.78c-0.46-2.65,0-39.53-1.59-44.9a14.56,14.56,0,0,1,2.71-.58c3.63-1.49,8.72-1.23,10.31,2.85,3.3,8.73,8.26,19.15,11.17,25.17,0.46-11.65,1.92-26.72,3-30.73,0.2,0.13.26,1.36,0.46,1.49s0.4-.84.53-0.71,0.73,2.26.93,2.52a1.36,1.36,0,0,0,1.19.13,46.49,46.49,0,0,1,2.91,5.82l0.2,0.58C153.1,310.07,155.81,312,155.22,313.89Z" transform="translate(-116.94 -250.57)"/><path d="M160.57,272.35c2.78-1.23,6.41,1.81,6.67,3.11a1.21,1.21,0,0,1-.66,1.55,15.64,15.64,0,0,0-2.71,8.73c0,7.31,3.83,9.7,4.56,9.77,1.26,0.13,4.89-3.24,4.89-10.74,0-9.51-6-9.12-6-9.12l-0.26-.06s0.66-.19.53-0.45a1.52,1.52,0,0,1-.46-0.45,1.35,1.35,0,0,1,.79-0.91c3.37-1.49,13.35,1.29,13.35,13.13,0,9.58-5,17.66-12.69,17.53-8.66-.13-13.61-11.19-13.61-16.82C155,278.56,159.84,272.67,160.57,272.35Zm-0.07,44.84c5.48-1.75,13-3.62,20.09-2.65l0.59,0.32s0.59-2.2.73-2.65-0.93-1.88-.93-1.88l0.53-.13-0.86-1s0.4,0.13.33,0c-2-3.49-17.58-4.85-24.52-.91C154.55,312.46,155.88,318.67,160.5,317.19Z" transform="translate(-116.94 -250.57)"/><path d="M226,313.3c-0.2.45-.79,2.65-0.79,2.65l-0.6-.32c-8.52-2.52-33.11,1.23-38.59,3-4.63,1.42-5.95-4.72-4-8.93l0.79-.39c0.07-11.77.33-32.61-.66-38.17a1,1,0,0,1,.93-1c3-.71,10.71-1.42,10,10.42-0.6,10.48-1.85,22.32-2.31,26.85,10.9-1.36,27.49-.52,34.3,2.85,0.13,0.06-.33,0-0.33,0l0.86,1-0.59.13S226.12,312.85,226,313.3Zm-31.32-14.17a109.34,109.34,0,0,0,7.8-28.53c5.35-.78,8.46-0.58,10,0.45,2.58-.06,5,0.78,5.49,3.75a140,140,0,0,0,7.8,29.37c-0.07,0-1.06-1-1.06-1l-0.46.71-0.73-.39-0.59-.39-0.73.58a10.23,10.23,0,0,0-.59-1.1c-0.2.52-1.12,2.46-1.12,2.46l-0.53-.32c-6.87-1.94-14.54-1-20.22-.06-3,.52-4.3-1.81-4.23-4.59A1.15,1.15,0,0,0,194.67,299.13Zm19.3-3.69c-1.45-3.23-2.78-6.53-4-9.7a90.87,90.87,0,0,1-3.9,8.41A42.35,42.35,0,0,1,214,295.45Z" transform="translate(-116.94 -250.57)"/><path class="a" d="M154.22,312.89c-0.53,1.42-4.69,2.52-7.14,2.33-1.78-.19-2.71-1.23-3.17-3.88-4.63-6.66-9.38-15.85-13.55-23.74-0.73,10.48-1.65,20.38-1.65,20.38l-0.4-.13L126.66,311l-1,.52-0.79,2.14-0.79-.65-0.92,2.2a3.56,3.56,0,0,0-1.19.19,2.19,2.19,0,0,0-.79.78c-0.46-2.65,0-39.53-1.59-44.9a14.56,14.56,0,0,1,2.71-.58c3.63-1.49,8.72-1.23,10.31,2.85,3.3,8.73,8.26,19.15,11.17,25.17,0.46-11.65,1.92-26.72,3-30.73,0.2,0.13.26,1.36,0.46,1.49s0.4-.84.53-0.71,0.73,2.26.93,2.52a1.36,1.36,0,0,0,1.19.13,46.49,46.49,0,0,1,2.91,5.82l0.2,0.58C152.1,309.07,154.81,311,154.22,312.89Z" transform="translate(-116.94 -250.57)"/><path class="a" d="M159.57,271.35c2.78-1.23,6.41,1.81,6.67,3.11a1.21,1.21,0,0,1-.66,1.55,15.64,15.64,0,0,0-2.71,8.73c0,7.31,3.83,9.7,4.56,9.77,1.26,0.13,4.89-3.24,4.89-10.74,0-9.51-6-9.12-6-9.12l-0.26-.06s0.66-.19.53-0.45a1.52,1.52,0,0,1-.46-0.45,1.35,1.35,0,0,1,.79-0.91c3.37-1.49,13.35,1.29,13.35,13.13,0,9.58-5,17.66-12.69,17.53-8.66-.13-13.61-11.19-13.61-16.82C154,277.56,158.84,271.67,159.57,271.35Zm-0.07,44.84c5.48-1.75,13-3.62,20.09-2.65l0.59,0.32s0.59-2.2.73-2.65-0.93-1.88-.93-1.88l0.53-.13-0.86-1s0.4,0.13.33,0c-2-3.49-17.58-4.85-24.52-.91C153.55,311.46,154.88,317.67,159.5,316.19Z" transform="translate(-116.94 -250.57)"/><path class="a" d="M225,312.3c-0.2.45-.79,2.65-0.79,2.65l-0.6-.32c-8.52-2.52-33.11,1.23-38.59,3-4.63,1.42-5.95-4.72-4-8.93l0.79-.39c0.07-11.77.33-32.61-.66-38.17a1,1,0,0,1,.93-1c3-.71,10.71-1.42,10,10.42-0.6,10.48-1.85,22.32-2.31,26.85,10.9-1.36,27.49-.52,34.3,2.85,0.13,0.06-.33,0-0.33,0l0.86,1-0.59.13S225.12,311.85,225,312.3Zm-31.32-14.17a109.34,109.34,0,0,0,7.8-28.53c5.35-.78,8.46-0.58,10,0.45,2.58-.06,5,0.78,5.49,3.75a140,140,0,0,0,7.8,29.37c-0.07,0-1.06-1-1.06-1l-0.46.71-0.73-.39-0.59-.39-0.73.58a10.23,10.23,0,0,0-.59-1.1c-0.2.52-1.12,2.46-1.12,2.46l-0.53-.32c-6.87-1.94-14.54-1-20.22-.06-3,.52-4.3-1.81-4.23-4.59A1.15,1.15,0,0,0,193.67,298.13Zm19.3-3.69c-1.45-3.23-2.78-6.53-4-9.7a90.87,90.87,0,0,1-3.9,8.41A42.35,42.35,0,0,1,213,294.45Z" transform="translate(-116.94 -250.57)"/><path d="M131.21,352.11a25.84,25.84,0,0,1-6.8-.46c-0.17.29-.33,0.54-0.46,0.79s-0.5,0-.63-0.46c-0.17.88-.08,1.13-0.38,1.29s-0.46.75-.63,0.79a29.54,29.54,0,0,1-.17-3.3c-2.09-1.13-3.76-3.13-4.21-6.76a15,15,0,0,0,4.09,1.54c0-2.13-.08-4.42-0.17-6.68-0.67,0-1.38,0-2.13.08,0,0-2.21-1.34-.83-4.51a2.8,2.8,0,0,1,1-.33l0-.46s0.71-.17,1.79-0.46c-0.08-1.46-.17-2.84-0.25-4a2,2,0,0,1-1-.17,3.84,3.84,0,0,1-.71-3.71l1.21-.21a1.41,1.41,0,0,0-.17-0.5s3-1.29,4.84-.08c3.84-.42,8.68-0.67,11.52.17,1.38,1,1.71,3.55,1.71,5.55,0,0-.38,1.92-3.63,3.67,4.51,1.08,8.26,3.63,8.56,8.93C144.19,349.4,138.31,352.07,131.21,352.11ZM127,338.8c-0.12,3.38-.38,5.76-0.58,7.3a19.77,19.77,0,0,0,12.19-3.3S139.27,339.09,127,338.8Zm0-7.26a21.89,21.89,0,0,0,6.09-2.88c-0.5-.29-3.3-0.08-6.13.17C127,329.78,127.08,330.66,127.08,331.54Z" transform="translate(-116.94 -250.57)"/><path d="M159.59,342.6c1.59,2.88,2.3,6.43,1.71,9a11.9,11.9,0,0,0-1.46-6.59s1.59,5.34,1,7.09a3.08,3.08,0,0,1-.21-0.25,2.71,2.71,0,0,1-.75.88c-0.25,0-1.08.25-1.08,0.25l-0.38-.42a23.91,23.91,0,0,0-4.59-8.51,27.42,27.42,0,0,1-3.71.25h-0.25c-0.17,2.59-.29,4.3-0.29,4.3s-0.29.5-.71,1.17c-0.25.38-.83,1.67-0.83,1.67a1.89,1.89,0,0,0-.79.54,8.54,8.54,0,0,0-.33.83l-0.33,0-0.5.79a0.78,0.78,0,0,0-.38-0.17,6.9,6.9,0,0,1-.5.54c-0.12-.71-0.25-5.55-0.42-11.14a6.89,6.89,0,0,1-3-4,4.78,4.78,0,0,1-.17-1.71,7.49,7.49,0,0,0,1.25,3,6.73,6.73,0,0,1-.83-4c0.21,0.63,1.17,1.38,2.63,2-0.12-2.75-.25-5.47-0.38-7.72-0.83.13-1.67,0.29-2.55,0.5-1.34-.5-2.63-4-1.17-5.38s24.71-6.72,24.58,9.39C165.14,338.92,162.64,341.26,159.59,342.6Zm-9.1-13.06c0,0.42,0,.92,0,1.46,0,2.63-.17,5.43-0.33,8,5,0,11.52-2.67,11.73-5.43C162.1,331.24,157.92,329.24,150.49,329.53Z" transform="translate(-116.94 -250.57)"/><path d="M188.43,342.47a3.21,3.21,0,0,1-.79,1l-0.21.5-1.59.75,1.17,0.13a8.5,8.5,0,0,0-1.84,1,9.61,9.61,0,0,1-1.46,1.34,79.23,79.23,0,0,0-17.65,6.05c-1.29.63-3.67-4.84-1.59-5.93a4.58,4.58,0,0,1,.88-0.38c0-7.14.21-19.7-.54-22.37a7.83,7.83,0,0,1,3.3-.5c4.42-.58,14-0.38,16.69-0.33a5.24,5.24,0,0,0,0,1.09,4.49,4.49,0,0,0-1.29.92c-0.13.13-1,.71-1,0.71l0.83,0-1.38.71,0,0.5s-1.67.71-1.92,0.79-4.47.71-8.14,1.29c0,0.33,0,.67,0,1,0,1.08-.12,2.09-0.21,3.09a88.74,88.74,0,0,1,10.47-.67,3.19,3.19,0,0,1-.33.88l-0.17,1-1.29.71,0.54,0-1.38.88,0,0.42-1.5.38-0.29.5s-1.5.71-2.09,0.92c-0.25,0-2.55.67-4.63,1.17-0.21,2.21-.46,3.92-0.63,5C176,343.26,183.63,341.55,188.43,342.47Z" transform="translate(-116.94 -250.57)"/><path d="M201.32,351.23c-0.08.29-.46,1.71-0.46,1.71l-0.38-.21c-4.47-.63-12.6.33-16.07,1.46-2.92,1-3.76-3-2.55-5.76,4.38-2.55,17.57-1.42,18.86.83,0.08,0.08-.21,0-0.21,0l0.58,0.71-0.38.08A3,3,0,0,1,201.32,351.23Zm-19.61-8.81a70,70,0,0,0,4.92-18.4c3.42-.5,5.34-0.38,6.3.29,1.63,0,3.17.5,3.46,2.42a92.57,92.57,0,0,0,4.92,18.95s-0.67-.67-0.67-0.67l-0.29.46-0.46-.29-0.38-.21-0.46.38s-0.17-.38-0.38-0.75c-0.12.33-.67,1.63-0.67,1.63l-0.38-.25c-4.3-1.21-9.18-.67-12.77,0-1.92.33-2.71-1.17-2.67-3A0.73,0.73,0,0,0,181.71,342.43Zm12.19-2.38c-0.92-2.13-1.75-4.26-2.5-6.26a59,59,0,0,1-2.46,5.43A23.31,23.31,0,0,1,193.89,340.05Z" transform="translate(-116.94 -250.57)"/><path d="M214.43,337.38c3.25,3.26,6.3,10.85,5.17,15a13.64,13.64,0,0,0-1.5-6.72s1.63,5.38,1,7.22a1.94,1.94,0,0,0-.21-0.25,2.34,2.34,0,0,1-.75.92,8.84,8.84,0,0,0-1.17.21l-0.38-.42c-1-3.76-4.55-9.89-6.72-12.44a25.16,25.16,0,0,1-3,1.71c-0.21,3.46-.42,5.93-0.42,5.93s-0.29.46-.71,1.21a11.12,11.12,0,0,0-.88,1.71,2.11,2.11,0,0,0-.83.5c-0.08.13-.38,0.83-0.38,0.83h-0.33l-0.5.83a1,1,0,0,0-.42-0.21,3.94,3.94,0,0,1-.5.58c-0.33-1.67-.5-24.41-1.54-29.13a0.73,0.73,0,0,1,.63-0.63c1.75-.5,6.64-1.08,6.43,6.26,0,2-.12,4-0.21,6A23.69,23.69,0,0,0,215,324.32c1.25-2.21,6.68,1.13,6.05,3.67C220.31,331.08,217.56,334.54,214.43,337.38Z" transform="translate(-116.94 -250.57)"/><path d="M243.85,342.47a3.21,3.21,0,0,1-.79,1l-0.21.5-1.59.75,1.17,0.13a8.5,8.5,0,0,0-1.84,1,9.61,9.61,0,0,1-1.46,1.34,79.23,79.23,0,0,0-17.65,6.05c-1.29.63-3.67-4.84-1.59-5.93a4.58,4.58,0,0,1,.88-0.38c0-7.14.21-19.7-.54-22.37a7.83,7.83,0,0,1,3.3-.5c4.42-.58,14-0.38,16.69-0.33a5.24,5.24,0,0,0,0,1.09,4.49,4.49,0,0,0-1.29.92c-0.13.13-1,.71-1,0.71l0.83,0-1.38.71,0,0.5s-1.67.71-1.92,0.79-4.47.71-8.14,1.29c0,0.33,0,.67,0,1,0,1.08-.12,2.09-0.21,3.09a88.74,88.74,0,0,1,10.47-.67,3.19,3.19,0,0,1-.33.88l-0.17,1-1.29.71,0.54,0-1.38.88,0,0.42-1.5.38-0.29.5s-1.5.71-2.09,0.92c-0.25,0-2.55.67-4.63,1.17-0.21,2.21-.46,3.92-0.63,5C231.41,343.26,239,341.55,243.85,342.47Z" transform="translate(-116.94 -250.57)"/><path d="M257.58,342.6c1.59,2.88,2.29,6.43,1.71,9a11.9,11.9,0,0,0-1.46-6.59s1.59,5.34,1,7.09a3.08,3.08,0,0,1-.21-0.25,2.71,2.71,0,0,1-.75.88c-0.25,0-1.08.25-1.08,0.25l-0.38-.42a23.91,23.91,0,0,0-4.59-8.51,27.42,27.42,0,0,1-3.71.25H247.9c-0.17,2.59-.29,4.3-0.29,4.3s-0.29.5-.71,1.17c-0.25.38-.83,1.67-0.83,1.67a1.89,1.89,0,0,0-.79.54,8.54,8.54,0,0,0-.33.83l-0.33,0-0.5.79a0.78,0.78,0,0,0-.38-0.17,6.9,6.9,0,0,1-.5.54c-0.12-.71-0.25-5.55-0.42-11.14a6.89,6.89,0,0,1-3-4,4.78,4.78,0,0,1-.17-1.71,7.49,7.49,0,0,0,1.25,3,6.73,6.73,0,0,1-.83-4c0.21,0.63,1.17,1.38,2.63,2-0.12-2.75-.25-5.47-0.38-7.72-0.83.13-1.67,0.29-2.55,0.5-1.34-.5-2.63-4-1.17-5.38s24.71-6.72,24.58,9.39C263.13,338.92,260.62,341.26,257.58,342.6Zm-9.1-13.06c0,0.42,0,.92,0,1.46,0,2.63-.17,5.43-0.33,8,5,0,11.52-2.67,11.73-5.43C260.08,331.24,255.91,329.24,248.48,329.53Z" transform="translate(-116.94 -250.57)"/><path d="M279.24,329.16c-4.92,0-11.52,2.09-11.52,2.38-0.08.75,15.48,3.21,14.9,12.65-0.46,7.72-5.63,9.39-11.39,9.39s-9.52-6-9.31-9.22a21.63,21.63,0,0,1,.88-5.34,38.71,38.71,0,0,0-.12,4.09,34,34,0,0,1,.5-4.55l0.67-.75,0.21,0.5c-0.75,12.9,14.94,8,15.07,6,0.21-3.63-17.9-4.8-17.49-12,0.21-3.63.67-3.46,0.67-3.46,0.25-4.55,14.15-5.59,15.52-5.59A4.12,4.12,0,0,1,279.24,329.16Z" transform="translate(-116.94 -250.57)"/><path class="a" d="M130.21,351.11a25.84,25.84,0,0,1-6.8-.46c-0.17.29-.33,0.54-0.46,0.79s-0.5,0-.63-0.46c-0.17.88-.08,1.13-0.38,1.29s-0.46.75-.63,0.79a29.54,29.54,0,0,1-.17-3.3c-2.09-1.13-3.76-3.13-4.21-6.76a15,15,0,0,0,4.09,1.54c0-2.13-.08-4.42-0.17-6.68-0.67,0-1.38,0-2.13.08,0,0-2.21-1.34-.83-4.51a2.8,2.8,0,0,1,1-.33l0-.46s0.71-.17,1.79-0.46c-0.08-1.46-.17-2.84-0.25-4a2,2,0,0,1-1-.17,3.84,3.84,0,0,1-.71-3.71l1.21-.21a1.41,1.41,0,0,0-.17-0.5s3-1.29,4.84-.08c3.84-.42,8.68-0.67,11.52.17,1.38,1,1.71,3.55,1.71,5.55,0,0-.38,1.92-3.63,3.67,4.51,1.08,8.26,3.63,8.56,8.93C143.19,348.4,137.31,351.07,130.21,351.11ZM126,337.8c-0.12,3.38-.38,5.76-0.58,7.3a19.77,19.77,0,0,0,12.19-3.3S138.27,338.09,126,337.8Zm0-7.26a21.89,21.89,0,0,0,6.09-2.88c-0.5-.29-3.3-0.08-6.13.17C126,328.78,126.08,329.66,126.08,330.54Z" transform="translate(-116.94 -250.57)"/><path class="a" d="M158.59,341.6c1.59,2.88,2.3,6.43,1.71,9a11.9,11.9,0,0,0-1.46-6.59s1.59,5.34,1,7.09a3.08,3.08,0,0,1-.21-0.25,2.71,2.71,0,0,1-.75.88c-0.25,0-1.08.25-1.08,0.25l-0.38-.42a23.91,23.91,0,0,0-4.59-8.51,27.42,27.42,0,0,1-3.71.25h-0.25c-0.17,2.59-.29,4.3-0.29,4.3s-0.29.5-.71,1.17c-0.25.38-.83,1.67-0.83,1.67a1.89,1.89,0,0,0-.79.54,8.54,8.54,0,0,0-.33.83l-0.33,0-0.5.79a0.78,0.78,0,0,0-.38-0.17,6.9,6.9,0,0,1-.5.54c-0.12-.71-0.25-5.55-0.42-11.14a6.89,6.89,0,0,1-3-4,4.78,4.78,0,0,1-.17-1.71,7.49,7.49,0,0,0,1.25,3,6.73,6.73,0,0,1-.83-4c0.21,0.63,1.17,1.38,2.63,2-0.12-2.75-.25-5.47-0.38-7.72-0.83.13-1.67,0.29-2.55,0.5-1.34-.5-2.63-4-1.17-5.38s24.71-6.72,24.58,9.39C164.14,337.92,161.64,340.26,158.59,341.6Zm-9.1-13.06c0,0.42,0,.92,0,1.46,0,2.63-.17,5.43-0.33,8,5,0,11.52-2.67,11.73-5.43C161.1,330.24,156.92,328.24,149.49,328.53Z" transform="translate(-116.94 -250.57)"/><path class="a" d="M187.43,341.47a3.21,3.21,0,0,1-.79,1l-0.21.5-1.59.75,1.17,0.13a8.5,8.5,0,0,0-1.84,1,9.61,9.61,0,0,1-1.46,1.34,79.23,79.23,0,0,0-17.65,6.05c-1.29.63-3.67-4.84-1.59-5.93a4.58,4.58,0,0,1,.88-0.38c0-7.14.21-19.7-.54-22.37a7.83,7.83,0,0,1,3.3-.5c4.42-.58,14-0.38,16.69-0.33a5.24,5.24,0,0,0,0,1.09,4.49,4.49,0,0,0-1.29.92c-0.13.13-1,.71-1,0.71l0.83,0-1.38.71,0,0.5s-1.67.71-1.92,0.79-4.47.71-8.14,1.29c0,0.33,0,.67,0,1,0,1.08-.12,2.09-0.21,3.09a88.74,88.74,0,0,1,10.47-.67,3.19,3.19,0,0,1-.33.88l-0.17,1-1.29.71,0.54,0-1.38.88,0,0.42-1.5.38-0.29.5s-1.5.71-2.09,0.92c-0.25,0-2.55.67-4.63,1.17-0.21,2.21-.46,3.92-0.63,5C175,342.26,182.63,340.55,187.43,341.47Z" transform="translate(-116.94 -250.57)"/><path class="a" d="M200.32,350.23c-0.08.29-.46,1.71-0.46,1.71l-0.38-.21c-4.47-.63-12.6.33-16.07,1.46-2.92,1-3.76-3-2.55-5.76,4.38-2.55,17.57-1.42,18.86.83,0.08,0.08-.21,0-0.21,0l0.58,0.71-0.38.08A3,3,0,0,1,200.32,350.23Zm-19.61-8.81a70,70,0,0,0,4.92-18.4c3.42-.5,5.34-0.38,6.3.29,1.63,0,3.17.5,3.46,2.42a92.57,92.57,0,0,0,4.92,18.95s-0.67-.67-0.67-0.67l-0.29.46-0.46-.29-0.38-.21-0.46.38s-0.17-.38-0.38-0.75c-0.12.33-.67,1.63-0.67,1.63l-0.38-.25c-4.3-1.21-9.18-.67-12.77,0-1.92.33-2.71-1.17-2.67-3A0.73,0.73,0,0,0,180.71,341.43Zm12.19-2.38c-0.92-2.13-1.75-4.26-2.5-6.26a59,59,0,0,1-2.46,5.43A23.31,23.31,0,0,1,192.89,339.05Z" transform="translate(-116.94 -250.57)"/><path class="a" d="M213.43,336.38c3.25,3.26,6.3,10.85,5.17,15a13.64,13.64,0,0,0-1.5-6.72s1.63,5.38,1,7.22a1.94,1.94,0,0,0-.21-0.25,2.34,2.34,0,0,1-.75.92,8.84,8.84,0,0,0-1.17.21l-0.38-.42c-1-3.76-4.55-9.89-6.72-12.44a25.16,25.16,0,0,1-3,1.71c-0.21,3.46-.42,5.93-0.42,5.93s-0.29.46-.71,1.21a11.12,11.12,0,0,0-.88,1.71,2.11,2.11,0,0,0-.83.5c-0.08.13-.38,0.83-0.38,0.83h-0.33l-0.5.83a1,1,0,0,0-.42-0.21,3.94,3.94,0,0,1-.5.58c-0.33-1.67-.5-24.41-1.54-29.13a0.73,0.73,0,0,1,.63-0.63c1.75-.5,6.64-1.08,6.43,6.26,0,2-.12,4-0.21,6A23.69,23.69,0,0,0,214,323.32c1.25-2.21,6.68,1.13,6.05,3.67C219.31,330.08,216.56,333.54,213.43,336.38Z" transform="translate(-116.94 -250.57)"/><path class="a" d="M242.85,341.47a3.21,3.21,0,0,1-.79,1l-0.21.5-1.59.75,1.17,0.13a8.5,8.5,0,0,0-1.84,1,9.61,9.61,0,0,1-1.46,1.34,79.23,79.23,0,0,0-17.65,6.05c-1.29.63-3.67-4.84-1.59-5.93a4.58,4.58,0,0,1,.88-0.38c0-7.14.21-19.7-.54-22.37a7.83,7.83,0,0,1,3.3-.5c4.42-.58,14-0.38,16.69-0.33a5.24,5.24,0,0,0,0,1.09,4.49,4.49,0,0,0-1.29.92c-0.13.13-1,.71-1,0.71l0.83,0-1.38.71,0,0.5s-1.67.71-1.92,0.79-4.47.71-8.14,1.29c0,0.33,0,.67,0,1,0,1.08-.12,2.09-0.21,3.09a88.74,88.74,0,0,1,10.47-.67,3.19,3.19,0,0,1-.33.88l-0.17,1-1.29.71,0.54,0-1.38.88,0,0.42-1.5.38-0.29.5s-1.5.71-2.09,0.92c-0.25,0-2.55.67-4.63,1.17-0.21,2.21-.46,3.92-0.63,5C230.41,342.26,238,340.55,242.85,341.47Z" transform="translate(-116.94 -250.57)"/><path class="a" d="M256.58,341.6c1.59,2.88,2.29,6.43,1.71,9a11.9,11.9,0,0,0-1.46-6.59s1.59,5.34,1,7.09a3.08,3.08,0,0,1-.21-0.25,2.71,2.71,0,0,1-.75.88c-0.25,0-1.08.25-1.08,0.25l-0.38-.42a23.91,23.91,0,0,0-4.59-8.51,27.42,27.42,0,0,1-3.71.25H246.9c-0.17,2.59-.29,4.3-0.29,4.3s-0.29.5-.71,1.17c-0.25.38-.83,1.67-0.83,1.67a1.89,1.89,0,0,0-.79.54,8.54,8.54,0,0,0-.33.83l-0.33,0-0.5.79a0.78,0.78,0,0,0-.38-0.17,6.9,6.9,0,0,1-.5.54c-0.12-.71-0.25-5.55-0.42-11.14a6.89,6.89,0,0,1-3-4,4.78,4.78,0,0,1-.17-1.71,7.49,7.49,0,0,0,1.25,3,6.73,6.73,0,0,1-.83-4c0.21,0.63,1.17,1.38,2.63,2-0.12-2.75-.25-5.47-0.38-7.72-0.83.13-1.67,0.29-2.55,0.5-1.34-.5-2.63-4-1.17-5.38s24.71-6.72,24.58,9.39C262.13,337.92,259.62,340.26,256.58,341.6Zm-9.1-13.06c0,0.42,0,.92,0,1.46,0,2.63-.17,5.43-0.33,8,5,0,11.52-2.67,11.73-5.43C259.08,330.24,254.91,328.24,247.48,328.53Z" transform="translate(-116.94 -250.57)"/><path class="a" d="M278.24,328.16c-4.92,0-11.52,2.09-11.52,2.38-0.08.75,15.48,3.21,14.9,12.65-0.46,7.72-5.63,9.39-11.39,9.39s-9.52-6-9.31-9.22a21.63,21.63,0,0,1,.88-5.34,38.71,38.71,0,0,0-.12,4.09,34,34,0,0,1,.5-4.55l0.67-.75,0.21,0.5c-0.75,12.9,14.94,8,15.07,6,0.21-3.63-17.9-4.8-17.49-12,0.21-3.63.67-3.46,0.67-3.46,0.25-4.55,14.15-5.59,15.52-5.59A4.12,4.12,0,0,1,278.24,328.16Z" transform="translate(-116.94 -250.57)"/></svg>