<svg xmlns="http://www.w3.org/2000/svg" viewBox="0 0 52.36 70.07"><defs><style>.a{fill:#010101}.b{fill:#d7b73f}</style></defs><title>logo-boy</title><path class="a" d="M52.3 63.6a1.13 1.13 0 0 0-.84-1.52c-1.31 0-2.62.11-3.92.19a3.72 3.72 0 0 1-3.74-1.53 1 1 0 0 1 .51-1.73 1.77 1.77 0 0 0 1-1 .66.66 0 0 0-.72-1 3.56 3.56 0 0 0-1.25.46c-.82.44-1.32.2-1.48-.69-.08-.42-.09-.86-.18-1.27a13.39 13.39 0 0 1-.53-4.47v-1.83a.59.59 0 0 1 .49-.68 2.67 2.67 0 0 1 2.79 1 4 4 0 0 0 1.18 1.1c1 .59.93.74.67 1.56l-.08.24c-.09.24 0 .34.25.36.41 0 .82.08 1.24.09a1.69 1.69 0 0 0 2-1.28 1.09 1.09 0 0 1 .16-.38c.65-.91.38-1.61-.32-2.41a9.47 9.47 0 0 0-6-3.49 11.85 11.85 0 0 1-5.28-2 1.66 1.66 0 0 1-.86-.78 2.33 2.33 0 0 0-.86-1.18c-1.38-1.17-2.07-1.24-3.7-.52a1.48 1.48 0 0 1-1.07.25 9.68 9.68 0 0 1-1.8-.75 12.61 12.61 0 0 1-4.48-4.47 2 2 0 0 0-1.72-1 8.48 8.48 0 0 1-1.63-.2 1.68 1.68 0 0 1-1.27-1.9 4.47 4.47 0 0 1 .4-1.05.79.79 0 0 1 1-.49 7.58 7.58 0 0 0 2.31.13 1.51 1.51 0 0 0 1.52-1.51 33.48 33.48 0 0 1 .89-3.56 1.13 1.13 0 0 0-.28-1.23 1.38 1.38 0 0 1-.31-1.63c.19-.65.59-1.38 0-2.05a2.81 2.81 0 0 1-.67-2.3 2.2 2.2 0 0 0-.89-2.09 8.24 8.24 0 0 0-7.09-2c-2.52.53-4.62 1.66-5.59 4.28a7.12 7.12 0 0 0-.51 4.27 5.72 5.72 0 0 0 .71 1.65c.58 1 .91 2 1.54 3 .77 1.14.79 2.27-.66 2.94l-.28.13a10.1 10.1 0 0 0-3.5 2.66c-.59.75-1 1.61-1.47 2.4a38.53 38.53 0 0 0-3.06 5.53 20.22 20.22 0 0 0-1.42 9.4 4.26 4.26 0 0 0 .2 1.43 50.14 50.14 0 0 1 1.51 4.09 24.51 24.51 0 0 1 1.42 4.75 3.16 3.16 0 0 0 2.47 2.75 9 9 0 0 0 5.59-.25 27.18 27.18 0 0 0 8.22-5.32 18.8 18.8 0 0 1 1.6-1.34 10.86 10.86 0 0 0 3.05-2.83 1.77 1.77 0 0 1 .45-.42.47.47 0 0 1 .74.09 5.33 5.33 0 0 1 1.36 4.33 9.64 9.64 0 0 0 .43 4.23 2 2 0 0 0 1.71 1.32 4.69 4.69 0 0 0 4.76-2.2c.32-.53.74-.5 1.16 0a3.26 3.26 0 0 1 .53 3.52 6.9 6.9 0 0 0-.39 3.59.81.81 0 0 0 .4.62 3.23 3.23 0 0 0 2.59.35c1-.36 2-.61 3-.92a15.74 15.74 0 0 1 5.31-1.12 3.8 3.8 0 0 0 1.87-.5.46.46 0 0 0 .3-.25 5.5 5.5 0 0 0 .43-3.11.65.65 0 0 1 .09-.46zM23.44 46.86a6.57 6.57 0 0 1-1.72 1.33l1-3 .76 1.38a.18.18 0 0 1-.03.29zm9.43 4.87a3.59 3.59 0 0 1-1-1.35c-.05-.31 0-.53.35-.6a.44.44 0 0 1 .62.37 4.77 4.77 0 0 1 .03 1.58z"/><path class="b" d="M23.71 10.62c-.09-.49-.18-.89-.24-1.3a14.48 14.48 0 0 1 .23-5.14c.08-.36-.15-.39-.37-.48a.31.31 0 0 0-.48.2c-.63 1.27-1.25 2.54-1.92 3.78a14.79 14.79 0 0 1-2.18 3.22c-.46.48-.7.53-1.21.11a13.55 13.55 0 0 1-1.61-1.55 51 51 0 0 1-3.88-5.35.48.48 0 0 1 .06-.68A1.8 1.8 0 0 0 12.58 2a1.21 1.21 0 0 0-.62-1.13 2.06 2.06 0 0 0-1.89.12 1.53 1.53 0 0 0-.28 2.57 4.3 4.3 0 0 0 1 .42.47.47 0 0 1 .46.31 42.11 42.11 0 0 1 1.2 6.16 8.34 8.34 0 0 1 0 2.88c-.18.77-.32.9-1.16.82a7 7 0 0 1-1.88-.42c-1.31-.5-2.59-1.08-3.87-1.65-.73-.33-1.44-.71-2.16-1.07a.31.31 0 0 1-.2-.48 1.31 1.31 0 0 0 .14-.7 1.18 1.18 0 0 0-.46-1.17 2.08 2.08 0 0 0-1.9 0 1.55 1.55 0 1 0 1.26 2.83.64.64 0 0 1 .88.13c1.09 1.1 2.21 2.17 3.27 3.31A10.38 10.38 0 0 1 7.6 16.7c.26.43.21.46.7.27a4.84 4.84 0 0 0-.44-1.09c-.54-.75-1.16-1.46-1.73-2.19a.93.93 0 0 1-.08-.36.82.82 0 0 1 .32 0c.5.2 1 .41 1.5.62a11.35 11.35 0 0 0 3.39.87 1.56 1.56 0 0 0 2-1.55 11.14 11.14 0 0 0 0-1.93c-.17-1.45-.41-2.89-.62-4.33a2.29 2.29 0 0 1 0-.41h.1a1.72 1.72 0 0 1 .27.23c.66.87 1.28 1.77 2 2.59a26.73 26.73 0 0 0 2.17 2.21 1.21 1.21 0 0 0 1.72 0 4 4 0 0 0 .91-.93c.84-1.29 1.63-2.61 2.44-3.92a1.46 1.46 0 0 1 .3-.27 1.16 1.16 0 0 1 .17.37c.06.88.14 1.77.15 2.65a1.27 1.27 0 0 0 .84 1.09zm-7.82 6a.52.52 0 0 0-.76-.26 19.27 19.27 0 0 0-4.71 2.56 13.24 13.24 0 0 0-1.45 1.32.78.78 0 0 0-.14 1 .92.92 0 0 0 1 .47 13.67 13.67 0 0 0 2.11-.47 52.76 52.76 0 0 0 5.91-2.48 36.1 36.1 0 0 0 5.47-3.05 20.6 20.6 0 0 0 2-1.69.79.79 0 0 0-.07-1.24 2.05 2.05 0 0 0-1.67-.47 15.63 15.63 0 0 0-5 1 36.31 36.31 0 0 0-5.82 2.59 41.81 41.81 0 0 0-5.81 4.06 1.64 1.64 0 0 0-.42 1 6.16 6.16 0 0 0 .89-.65c.6-.51 1.19-1 1.8-1.55a28.38 28.38 0 0 1 5.62-3.35 28.76 28.76 0 0 1 7-2.38 5 5 0 0 1 2.36 0 3.37 3.37 0 0 1 .68.38 2.34 2.34 0 0 1-.44.66 27.48 27.48 0 0 1-2.64 1.82c-1.59.91-3.21 1.75-4.84 2.57a33.29 33.29 0 0 1-5.66 2.28 9.9 9.9 0 0 1-1.46.26.42.42 0 0 1-.35-.15.43.43 0 0 1 .12-.35 5.72 5.72 0 0 1 .74-.71 19.61 19.61 0 0 1 5.2-2.95 1.87 1.87 0 0 0 .34-.2zM23.63.1a1.47 1.47 0 0 0-.91 2 1.57 1.57 0 0 0 2.21.84 1.36 1.36 0 0 0 .73-1.88 1.54 1.54 0 0 0-2.03-.95z"/><path class="b" d="M23.71 10.62a1.27 1.27 0 0 1-.85-1.11c0-.88-.09-1.77-.15-2.65a1.16 1.16 0 0 0-.17-.37 1.46 1.46 0 0 0-.3.27c-.82 1.3-1.61 2.63-2.44 3.92a4 4 0 0 1-.91.93 1.21 1.21 0 0 1-1.72 0A26.73 26.73 0 0 1 15 9.4c-.71-.83-1.33-1.73-2-2.59a1.72 1.72 0 0 0-.27-.23h-.1a2.29 2.29 0 0 0 0 .41c.21 1.44.45 2.89.62 4.33a11.14 11.14 0 0 1 0 1.93 1.56 1.56 0 0 1-2 1.55 11.35 11.35 0 0 1-3.39-.87c-.5-.21-1-.42-1.5-.62a.82.82 0 0 0-.32 0 .93.93 0 0 0 .08.36c.57.73 1.19 1.43 1.73 2.19a4.84 4.84 0 0 1 .44 1.09c-.49.19-.44.16-.7-.27a10.38 10.38 0 0 0-1.23-1.77c-1.05-1.14-2.17-2.21-3.27-3.31a.64.64 0 0 0-.88-.13A1.55 1.55 0 1 1 .95 8.64a2.08 2.08 0 0 1 1.9 0 1.18 1.18 0 0 1 .46 1.17 1.31 1.31 0 0 1-.14.7.31.31 0 0 0 .2.48c.72.36 1.43.74 2.16 1.07 1.28.57 2.56 1.14 3.87 1.65a7 7 0 0 0 1.88.42c.84.07 1-.06 1.16-.82a8.34 8.34 0 0 0 0-2.88 42.11 42.11 0 0 0-1.2-6.16.47.47 0 0 0-.46-.31 4.3 4.3 0 0 1-1-.42 1.53 1.53 0 0 1 .28-2.57 2.06 2.06 0 0 1 1.89-.12 1.21 1.21 0 0 1 .62 1.13 1.8 1.8 0 0 1-.46 1.45.48.48 0 0 0-.06.69 51 51 0 0 0 3.88 5.35 13.55 13.55 0 0 0 1.61 1.55c.51.42.75.37 1.21-.11a14.79 14.79 0 0 0 2.18-3.22c.67-1.24 1.3-2.51 1.92-3.78a.31.31 0 0 1 .48-.2c.22.09.45.12.37.48a14.48 14.48 0 0 0-.23 5.14c.06.41.15.81.24 1.29zm-13.7-7.84a1.31 1.31 0 0 0 .18.23 1 1 0 0 0 1.35.07 1.36 1.36 0 0 0 .27-1.49.3.3 0 0 0-.13-.11 1.34 1.34 0 0 0-1.31.07 1.05 1.05 0 0 0-.35 1.24zM1.42 9.16a1 1 0 0 0-.72 1 .9.9 0 0 0 .66.76 1 1 0 0 0 1-.28 1.29 1.29 0 0 0 .32-1.29 1.12 1.12 0 0 0-1.25-.18zm14.47 7.48a1.87 1.87 0 0 1-.32.2 19.61 19.61 0 0 0-5.2 2.95 5.72 5.72 0 0 0-.74.71.43.43 0 0 0-.12.35.42.42 0 0 0 .35.15 9.9 9.9 0 0 0 1.46-.26 33.29 33.29 0 0 0 5.66-2.28c1.63-.82 3.26-1.66 4.84-2.57a27.48 27.48 0 0 0 2.64-1.82 2.34 2.34 0 0 0 .44-.66 3.37 3.37 0 0 0-.68-.38 5 5 0 0 0-2.36 0 28.76 28.76 0 0 0-7 2.38 28.38 28.38 0 0 0-5.62 3.35c-.62.5-1.2 1-1.8 1.55a6.16 6.16 0 0 1-.89.65 1.64 1.64 0 0 1 .42-1 41.81 41.81 0 0 1 5.81-4.06 36.31 36.31 0 0 1 5.82-2.59 15.63 15.63 0 0 1 5-1 2.05 2.05 0 0 1 1.67.47.79.79 0 0 1 .07 1.24 20.6 20.6 0 0 1-2 1.69 36.1 36.1 0 0 1-5.47 3.05 52.76 52.76 0 0 1-5.91 2.48 13.67 13.67 0 0 1-2.11.47.92.92 0 0 1-1-.47.78.78 0 0 1 .14-1 13.24 13.24 0 0 1 1.45-1.32 19.27 19.27 0 0 1 4.71-2.56.52.52 0 0 1 .74.28zM23.63.11a1.54 1.54 0 0 1 2 1 1.36 1.36 0 0 1-.73 1.88 1.57 1.57 0 0 1-2.21-.84 1.47 1.47 0 0 1 .94-2.04zm1 2.36a.81.81 0 0 0 .49-1.1 1 1 0 0 0-1.26-.61.8.8 0 0 0-.48 1.1 1 1 0 0 0 1.21.57z"/></svg>