<svg viewBox="0 0 133.15 52.38" xmlns="http://www.w3.org/2000/svg"><g transform="translate(-163 -51.14)"><g fill="#231f20"><path d="m195.46 99.24c-.85 2.59-7.51 5.82-9.22-1.75-4.21-7-8.49-16.5-12.34-24.65-.73 11.13-1.83 21.61-1.83 21.61l-.37-.19-1.53 3.43-.92.52-.73 2.26-.73-.71-.86 2.39a3.05 3.05 0 0 0 -1.1.19 2.08 2.08 0 0 0 -.73.78c-.43-2.78.37-41.73-1.1-47.42a8.84 8.84 0 0 1 2.5-.58c3.36-1.62 8.06-1.29 9.53 3 3 9.06 7.45 19.8 10.14 26.2.79-12.23 2.5-27.88 3.6-32.15.18.19.24 1.49.43 1.68s.37-.91.49-.78.61 2.39.79 2.72a1.18 1.18 0 0 0 1.1.13 44.35 44.35 0 0 1 2.5 6.28c.06.19.12.39.18.65-1.7 32.83.81 34.45.2 36.39z"/><path d="m201.08 57.06c2.57-1.23 5.92 1.81 6.17 3.11.12.45.06 1.42-.61 1.55a16.52 16.52 0 0 0 -2.5 8.73c0 7.31 3.54 9.7 4.21 9.77 1.16.13 4.52-3.23 4.52-10.74 0-9.51-5.56-9.12-5.56-9.12l-.24-.06s.61-.19.49-.45a1.48 1.48 0 0 1 -.43-.45 1.33 1.33 0 0 1 .73-.91c3.14-1.49 12.34 1.29 12.34 13.13 0 9.58-4.64 17.66-11.73 17.53-8-.13-12.58-11.19-12.58-16.82 0-9.06 4.52-14.95 5.19-15.27zm-.08 44.83c5.07-1.75 12-3.62 18.57-2.65l.55.32s.55-2.2.67-2.65a4.72 4.72 0 0 0 -.79-1.91l.49-.13-.79-1s.37.13.31 0c-1.89-3.49-16.25-4.85-22.66-.91-1.83 4.21-.61 10.42 3.65 8.93z"/><path d="m261.55 98c-.18.45-.73 2.65-.73 2.65l-.55-.32c-7.88-2.52-30.6 1.23-35.67 3-4.28 1.42-5.5-4.72-3.73-8.93l.73-.4c.06-11.77.31-32.61-.61-38.17a1 1 0 0 1 .85-1c2.75-.71 9.9-1.42 9.28 10.42-.55 10.48-1.71 22.32-2.14 26.85 10.08-1.36 25.41-.52 31.7 2.85.12.06-.31 0-.31 0l.79 1-.55.13s1.06 1.48.94 1.92zm-29-14.17a116.39 116.39 0 0 0 7.21-28.53c4.95-.78 7.82-.58 9.22.45 2.38-.06 4.64.78 5.07 3.75a149.42 149.42 0 0 0 7.21 29.37c-.06 0-1-1-1-1l-.43.71-.67-.39-.55-.39-.67.58a10.51 10.51 0 0 0 -.55-1.1c-.18.52-1 2.46-1 2.46l-.49-.32c-6.35-1.94-13.44-1-18.69-.06-2.81.52-4-1.81-3.91-4.59a1.12 1.12 0 0 0 -.7-.93zm17.84-3.69c-1.34-3.23-2.57-6.53-3.66-9.7-1.1 3-2.32 5.76-3.6 8.41a36.47 36.47 0 0 1 7.3 1.31z"/><path d="m277.68 100c-2.2 0-6.17.32-10-.71-.24.45-.49.84-.67 1.23s-.73-.06-.92-.71c-.24 1.36-.12 1.75-.55 2s-.67 1.16-.92 1.23a48.51 48.51 0 0 1 -.24-5.11c-3.05-1.75-5.5-4.85-6.17-10.48a21.22 21.22 0 0 0 6 2.39c-.06-3.3-.12-6.86-.24-10.35-1 0-2 .06-3.12.13 0 0-3.24-2.07-1.22-7a4 4 0 0 1 1.53-.52l-.06-.71s1-.26 2.63-.71c-.12-2.26-.24-4.4-.37-6.28a2.82 2.82 0 0 1 -1.4-.26c-1-.78-1.89-4.21-1-5.76l1.77-.32a2.26 2.26 0 0 0 -.24-.78s4.46-2 7.09-.13c5.62-.65 12.71-1 16.86.26 2 1.55 2.5 5.5 2.5 8.6 0 0-.55 3-5.31 5.69 6.6 1.68 12.09 5.63 12.52 13.85.53 10.26-8.09 14.45-18.47 14.45zm-6.11-20.64c-.18 5.24-.55 8.93-.85 11.32 5.86.19 12.52-1 17.84-5.11-.01.02.91-5.74-16.99-6.19zm.06-11.26c3.54-1.29 7.08-2.85 8.92-4.46-.73-.45-4.83-.13-9 .26.02 1.51.08 2.86.08 4.22z"/></g><path d="m194.46 98.24c-.85 2.59-7.51 5.82-9.22-1.75-4.21-7-8.49-16.5-12.34-24.65-.73 11.13-1.83 21.61-1.83 21.61l-.37-.19-1.53 3.43-.92.52-.73 2.26-.73-.71-.86 2.39a3.05 3.05 0 0 0 -1.1.19 2.08 2.08 0 0 0 -.73.78c-.43-2.78.37-41.73-1.1-47.42a8.84 8.84 0 0 1 2.5-.58c3.36-1.62 8.06-1.29 9.53 3 3 9.06 7.45 19.8 10.14 26.2.79-12.23 2.5-27.88 3.6-32.15.18.19.24 1.49.43 1.68s.37-.91.49-.78.61 2.39.79 2.72a1.18 1.18 0 0 0 1.1.13 44.35 44.35 0 0 1 2.5 6.28c.06.19.12.39.18.65-1.7 32.83.81 34.45.2 36.39z" fill="#fff"/><path d="m200.08 56.06c2.57-1.23 5.92 1.81 6.17 3.11.12.45.06 1.42-.61 1.55a16.52 16.52 0 0 0 -2.5 8.73c0 7.31 3.54 9.7 4.21 9.77 1.16.13 4.52-3.23 4.52-10.74 0-9.51-5.56-9.12-5.56-9.12l-.24-.06s.61-.19.49-.45a1.48 1.48 0 0 1 -.43-.45 1.33 1.33 0 0 1 .73-.91c3.14-1.49 12.34 1.29 12.34 13.13 0 9.58-4.64 17.66-11.73 17.53-8-.13-12.58-11.19-12.58-16.82 0-9.06 4.52-14.95 5.19-15.27zm-.08 44.83c5.07-1.75 12-3.62 18.57-2.65l.55.32s.55-2.2.67-2.65a4.72 4.72 0 0 0 -.79-1.91l.49-.13-.79-1s.37.13.31 0c-1.89-3.49-16.25-4.85-22.66-.91-1.83 4.21-.61 10.42 3.65 8.93z" fill="#fff"/><path d="m260.55 97c-.18.45-.73 2.65-.73 2.65l-.55-.32c-7.88-2.52-30.6 1.23-35.67 3-4.28 1.42-5.5-4.72-3.73-8.93l.73-.4c.06-11.77.31-32.61-.61-38.17a1 1 0 0 1 .85-1c2.75-.71 9.9-1.42 9.28 10.42-.55 10.48-1.71 22.32-2.14 26.85 10.08-1.36 25.41-.52 31.7 2.85.12.06-.31 0-.31 0l.79 1-.55.13s1.06 1.48.94 1.92zm-29-14.17a116.39 116.39 0 0 0 7.21-28.53c4.95-.78 7.82-.58 9.22.45 2.38-.06 4.64.78 5.07 3.75a149.42 149.42 0 0 0 7.21 29.37c-.06 0-1-1-1-1l-.43.71-.67-.39-.55-.39-.67.58a10.51 10.51 0 0 0 -.55-1.1c-.18.52-1 2.46-1 2.46l-.49-.32c-6.35-1.94-13.44-1-18.69-.06-2.81.52-4-1.81-3.91-4.59a1.12 1.12 0 0 0 -.7-.93zm17.84-3.69c-1.34-3.23-2.57-6.53-3.66-9.7-1.1 3-2.32 5.76-3.6 8.41a36.47 36.47 0 0 1 7.3 1.31z" fill="#fff"/><path d="m276.68 99c-2.2 0-6.17.32-10-.71-.24.45-.49.84-.67 1.23s-.73-.06-.92-.71c-.24 1.36-.12 1.75-.55 2s-.67 1.16-.92 1.23a48.51 48.51 0 0 1 -.24-5.11c-3.05-1.75-5.5-4.85-6.17-10.48a21.22 21.22 0 0 0 6 2.39c-.06-3.3-.12-6.86-.24-10.35-1 0-2 .06-3.12.13 0 0-3.24-2.07-1.22-7a4 4 0 0 1 1.53-.52l-.06-.71s1-.26 2.63-.71c-.12-2.26-.24-4.4-.37-6.28a2.82 2.82 0 0 1 -1.4-.26c-1-.78-1.89-4.21-1-5.76l1.77-.32a2.26 2.26 0 0 0 -.24-.78s4.46-2 7.09-.13c5.62-.65 12.71-1 16.86.26 2 1.55 2.5 5.5 2.5 8.6 0 0-.55 3-5.31 5.69 6.6 1.68 12.09 5.63 12.52 13.85.53 10.26-8.09 14.45-18.47 14.45zm-6.11-20.64c-.18 5.24-.55 8.93-.85 11.32 5.86.19 12.52-1 17.84-5.11-.01.02.91-5.74-16.99-6.19zm.06-11.26c3.54-1.29 7.08-2.85 8.92-4.46-.73-.45-4.83-.13-9 .26.02 1.51.08 2.86.08 4.22z" fill="#fff"/></g></svg>