<svg xmlns="http://www.w3.org/2000/svg" viewBox="0 0 188.39 71.07"><defs><style>.a{isolation:isolate;}.b{fill:#fff;}.c{fill:#d7b73f;}.d{mix-blend-mode:multiply;}.e{fill:#231f20;}</style></defs><title>logo-sm-3</title><g class="a"><path d="M351.33,100.13a1.13,1.13,0,0,0-.84-1.52c-1.31,0-2.62.11-3.92,0.19a3.72,3.72,0,0,1-3.74-1.53,1,1,0,0,1,.51-1.73,1.77,1.77,0,0,0,1-1,0.66,0.66,0,0,0-.72-1,3.56,3.56,0,0,0-1.25.46c-0.82.44-1.32,0.2-1.48-.69-0.08-.42-0.09-0.86-0.18-1.27a13.39,13.39,0,0,1-.53-4.47c0-.66,0-1.24,0-1.83a0.59,0.59,0,0,1,.49-0.68,2.67,2.67,0,0,1,2.79,1,4,4,0,0,0,1.18,1.1c1,0.59.93,0.74,0.67,1.56l-0.08.24c-0.09.24,0,.34,0.25,0.36,0.41,0,.82.08,1.24,0.09a1.69,1.69,0,0,0,2-1.28,1.09,1.09,0,0,1,.16-0.38c0.65-.91.38-1.61-0.32-2.41a9.47,9.47,0,0,0-6-3.49,11.85,11.85,0,0,1-5.28-2,1.66,1.66,0,0,1-.86-0.78,2.33,2.33,0,0,0-.86-1.18c-1.38-1.17-2.07-1.24-3.7-.52a1.48,1.48,0,0,1-1.07.25,9.68,9.68,0,0,1-1.8-.75,12.61,12.61,0,0,1-4.48-4.47,2,2,0,0,0-1.72-1,8.48,8.48,0,0,1-1.63-.2,1.68,1.68,0,0,1-1.27-1.9,4.47,4.47,0,0,1,.4-1.05,0.79,0.79,0,0,1,1-.49,7.58,7.58,0,0,0,2.31.13,1.51,1.51,0,0,0,1.52-1.51,33.48,33.48,0,0,1,.89-3.56,1.13,1.13,0,0,0-.28-1.23,1.38,1.38,0,0,1-.31-1.63c0.19-.65.59-1.38,0-2.05a2.81,2.81,0,0,1-.67-2.3,2.2,2.2,0,0,0-.89-2.09,8.24,8.24,0,0,0-7.09-2c-2.52.53-4.62,1.66-5.59,4.28a7.12,7.12,0,0,0-.51,4.27,5.72,5.72,0,0,0,.71,1.65c0.58,1,.91,2,1.54,3,0.77,1.14.79,2.27-.66,2.94l-0.28.13a10.1,10.1,0,0,0-3.5,2.66c-0.59.75-1,1.61-1.47,2.4A38.53,38.53,0,0,0,304,78.39a20.22,20.22,0,0,0-1.42,9.4,4.26,4.26,0,0,0,.2,1.43c0.57,1.34,1.06,2.71,1.51,4.09a24.51,24.51,0,0,1,1.42,4.75,3.16,3.16,0,0,0,2.47,2.75,9,9,0,0,0,5.59-.25A27.18,27.18,0,0,0,322,95.24a18.8,18.8,0,0,1,1.6-1.34,10.86,10.86,0,0,0,3.05-2.83,1.77,1.77,0,0,1,.45-0.42,0.47,0.47,0,0,1,.74.09,5.33,5.33,0,0,1,1.38,4.33,9.64,9.64,0,0,0,.43,4.23,2,2,0,0,0,1.71,1.32,4.69,4.69,0,0,0,4.76-2.2c0.32-.53.74-0.5,1.16,0a3.26,3.26,0,0,1,.53,3.52,6.9,6.9,0,0,0-.39,3.59,0.81,0.81,0,0,0,.4.62,3.23,3.23,0,0,0,2.59.35c1-.36,2-0.61,3-0.92a15.74,15.74,0,0,1,5.31-1.12,3.8,3.8,0,0,0,1.87-.5,0.46,0.46,0,0,0,.3-0.25,5.5,5.5,0,0,0,.43-3.11A0.65,0.65,0,0,1,351.33,100.13ZM322.47,83.4a6.57,6.57,0,0,1-1.72,1.33l1-3,0.76,1.38A0.18,0.18,0,0,1,322.47,83.4Zm9.43,4.87a3.59,3.59,0,0,1-1-1.35c-0.05-.31,0-0.53.35-0.6a0.44,0.44,0,0,1,.62.37A4.77,4.77,0,0,1,331.9,88.27Z" transform="translate(-163 -35.53)"/><path class="b" d="M350.33,99.13a1.13,1.13,0,0,0-.84-1.52c-1.31,0-2.62.11-3.92,0.19a3.72,3.72,0,0,1-3.74-1.53,1,1,0,0,1,.51-1.73,1.77,1.77,0,0,0,1-1,0.66,0.66,0,0,0-.72-1,3.56,3.56,0,0,0-1.25.46c-0.82.44-1.32,0.2-1.48-.69-0.08-.42-0.09-0.86-0.18-1.27a13.39,13.39,0,0,1-.53-4.47c0-.66,0-1.24,0-1.83a0.59,0.59,0,0,1,.49-0.68,2.67,2.67,0,0,1,2.79,1,4,4,0,0,0,1.18,1.1c1,0.59.93,0.74,0.67,1.56l-0.08.24c-0.09.24,0,.34,0.25,0.36,0.41,0,.82.08,1.24,0.09a1.69,1.69,0,0,0,2-1.28,1.09,1.09,0,0,1,.16-0.38c0.65-.91.38-1.61-0.32-2.41a9.47,9.47,0,0,0-6-3.49,11.85,11.85,0,0,1-5.28-2,1.66,1.66,0,0,1-.86-0.78,2.33,2.33,0,0,0-.86-1.18c-1.38-1.17-2.07-1.24-3.7-.52a1.48,1.48,0,0,1-1.07.25,9.68,9.68,0,0,1-1.8-.75,12.61,12.61,0,0,1-4.48-4.47,2,2,0,0,0-1.72-1,8.48,8.48,0,0,1-1.63-.2,1.68,1.68,0,0,1-1.27-1.9,4.47,4.47,0,0,1,.4-1.05,0.79,0.79,0,0,1,1-.49,7.58,7.58,0,0,0,2.31.13,1.51,1.51,0,0,0,1.52-1.51,33.48,33.48,0,0,1,.89-3.56,1.13,1.13,0,0,0-.28-1.23,1.38,1.38,0,0,1-.31-1.63c0.19-.65.59-1.38,0-2.05a2.81,2.81,0,0,1-.67-2.3,2.2,2.2,0,0,0-.89-2.09,8.24,8.24,0,0,0-7.09-2c-2.52.53-4.62,1.66-5.59,4.28a7.12,7.12,0,0,0-.51,4.27,5.72,5.72,0,0,0,.71,1.65c0.58,1,.91,2,1.54,3,0.77,1.14.79,2.27-.66,2.94l-0.28.13a10.1,10.1,0,0,0-3.5,2.66c-0.59.75-1,1.61-1.47,2.4A38.53,38.53,0,0,0,303,77.39a20.22,20.22,0,0,0-1.42,9.4,4.26,4.26,0,0,0,.2,1.43c0.57,1.34,1.06,2.71,1.51,4.09a24.51,24.51,0,0,1,1.42,4.75,3.16,3.16,0,0,0,2.47,2.75,9,9,0,0,0,5.59-.25A27.18,27.18,0,0,0,321,94.24a18.8,18.8,0,0,1,1.6-1.34,10.86,10.86,0,0,0,3.05-2.83,1.77,1.77,0,0,1,.45-0.42,0.47,0.47,0,0,1,.74.09,5.33,5.33,0,0,1,1.38,4.33,9.64,9.64,0,0,0,.43,4.23,2,2,0,0,0,1.71,1.32,4.69,4.69,0,0,0,4.76-2.2c0.32-.53.74-0.5,1.16,0a3.26,3.26,0,0,1,.53,3.52,6.9,6.9,0,0,0-.39,3.59,0.81,0.81,0,0,0,.4.62,3.23,3.23,0,0,0,2.59.35c1-.36,2-0.61,3-0.92a15.74,15.74,0,0,1,5.31-1.12,3.8,3.8,0,0,0,1.87-.5,0.46,0.46,0,0,0,.3-0.25,5.5,5.5,0,0,0,.43-3.11A0.65,0.65,0,0,1,350.33,99.13ZM321.47,82.4a6.57,6.57,0,0,1-1.72,1.33l1-3,0.76,1.38A0.18,0.18,0,0,1,321.47,82.4Zm9.43,4.87a3.59,3.59,0,0,1-1-1.35c-0.05-.31,0-0.53.35-0.6a0.44,0.44,0,0,1,.62.37A4.77,4.77,0,0,1,330.9,87.27Z" transform="translate(-163 -35.53)"/><path class="c" d="M321.74,46.16c-0.09-.49-0.18-0.89-0.24-1.3a14.48,14.48,0,0,1,.23-5.14c0.08-.36-0.15-0.39-0.37-0.48a0.31,0.31,0,0,0-.48.2c-0.63,1.27-1.25,2.54-1.92,3.78a14.79,14.79,0,0,1-2.18,3.22c-0.46.48-.7,0.53-1.21,0.11A13.55,13.55,0,0,1,314,45a51,51,0,0,1-3.88-5.35,0.48,0.48,0,0,1,.06-0.69,1.8,1.8,0,0,0,.47-1.43,1.21,1.21,0,0,0-.62-1.13,2.06,2.06,0,0,0-1.89.12,1.53,1.53,0,0,0-.28,2.57,4.3,4.3,0,0,0,1,.42,0.47,0.47,0,0,1,.46.31A42.11,42.11,0,0,1,310.5,46a8.34,8.34,0,0,1,0,2.88c-0.18.77-.32,0.9-1.16,0.82a7,7,0,0,1-1.88-.42c-1.31-.5-2.59-1.08-3.87-1.65-0.73-.33-1.44-0.71-2.16-1.07a0.31,0.31,0,0,1-.2-0.48,1.31,1.31,0,0,0,.14-0.7,1.18,1.18,0,0,0-.46-1.17,2.08,2.08,0,0,0-1.9,0A1.55,1.55,0,1,0,300.27,47a0.64,0.64,0,0,1,.88.13c1.09,1.1,2.21,2.17,3.27,3.31a10.38,10.38,0,0,1,1.23,1.77c0.26,0.43.21,0.46,0.7,0.27a4.84,4.84,0,0,0-.44-1.09c-0.54-.75-1.16-1.46-1.73-2.19a0.93,0.93,0,0,1-.08-0.36,0.82,0.82,0,0,1,.32,0c0.5,0.2,1,.41,1.5.62a11.35,11.35,0,0,0,3.39.87,1.56,1.56,0,0,0,2-1.55,11.14,11.14,0,0,0,0-1.93c-0.17-1.45-.41-2.89-0.62-4.33a2.29,2.29,0,0,1,0-.41l0.1,0a1.72,1.72,0,0,1,.27.23c0.66,0.87,1.28,1.77,2,2.59a26.73,26.73,0,0,0,2.17,2.21,1.21,1.21,0,0,0,1.72,0,4,4,0,0,0,.91-0.93c0.84-1.29,1.63-2.61,2.44-3.92a1.46,1.46,0,0,1,.3-0.27,1.16,1.16,0,0,1,.17.37c0.06,0.88.14,1.77,0.15,2.65A1.27,1.27,0,0,0,321.74,46.16Zm-7.82,6a0.52,0.52,0,0,0-.76-0.26,19.27,19.27,0,0,0-4.71,2.56A13.24,13.24,0,0,0,307,55.79a0.78,0.78,0,0,0-.14,1,0.92,0.92,0,0,0,1,.47,13.67,13.67,0,0,0,2.11-.47,52.76,52.76,0,0,0,5.91-2.48,36.1,36.1,0,0,0,5.47-3.05,20.6,20.6,0,0,0,2-1.69,0.79,0.79,0,0,0-.07-1.24,2.05,2.05,0,0,0-1.67-.47,15.63,15.63,0,0,0-5,1,36.31,36.31,0,0,0-5.82,2.59A41.81,41.81,0,0,0,305,55.48a1.64,1.64,0,0,0-.42,1,6.16,6.16,0,0,0,.89-0.65c0.6-.51,1.19-1,1.8-1.55A28.38,28.38,0,0,1,312.88,51a28.76,28.76,0,0,1,7-2.38,5,5,0,0,1,2.36,0,3.37,3.37,0,0,1,.68.38,2.34,2.34,0,0,1-.44.66,27.48,27.48,0,0,1-2.64,1.82c-1.59.91-3.21,1.75-4.84,2.57a33.29,33.29,0,0,1-5.66,2.28,9.9,9.9,0,0,1-1.46.26,0.42,0.42,0,0,1-.35-0.15,0.43,0.43,0,0,1,.12-0.35,5.72,5.72,0,0,1,.74-0.71,19.61,19.61,0,0,1,5.2-2.95A1.87,1.87,0,0,0,313.92,52.17Zm7.74-16.52a1.47,1.47,0,0,0-.91,2,1.57,1.57,0,0,0,2.21.84,1.36,1.36,0,0,0,.73-1.88A1.54,1.54,0,0,0,321.66,35.64Z" transform="translate(-163 -35.53)"/><path class="c" d="M321.74,46.16a1.27,1.27,0,0,1-.85-1.11c0-.88-0.09-1.77-0.15-2.65a1.16,1.16,0,0,0-.17-0.37,1.46,1.46,0,0,0-.3.27c-0.82,1.3-1.61,2.63-2.44,3.92a4,4,0,0,1-.91.93,1.21,1.21,0,0,1-1.72,0A26.73,26.73,0,0,1,313,44.9c-0.71-.83-1.33-1.73-2-2.59a1.72,1.72,0,0,0-.27-0.23l-0.1,0a2.29,2.29,0,0,0,0,.41c0.21,1.44.45,2.89,0.62,4.33a11.14,11.14,0,0,1,0,1.93,1.56,1.56,0,0,1-2,1.55,11.35,11.35,0,0,1-3.39-.87c-0.5-.21-1-0.42-1.5-0.62a0.82,0.82,0,0,0-.32,0,0.93,0.93,0,0,0,.08.36c0.57,0.73,1.19,1.43,1.73,2.19a4.84,4.84,0,0,1,.44,1.09c-0.49.19-.44,0.16-0.7-0.27a10.38,10.38,0,0,0-1.23-1.77c-1.05-1.14-2.17-2.21-3.27-3.31a0.64,0.64,0,0,0-.88-0.13A1.55,1.55,0,1,1,299,44.17a2.08,2.08,0,0,1,1.9,0,1.18,1.18,0,0,1,.46,1.17,1.31,1.31,0,0,1-.14.7,0.31,0.31,0,0,0,.2.48c0.72,0.36,1.43.74,2.16,1.07,1.28,0.57,2.56,1.14,3.87,1.65a7,7,0,0,0,1.88.42c0.84,0.07,1-.06,1.16-0.82a8.34,8.34,0,0,0,0-2.88,42.11,42.11,0,0,0-1.2-6.16,0.47,0.47,0,0,0-.46-0.31,4.3,4.3,0,0,1-1-.42,1.53,1.53,0,0,1,.28-2.57,2.06,2.06,0,0,1,1.89-.12,1.21,1.21,0,0,1,.62,1.13,1.8,1.8,0,0,1-.47,1.43,0.48,0.48,0,0,0-.06.69A51,51,0,0,0,314,45a13.55,13.55,0,0,0,1.61,1.55c0.51,0.42.75,0.37,1.21-.11A14.79,14.79,0,0,0,319,43.22c0.67-1.24,1.3-2.51,1.92-3.78a0.31,0.31,0,0,1,.48-0.2c0.22,0.09.45,0.12,0.37,0.48a14.48,14.48,0,0,0-.23,5.14C321.56,45.27,321.65,45.67,321.74,46.16ZM308,38.32a1.31,1.31,0,0,0,.18.23,1,1,0,0,0,1.35.07,1.36,1.36,0,0,0,.27-1.49,0.3,0.3,0,0,0-.13-0.11,1.34,1.34,0,0,0-1.31.07A1.05,1.05,0,0,0,308,38.32Zm-8.59,6.38a1,1,0,0,0-.72,1,0.9,0.9,0,0,0,.66.76,1,1,0,0,0,1-.28,1.29,1.29,0,0,0,.32-1.29A1.12,1.12,0,0,0,299.45,44.7Z" transform="translate(-163 -35.53)"/><path class="c" d="M313.92,52.17a1.87,1.87,0,0,1-.32.2,19.61,19.61,0,0,0-5.2,2.95,5.72,5.72,0,0,0-.74.71,0.43,0.43,0,0,0-.12.35,0.42,0.42,0,0,0,.35.15,9.9,9.9,0,0,0,1.46-.26A33.29,33.29,0,0,0,315,54c1.63-.82,3.26-1.66,4.84-2.57a27.48,27.48,0,0,0,2.64-1.82,2.34,2.34,0,0,0,.44-0.66,3.37,3.37,0,0,0-.68-0.38,5,5,0,0,0-2.36,0,28.76,28.76,0,0,0-7,2.38,28.38,28.38,0,0,0-5.62,3.35c-0.62.5-1.2,1-1.8,1.55a6.16,6.16,0,0,1-.89.65,1.64,1.64,0,0,1,.42-1,41.81,41.81,0,0,1,5.81-4.06,36.31,36.31,0,0,1,5.82-2.59,15.63,15.63,0,0,1,5-1,2.05,2.05,0,0,1,1.67.47,0.79,0.79,0,0,1,.07,1.24,20.6,20.6,0,0,1-2,1.69,36.1,36.1,0,0,1-5.47,3.05A52.76,52.76,0,0,1,310,56.81a13.67,13.67,0,0,1-2.11.47,0.92,0.92,0,0,1-1-.47,0.78,0.78,0,0,1,.14-1,13.24,13.24,0,0,1,1.45-1.32,19.27,19.27,0,0,1,4.71-2.56A0.52,0.52,0,0,1,313.92,52.17Z" transform="translate(-163 -35.53)"/><path class="c" d="M321.66,35.64a1.54,1.54,0,0,1,2,1,1.36,1.36,0,0,1-.73,1.88,1.57,1.57,0,0,1-2.21-.84A1.47,1.47,0,0,1,321.66,35.64Zm1,2.36a0.81,0.81,0,0,0,.49-1.1,1,1,0,0,0-1.26-.61,0.8,0.8,0,0,0-.48,1.1A1,1,0,0,0,322.62,38Z" transform="translate(-163 -35.53)"/><g class="d"><path class="e" d="M195.46,99.24c-0.85,2.59-7.51,5.82-9.22-1.75-4.21-7-8.49-16.5-12.34-24.65-0.73,11.13-1.83,21.61-1.83,21.61l-0.37-.19-1.53,3.43-0.92.52-0.73,2.26-0.73-.71-0.86,2.39a3.05,3.05,0,0,0-1.1.19,2.08,2.08,0,0,0-.73.78c-0.43-2.78.37-41.73-1.1-47.42a8.84,8.84,0,0,1,2.5-.58c3.36-1.62,8.06-1.29,9.53,3,3,9.06,7.45,19.8,10.14,26.2,0.79-12.23,2.5-27.88,3.6-32.15,0.18,0.19.24,1.49,0.43,1.68s0.37-.91.49-0.78,0.61,2.39.79,2.72a1.18,1.18,0,0,0,1.1.13,44.35,44.35,0,0,1,2.5,6.28c0.06,0.19.12,0.39,0.18,0.65C193.56,95.68,196.07,97.3,195.46,99.24Z" transform="translate(-163 -35.53)"/><path class="e" d="M201.08,57.06c2.57-1.23,5.92,1.81,6.17,3.11,0.12,0.45.06,1.42-.61,1.55a16.52,16.52,0,0,0-2.5,8.73c0,7.31,3.54,9.7,4.21,9.77,1.16,0.13,4.52-3.23,4.52-10.74,0-9.51-5.56-9.12-5.56-9.12l-0.24-.06s0.61-.19.49-0.45a1.48,1.48,0,0,1-.43-0.45,1.33,1.33,0,0,1,.73-0.91C211,57,220.2,59.78,220.2,71.62c0,9.58-4.64,17.66-11.73,17.53-8-.13-12.58-11.19-12.58-16.82C195.89,63.27,200.41,57.38,201.08,57.06ZM201,101.89c5.07-1.75,12-3.62,18.57-2.65l0.55,0.32s0.55-2.2.67-2.65A4.72,4.72,0,0,0,220,95l0.49-.13-0.79-1s0.37,0.13.31,0c-1.89-3.49-16.25-4.85-22.66-.91C195.52,97.17,196.74,103.38,201,101.89Z" transform="translate(-163 -35.53)"/><path class="e" d="M261.55,98c-0.18.45-.73,2.65-0.73,2.65l-0.55-.32c-7.88-2.52-30.6,1.23-35.67,3-4.28,1.42-5.5-4.72-3.73-8.93L221.6,94c0.06-11.77.31-32.61-.61-38.17a1,1,0,0,1,.85-1c2.75-.71,9.9-1.42,9.28,10.42-0.55,10.48-1.71,22.32-2.14,26.85,10.08-1.36,25.41-.52,31.7,2.85,0.12,0.06-.31,0-0.31,0l0.79,1-0.55.13S261.67,97.56,261.55,98Zm-29-14.17a116.39,116.39,0,0,0,7.21-28.53c4.95-.78,7.82-0.58,9.22.45,2.38-.06,4.64.78,5.07,3.75a149.42,149.42,0,0,0,7.21,29.37c-0.06,0-1-1-1-1l-0.43.71-0.67-.39-0.55-.39-0.67.58a10.51,10.51,0,0,0-.55-1.1c-0.18.52-1,2.46-1,2.46l-0.49-.32c-6.35-1.94-13.44-1-18.69-.06-2.81.52-4-1.81-3.91-4.59A1.12,1.12,0,0,0,232.6,83.84Zm17.84-3.69c-1.34-3.23-2.57-6.53-3.66-9.7-1.1,3-2.32,5.76-3.6,8.41A36.47,36.47,0,0,1,250.43,80.16Z" transform="translate(-163 -35.53)"/><path class="e" d="M277.68,100c-2.2,0-6.17.32-10-.71-0.24.45-.49,0.84-0.67,1.23s-0.73-.06-0.92-0.71c-0.24,1.36-.12,1.75-0.55,2s-0.67,1.16-.92,1.23a48.51,48.51,0,0,1-.24-5.11c-3.05-1.75-5.5-4.85-6.17-10.48a21.22,21.22,0,0,0,6,2.39c-0.06-3.3-.12-6.86-0.24-10.35-1,0-2,.06-3.12.13,0,0-3.24-2.07-1.22-7a4,4,0,0,1,1.53-.52l-0.06-.71s1-.26,2.63-0.71c-0.12-2.26-.24-4.4-0.37-6.28a2.82,2.82,0,0,1-1.4-.26c-1-.78-1.89-4.21-1-5.76l1.77-.32a2.26,2.26,0,0,0-.24-0.78s4.46-2,7.09-.13c5.62-.65,12.71-1,16.86.26,2,1.55,2.5,5.5,2.5,8.6,0,0-.55,3-5.31,5.69,6.6,1.68,12.09,5.63,12.52,13.85C296.68,95.81,288.06,100,277.68,100Zm-6.11-20.64c-0.18,5.24-.55,8.93-0.85,11.32,5.86,0.19,12.52-1,17.84-5.11C288.55,85.59,289.47,79.83,271.57,79.38Zm0.06-11.26c3.54-1.29,7.08-2.85,8.92-4.46-0.73-.45-4.83-0.13-9,0.26C271.57,65.41,271.63,66.76,271.63,68.12Z" transform="translate(-163 -35.53)"/></g><path class="b" d="M194.46,98.24c-0.85,2.59-7.51,5.82-9.22-1.75-4.21-7-8.49-16.5-12.34-24.65-0.73,11.13-1.83,21.61-1.83,21.61l-0.37-.19-1.53,3.43-0.92.52-0.73,2.26-0.73-.71-0.86,2.39a3.05,3.05,0,0,0-1.1.19,2.08,2.08,0,0,0-.73.78c-0.43-2.78.37-41.73-1.1-47.42a8.84,8.84,0,0,1,2.5-.58c3.36-1.62,8.06-1.29,9.53,3,3,9.06,7.45,19.8,10.14,26.2,0.79-12.23,2.5-27.88,3.6-32.15,0.18,0.19.24,1.49,0.43,1.68s0.37-.91.49-0.78,0.61,2.39.79,2.72a1.18,1.18,0,0,0,1.1.13,44.35,44.35,0,0,1,2.5,6.28c0.06,0.19.12,0.39,0.18,0.65C192.56,94.68,195.07,96.3,194.46,98.24Z" transform="translate(-163 -35.53)"/><path class="b" d="M200.08,56.06c2.57-1.23,5.92,1.81,6.17,3.11,0.12,0.45.06,1.42-.61,1.55a16.52,16.52,0,0,0-2.5,8.73c0,7.31,3.54,9.7,4.21,9.77,1.16,0.13,4.52-3.23,4.52-10.74,0-9.51-5.56-9.12-5.56-9.12l-0.24-.06s0.61-.19.49-0.45a1.48,1.48,0,0,1-.43-0.45,1.33,1.33,0,0,1,.73-0.91C210,56,219.2,58.78,219.2,70.62c0,9.58-4.64,17.66-11.73,17.53-8-.13-12.58-11.19-12.58-16.82C194.89,62.27,199.41,56.38,200.08,56.06ZM200,100.89c5.07-1.75,12-3.62,18.57-2.65l0.55,0.32s0.55-2.2.67-2.65A4.72,4.72,0,0,0,219,94l0.49-.13-0.79-1s0.37,0.13.31,0c-1.89-3.49-16.25-4.85-22.66-.91C194.52,96.17,195.74,102.38,200,100.89Z" transform="translate(-163 -35.53)"/><path class="b" d="M260.55,97c-0.18.45-.73,2.65-0.73,2.65l-0.55-.32c-7.88-2.52-30.6,1.23-35.67,3-4.28,1.42-5.5-4.72-3.73-8.93L220.6,93c0.06-11.77.31-32.61-.61-38.17a1,1,0,0,1,.85-1c2.75-.71,9.9-1.42,9.28,10.42-0.55,10.48-1.71,22.32-2.14,26.85,10.08-1.36,25.41-.52,31.7,2.85,0.12,0.06-.31,0-0.31,0l0.79,1-0.55.13S260.67,96.56,260.55,97Zm-29-14.17a116.39,116.39,0,0,0,7.21-28.53c4.95-.78,7.82-0.58,9.22.45,2.38-.06,4.64.78,5.07,3.75a149.42,149.42,0,0,0,7.21,29.37c-0.06,0-1-1-1-1l-0.43.71-0.67-.39-0.55-.39-0.67.58a10.51,10.51,0,0,0-.55-1.1c-0.18.52-1,2.46-1,2.46l-0.49-.32c-6.35-1.94-13.44-1-18.69-.06-2.81.52-4-1.81-3.91-4.59A1.12,1.12,0,0,0,231.6,82.84Zm17.84-3.69c-1.34-3.23-2.57-6.53-3.66-9.7-1.1,3-2.32,5.76-3.6,8.41A36.47,36.47,0,0,1,249.43,79.16Z" transform="translate(-163 -35.53)"/><path class="b" d="M276.68,99c-2.2,0-6.17.32-10-.71-0.24.45-.49,0.84-0.67,1.23s-0.73-.06-0.92-0.71c-0.24,1.36-.12,1.75-0.55,2s-0.67,1.16-.92,1.23a48.51,48.51,0,0,1-.24-5.11c-3.05-1.75-5.5-4.85-6.17-10.48a21.22,21.22,0,0,0,6,2.39c-0.06-3.3-.12-6.86-0.24-10.35-1,0-2,.06-3.12.13,0,0-3.24-2.07-1.22-7a4,4,0,0,1,1.53-.52l-0.06-.71s1-.26,2.63-0.71c-0.12-2.26-.24-4.4-0.37-6.28a2.82,2.82,0,0,1-1.4-.26c-1-.78-1.89-4.21-1-5.76l1.77-.32a2.26,2.26,0,0,0-.24-0.78s4.46-2,7.09-.13c5.62-.65,12.71-1,16.86.26,2,1.55,2.5,5.5,2.5,8.6,0,0-.55,3-5.31,5.69,6.6,1.68,12.09,5.63,12.52,13.85C295.68,94.81,287.06,99,276.68,99Zm-6.11-20.64c-0.18,5.24-.55,8.93-0.85,11.32,5.86,0.19,12.52-1,17.84-5.11C287.55,84.59,288.47,78.83,270.57,78.38Zm0.06-11.26c3.54-1.29,7.08-2.85,8.92-4.46-0.73-.45-4.83-0.13-9,0.26C270.57,64.41,270.63,65.76,270.63,67.12Z" transform="translate(-163 -35.53)"/></g></svg>