<svg xmlns="http://www.w3.org/2000/svg" viewBox="0 0 178.54 55.29"><defs><style>.a{fill:#fff;}</style></defs><title>about</title><path d="M105.38,214.42c-0.14.5-.79,3-0.79,3l-0.65-.36c-7.71-1.08-21.75.58-27.72,2.52-5,1.66-6.48-5.26-4.39-9.94,7.56-4.39,30.31-2.45,32.55,1.44,0.14,0.14-.36-0.07-0.36-0.07l1,1.22-0.65.14S105.52,213.91,105.38,214.42ZM71.53,199.22A120.86,120.86,0,0,0,80,167.47c5.9-.86,9.22-0.65,10.87.5,2.81-.07,5.47.86,6,4.18a159.73,159.73,0,0,0,8.5,32.69c-0.07,0-1.15-1.15-1.15-1.15l-0.5.79-0.79-.5-0.65-.36-0.79.65s-0.29-.65-0.65-1.3c-0.22.58-1.15,2.81-1.15,2.81L99,205.34c-7.42-2.09-15.84-1.15-22,0-3.31.58-4.68-2-4.61-5.11A1.27,1.27,0,0,0,71.53,199.22Zm21-4.1c-1.58-3.67-3-7.34-4.32-10.8A101.87,101.87,0,0,1,84,193.68,40.2,40.2,0,0,1,92.56,195.12Z" transform="translate(-69.9 -164.48)"/><path d="M123.52,215.93c-2.59,0-7.27.36-11.74-.79-0.29.5-.58,0.94-0.79,1.37s-0.86-.07-1.08-0.79c-0.29,1.51-.14,1.94-0.65,2.23s-0.79,1.3-1.08,1.37a50.92,50.92,0,0,1-.29-5.69c-3.6-1.94-6.48-5.4-7.27-11.67a25.9,25.9,0,0,0,7.06,2.66c-0.07-3.67-.14-7.63-0.29-11.52-1.15,0-2.38.07-3.67,0.14,0,0-3.82-2.3-1.44-7.78a4.82,4.82,0,0,1,1.8-.58L104,184.1s1.22-.29,3.1-0.79c-0.14-2.52-.29-4.9-0.43-7A3.5,3.5,0,0,1,105,176c-1.15-.86-2.23-4.68-1.22-6.41l2.09-.36a2.43,2.43,0,0,0-.29-0.86s5.26-2.23,8.35-.14c6.62-.72,15-1.15,19.87.29,2.38,1.73,3,6.12,3,9.58,0,0-.65,3.31-6.26,6.34,7.78,1.87,14.26,6.26,14.76,15.41C145.91,211.25,135.76,215.85,123.52,215.93Zm-7.2-23c-0.22,5.83-.65,9.94-1,12.6,6.91,0.22,14.76-1.15,21-5.69C136.34,199.87,137.42,193.46,116.32,193Zm0.07-12.53c4.18-1.44,8.35-3.17,10.51-5-0.86-.5-5.69-0.14-10.58.29C116.32,177.4,116.39,178.92,116.39,180.43Z" transform="translate(-69.9 -164.48)"/><path d="M191.71,217.8c-17.14-.79-20.74-17-21.39-26.43-2,6.84-6.62,11.67-12.75,11.52-9.43-.14-14.83-12.46-14.83-18.72,0-10.08,5.33-16.63,6.12-17,3-1.37,7,2,7.27,3.46v0.07a0.39,0.39,0,0,0,.36-0.43,1.68,1.68,0,0,1-.5-0.5,1.5,1.5,0,0,1,.86-1c3.24-1.44,12,.79,14.11,10.37,0.79-4.68,1.87-8.86,1.87-8.86s-0.58-1.87-.14-2.23c2-1.73,11.88-1.58,11.81,4.82,0,1.87-6.77,26.64,1.8,38.09,15.41-5.26,11.3-39.17,4.18-44l0.5-.65a7,7,0,0,1,1.22.07c0.07,0.07,5.11,3.6,6.55,7.42-1.37-4.68-5.54-7.56-5.4-7.56C212.3,170.42,212.66,218.81,191.71,217.8Zm-42.92-.72c6-1.94,15-4,22.75-2.88l0.65,0.36s0.65-2.45.79-3-1-2.09-1-2.09l0.58-.14-0.94-1.15s0.43,0.14.36,0c-2.23-3.89-20-5.47-27.58-1.08C142.31,211.82,143.75,218.74,148.79,217.08Zm14-36.08c0-10.58-6.55-10.15-6.55-10.15a1.21,1.21,0,0,1-.79,1.51,17.66,17.66,0,0,0-3,9.72c0,8.14,4.18,10.8,5,10.87C158.8,193.1,162.76,189.36,162.76,181Z" transform="translate(-69.9 -164.48)"/><path d="M248.44,168.19c-0.29,2.66-2.59,7.49-8.86,9.5-3.67.14-7.06,0.36-10.08,0.5-0.43,14.55-2.45,31.11-2.45,31.11l-1.58,3.53-0.58-.07-1.15,2.59s-0.36-.58-0.86.07a7.86,7.86,0,0,0-.65,1.51h-0.58l-0.94,1.44-0.65-1.8s-0.65,2.45-.94,2.52c-0.36-2.23-.29-25.2-0.94-40.32l-11.38.65c-6,.14-6.19-11.67-2.3-12.24a97.26,97.26,0,0,1,12.89-.65,2.26,2.26,0,0,1,.79-0.58c1.8-.5,5.11-1,7.7.79C233,167,240.74,167.61,248.44,168.19Z" transform="translate(-69.9 -164.48)"/><path class="a" d="M104.38,213.42c-0.14.5-.79,3-0.79,3l-0.65-.36c-7.71-1.08-21.75.58-27.72,2.52-5,1.66-6.48-5.26-4.39-9.94,7.56-4.39,30.31-2.45,32.55,1.44,0.14,0.14-.36-0.07-0.36-0.07l1,1.22-0.65.14S104.52,212.91,104.38,213.42ZM70.53,198.22A120.86,120.86,0,0,0,79,166.47c5.9-.86,9.22-0.65,10.87.5,2.81-.07,5.47.86,6,4.18a159.73,159.73,0,0,0,8.5,32.69c-0.07,0-1.15-1.15-1.15-1.15l-0.5.79-0.79-.5-0.65-.36-0.79.65s-0.29-.65-0.65-1.3c-0.22.58-1.15,2.81-1.15,2.81L98,204.34c-7.42-2.09-15.84-1.15-22,0-3.31.58-4.68-2-4.61-5.11A1.27,1.27,0,0,0,70.53,198.22Zm21-4.1c-1.58-3.67-3-7.34-4.32-10.8A101.87,101.87,0,0,1,83,192.68,40.2,40.2,0,0,1,91.56,194.12Z" transform="translate(-69.9 -164.48)"/><path class="a" d="M122.52,214.93c-2.59,0-7.27.36-11.74-.79-0.29.5-.58,0.94-0.79,1.37s-0.86-.07-1.08-0.79c-0.29,1.51-.14,1.94-0.65,2.23s-0.79,1.3-1.08,1.37a50.92,50.92,0,0,1-.29-5.69c-3.6-1.94-6.48-5.4-7.27-11.67a25.9,25.9,0,0,0,7.06,2.66c-0.07-3.67-.14-7.63-0.29-11.52-1.15,0-2.38.07-3.67,0.14,0,0-3.82-2.3-1.44-7.78a4.82,4.82,0,0,1,1.8-.58L103,183.1s1.22-.29,3.1-0.79c-0.14-2.52-.29-4.9-0.43-7A3.5,3.5,0,0,1,104,175c-1.15-.86-2.23-4.68-1.22-6.41l2.09-.36a2.43,2.43,0,0,0-.29-0.86s5.26-2.23,8.35-.14c6.62-.72,15-1.15,19.87.29,2.38,1.73,3,6.12,3,9.58,0,0-.65,3.31-6.26,6.34,7.78,1.87,14.26,6.26,14.76,15.41C144.91,210.25,134.76,214.85,122.52,214.93Zm-7.2-23c-0.22,5.83-.65,9.94-1,12.6,6.91,0.22,14.76-1.15,21-5.69C135.34,198.87,136.42,192.46,115.32,192Zm0.07-12.53c4.18-1.44,8.35-3.17,10.51-5-0.86-.5-5.69-0.14-10.58.29C115.32,176.4,115.39,177.92,115.39,179.43Z" transform="translate(-69.9 -164.48)"/><path class="a" d="M190.71,216.8c-17.14-.79-20.74-17-21.39-26.43-2,6.84-6.62,11.67-12.75,11.52-9.43-.14-14.83-12.46-14.83-18.72,0-10.08,5.33-16.63,6.12-17,3-1.37,7,2,7.27,3.46v0.07a0.39,0.39,0,0,0,.36-0.43,1.68,1.68,0,0,1-.5-0.5,1.5,1.5,0,0,1,.86-1c3.24-1.44,12,.79,14.11,10.37,0.79-4.68,1.87-8.86,1.87-8.86s-0.58-1.87-.14-2.23c2-1.73,11.88-1.58,11.81,4.82,0,1.87-6.77,26.64,1.8,38.09,15.41-5.26,11.3-39.17,4.18-44l0.5-.65a7,7,0,0,1,1.22.07c0.07,0.07,5.11,3.6,6.55,7.42-1.37-4.68-5.54-7.56-5.4-7.56C211.3,169.42,211.66,217.81,190.71,216.8Zm-42.92-.72c6-1.94,15-4,22.75-2.88l0.65,0.36s0.65-2.45.79-3-1-2.09-1-2.09l0.58-.14-0.94-1.15s0.43,0.14.36,0c-2.23-3.89-20-5.47-27.58-1.08C141.31,210.82,142.75,217.74,147.79,216.08Zm14-36.08c0-10.58-6.55-10.15-6.55-10.15a1.21,1.21,0,0,1-.79,1.51,17.66,17.66,0,0,0-3,9.72c0,8.14,4.18,10.8,5,10.87C157.8,192.1,161.76,188.36,161.76,180Z" transform="translate(-69.9 -164.48)"/><path class="a" d="M247.44,167.19c-0.29,2.66-2.59,7.49-8.86,9.5-3.67.14-7.06,0.36-10.08,0.5-0.43,14.55-2.45,31.11-2.45,31.11l-1.58,3.53-0.58-.07-1.15,2.59s-0.36-.58-0.86.07a7.86,7.86,0,0,0-.65,1.51h-0.58l-0.94,1.44-0.65-1.8s-0.65,2.45-.94,2.52c-0.36-2.23-.29-25.2-0.94-40.32l-11.38.65c-6,.14-6.19-11.67-2.3-12.24a97.26,97.26,0,0,1,12.89-.65,2.26,2.26,0,0,1,.79-0.58c1.8-.5,5.11-1,7.7.79C232,166,239.74,166.61,247.44,167.19Z" transform="translate(-69.9 -164.48)"/></svg>