<svg xmlns="http://www.w3.org/2000/svg" viewBox="0 0 236.53 58.14"><defs><style>.a{fill:#fff;}</style></defs><title>contact</title><path d="M85.23,298.2c-9.72,0-19.87-7.2-19.37-23,0.94-27.58,31.25-30.89,31-21.67-0.07,3.17-1.73,8.14-4,9.07-11.45-5.83-21,4.75-21.24,13.68-0.22,4.54,5.33,10.94,13.11,10.94,9.22,0,16.2-9.14,16.27-12.82,0.07-2.66,1.58.07,1.58,0.07C106,287.25,97.83,298.2,85.23,298.2Z" transform="translate(-64.84 -243.34)"/><path d="M106.25,249.81c3-1.37,7,2,7.27,3.46,0.14,0.5.07,1.58-.72,1.73a17.66,17.66,0,0,0-3,9.72c0,8.14,4.18,10.8,5,10.87,1.37,0.14,5.33-3.6,5.33-12,0-10.58-6.55-10.15-6.55-10.15l-0.29-.07s0.72-.22.58-0.5a1.69,1.69,0,0,1-.5-0.5,1.5,1.5,0,0,1,.86-1c3.67-1.66,14.55,1.44,14.55,14.62,0,10.66-5.47,19.66-13.83,19.51-9.43-.14-14.83-12.46-14.83-18.72C100.13,256.72,105.46,250.17,106.25,249.81Zm-0.07,49.9c6-1.94,14.19-4,21.89-3l0.65,0.36s0.65-2.45.79-3-1-2.09-1-2.09l0.58-.14-0.94-1.15s0.43,0.14.36,0c-2.23-3.89-19.15-5.4-26.71-1C99.7,294.45,101.14,301.37,106.18,299.71Z" transform="translate(-64.84 -243.34)"/><path d="M166,296.76c-1,2.88-8.86,6.48-10.87-1.94-5-7.78-10-18.36-14.55-27.43-0.86,12.39-2.16,24-2.16,24l-0.43-.22L136.2,295l-1.08.58-0.86,2.52-0.86-.79-1,2.66a3.8,3.8,0,0,0-1.3.22,2.4,2.4,0,0,0-.86.86c-0.5-3.1.43-46.44-1.3-52.78a10.89,10.89,0,0,1,3-.65c4-1.8,9.5-1.44,11.23,3.31,3.53,10.08,8.79,22,12,29.16,0.94-13.61,3-31,4.25-35.79,0.22,0.22.29,1.66,0.5,1.87s0.43-1,.58-0.86,0.72,2.66.94,3a1.46,1.46,0,0,0,1.3.14,47.76,47.76,0,0,1,3,7c0.07,0.22.14,0.43,0.22,0.72C163.78,292.8,166.73,294.6,166,296.76Z" transform="translate(-64.84 -243.34)"/><path d="M208.49,249.88c-0.29,2.66-2.59,7.49-8.86,9.5-3.67.14-7.06,0.36-10.08,0.5-0.43,14.55-2.45,31.11-2.45,31.11l-1.58,3.53-0.58-.07L183.8,297s-0.36-.58-0.86.07a7.86,7.86,0,0,0-.65,1.51h-0.58l-0.94,1.44-0.65-1.8s-0.65,2.45-.94,2.52c-0.36-2.23-.29-25.2-0.94-40.32l-11.38.65c-6,.14-6.19-11.67-2.3-12.24a97.26,97.26,0,0,1,12.89-.65,2.26,2.26,0,0,1,.79-0.58c1.8-.5,5.11-1,7.7.79C193.08,248.73,200.79,249.31,208.49,249.88Z" transform="translate(-64.84 -243.34)"/><path d="M230,296.11c-0.14.5-.79,3-0.79,3l-0.65-.36c-7.71-1.08-21.75.58-27.72,2.52-5,1.66-6.48-5.26-4.39-9.94,7.56-4.39,30.31-2.45,32.55,1.44,0.14,0.14-.36-0.07-0.36-0.07l1,1.22L229,294S230.17,295.61,230,296.11Zm-33.84-15.19a120.86,120.86,0,0,0,8.5-31.75c5.9-.86,9.22-0.65,10.87.5,2.81-.07,5.47.86,6,4.18a159.73,159.73,0,0,0,8.5,32.69c-0.07,0-1.15-1.15-1.15-1.15l-0.5.79-0.79-.5-0.65-.36-0.79.65s-0.29-.65-0.65-1.3c-0.22.58-1.15,2.81-1.15,2.81l-0.65-.43c-7.42-2.09-15.84-1.15-22,0-3.31.58-4.68-2-4.61-5.11A1.27,1.27,0,0,0,196.18,280.92Zm21-4.1c-1.58-3.67-3-7.34-4.32-10.8a101.87,101.87,0,0,1-4.25,9.36A40.21,40.21,0,0,1,217.2,276.81Z" transform="translate(-64.84 -243.34)"/><path d="M245.93,298.2c-9.72,0-19.87-7.2-19.37-23,0.94-27.58,31.25-30.89,31-21.67-0.07,3.17-1.73,8.14-4,9.07-11.45-5.83-21,4.75-21.24,13.68-0.22,4.54,5.33,10.94,13.1,10.94,9.22,0,16.2-9.14,16.27-12.82,0.07-2.66,1.58.07,1.58,0.07C266.74,287.25,258.53,298.2,245.93,298.2Z" transform="translate(-64.84 -243.34)"/><path d="M301.37,249.88c-0.29,2.66-2.59,7.49-8.86,9.5-3.67.14-7.06,0.36-10.08,0.5C282,274.44,280,291,280,291l-1.58,3.53-0.58-.07L276.68,297s-0.36-.58-0.86.07a7.86,7.86,0,0,0-.65,1.51h-0.58l-0.94,1.44-0.65-1.8s-0.65,2.45-.94,2.52c-0.36-2.23-.29-25.2-0.94-40.32l-11.38.65c-6,.14-6.19-11.67-2.3-12.24a97.26,97.26,0,0,1,12.89-.65,2.26,2.26,0,0,1,.79-0.58c1.8-.5,5.11-1,7.7.79C286,248.73,293.67,249.31,301.37,249.88Z" transform="translate(-64.84 -243.34)"/><path class="a" d="M84.23,297.2c-9.72,0-19.87-7.2-19.37-23,0.94-27.58,31.25-30.89,31-21.67-0.07,3.17-1.73,8.14-4,9.07-11.45-5.83-21,4.75-21.24,13.68-0.22,4.54,5.33,10.94,13.11,10.94,9.22,0,16.2-9.14,16.27-12.82,0.07-2.66,1.58.07,1.58,0.07C105,286.25,96.83,297.2,84.23,297.2Z" transform="translate(-64.84 -243.34)"/><path class="a" d="M105.25,248.81c3-1.37,7,2,7.27,3.46,0.14,0.5.07,1.58-.72,1.73a17.66,17.66,0,0,0-3,9.72c0,8.14,4.18,10.8,5,10.87,1.37,0.14,5.33-3.6,5.33-12,0-10.58-6.55-10.15-6.55-10.15l-0.29-.07s0.72-.22.58-0.5a1.69,1.69,0,0,1-.5-0.5,1.5,1.5,0,0,1,.86-1c3.67-1.66,14.55,1.44,14.55,14.62,0,10.66-5.47,19.66-13.83,19.51-9.43-.14-14.83-12.46-14.83-18.72C99.13,255.72,104.46,249.17,105.25,248.81Zm-0.07,49.9c6-1.94,14.19-4,21.89-3l0.65,0.36s0.65-2.45.79-3-1-2.09-1-2.09l0.58-.14-0.94-1.15s0.43,0.14.36,0c-2.23-3.89-19.15-5.4-26.71-1C98.7,293.45,100.14,300.37,105.18,298.71Z" transform="translate(-64.84 -243.34)"/><path class="a" d="M165,295.76c-1,2.88-8.86,6.48-10.87-1.94-5-7.78-10-18.36-14.55-27.43-0.86,12.39-2.16,24-2.16,24l-0.43-.22L135.2,294l-1.08.58-0.86,2.52-0.86-.79-1,2.66a3.8,3.8,0,0,0-1.3.22,2.4,2.4,0,0,0-.86.86c-0.5-3.1.43-46.44-1.3-52.78a10.89,10.89,0,0,1,3-.65c4-1.8,9.5-1.44,11.23,3.31,3.53,10.08,8.79,22,12,29.16,0.94-13.61,3-31,4.25-35.79,0.22,0.22.29,1.66,0.5,1.87s0.43-1,.58-0.86,0.72,2.66.94,3a1.46,1.46,0,0,0,1.3.14,47.76,47.76,0,0,1,3,7c0.07,0.22.14,0.43,0.22,0.72C162.78,291.8,165.73,293.6,165,295.76Z" transform="translate(-64.84 -243.34)"/><path class="a" d="M207.49,248.88c-0.29,2.66-2.59,7.49-8.86,9.5-3.67.14-7.06,0.36-10.08,0.5-0.43,14.55-2.45,31.11-2.45,31.11l-1.58,3.53-0.58-.07L182.8,296s-0.36-.58-0.86.07a7.86,7.86,0,0,0-.65,1.51h-0.58l-0.94,1.44-0.65-1.8s-0.65,2.45-.94,2.52c-0.36-2.23-.29-25.2-0.94-40.32l-11.38.65c-6,.14-6.19-11.67-2.3-12.24a97.26,97.26,0,0,1,12.89-.65,2.26,2.26,0,0,1,.79-0.58c1.8-.5,5.11-1,7.7.79C192.08,247.73,199.79,248.31,207.49,248.88Z" transform="translate(-64.84 -243.34)"/><path class="a" d="M229,295.11c-0.14.5-.79,3-0.79,3l-0.65-.36c-7.71-1.08-21.75.58-27.72,2.52-5,1.66-6.48-5.26-4.39-9.94,7.56-4.39,30.31-2.45,32.55,1.44,0.14,0.14-.36-0.07-0.36-0.07l1,1.22L228,293S229.17,294.61,229,295.11Zm-33.84-15.19a120.86,120.86,0,0,0,8.5-31.75c5.9-.86,9.22-0.65,10.87.5,2.81-.07,5.47.86,6,4.18a159.73,159.73,0,0,0,8.5,32.69c-0.07,0-1.15-1.15-1.15-1.15l-0.5.79-0.79-.5-0.65-.36-0.79.65s-0.29-.65-0.65-1.3c-0.22.58-1.15,2.81-1.15,2.81l-0.65-.43c-7.42-2.09-15.84-1.15-22,0-3.31.58-4.68-2-4.61-5.11A1.27,1.27,0,0,0,195.18,279.92Zm21-4.1c-1.58-3.67-3-7.34-4.32-10.8a101.87,101.87,0,0,1-4.25,9.36A40.21,40.21,0,0,1,216.2,275.81Z" transform="translate(-64.84 -243.34)"/><path class="a" d="M244.93,297.2c-9.72,0-19.87-7.2-19.37-23,0.94-27.58,31.25-30.89,31-21.67-0.07,3.17-1.73,8.14-4,9.07-11.45-5.83-21,4.75-21.24,13.68-0.22,4.54,5.33,10.94,13.1,10.94,9.22,0,16.2-9.14,16.27-12.82,0.07-2.66,1.58.07,1.58,0.07C265.74,286.25,257.53,297.2,244.93,297.2Z" transform="translate(-64.84 -243.34)"/><path class="a" d="M300.37,248.88c-0.29,2.66-2.59,7.49-8.86,9.5-3.67.14-7.06,0.36-10.08,0.5C281,273.44,279,290,279,290l-1.58,3.53-0.58-.07L275.68,296s-0.36-.58-0.86.07a7.86,7.86,0,0,0-.65,1.51h-0.58l-0.94,1.44-0.65-1.8s-0.65,2.45-.94,2.52c-0.36-2.23-.29-25.2-0.94-40.32l-11.38.65c-6,.14-6.19-11.67-2.3-12.24a97.26,97.26,0,0,1,12.89-.65,2.26,2.26,0,0,1,.79-0.58c1.8-.5,5.11-1,7.7.79C285,247.73,292.67,248.31,300.37,248.88Z" transform="translate(-64.84 -243.34)"/></svg>