<svg xmlns="http://www.w3.org/2000/svg" viewBox="0 0 269.22 55.77"><defs><style>.a{fill:#fff;}</style></defs><title>facebook</title><path d="M93.45,503.25c-0.36,0-9,.58-16.2,1l-0.22,6c5.9-.65,12.6-0.94,16.06-0.94a5.5,5.5,0,0,1-.58,1.51l-0.22,1.73-2.23,1.22,0.86,0.07-2.3,1.51,0.07,0.72-2.59.65-0.5.86s-2.52,1.22-3.6,1.66c-0.29,0-2.74.65-5.47,1.37-0.5,8.28-1,14.69-1,14.69l-0.5-.58-0.29,1.8-0.86.22-0.94,2.74-2.09,1.3-1.22,1.73L69,542.2l-0.58,1.87a2.45,2.45,0,0,1-.86.86c-0.43-2.23-.65-25.49-1.51-40.4l-0.86-.22,0.5-.86L64.29,503l-1.94-.43,0.65-.72-1.08-.94,1.15-1-2.81-.07a3.69,3.69,0,0,1-.58-1.3c0.58-.07,2.74-0.43,5.83-0.94a33,33,0,0,0-.58-4.1,1.28,1.28,0,0,1,1-1.15c2.38-.72,7.85-1.73,10.23,3.6,8.86-1.44,18.43-3.1,20.81-3.89C98.5,493.38,102,503.25,93.45,503.25Z" transform="translate(-58.68 -490.79)"/><path d="M125.42,541.19c-0.14.5-.79,3-0.79,3l-0.65-.36c-7.71-1.08-21.75.58-27.72,2.52-5,1.66-6.48-5.26-4.39-9.94,7.56-4.39,30.31-2.45,32.55,1.44,0.14,0.14-.36-0.07-0.36-0.07l1,1.22-0.65.14S125.57,540.69,125.42,541.19ZM91.58,526a120.86,120.86,0,0,0,8.5-31.75c5.9-.86,9.22-0.65,10.87.5,2.81-.07,5.47.86,6,4.18a159.72,159.72,0,0,0,8.5,32.69c-0.07,0-1.15-1.15-1.15-1.15l-0.5.79-0.79-.5-0.65-.36-0.79.65s-0.29-.65-0.65-1.3c-0.22.58-1.15,2.81-1.15,2.81l-0.65-.43c-7.42-2.09-15.84-1.15-22,0-3.31.58-4.68-2-4.61-5.11A1.27,1.27,0,0,0,91.58,526Zm21-4.1c-1.58-3.67-3-7.34-4.32-10.8a101.86,101.86,0,0,1-4.25,9.36A40.23,40.23,0,0,1,112.61,521.9Z" transform="translate(-58.68 -490.79)"/><path d="M141.33,543.28c-9.72,0-19.87-7.2-19.37-23,0.94-27.58,31.25-30.89,31-21.67-0.07,3.17-1.73,8.14-4,9.07-11.45-5.83-21,4.75-21.24,13.68-0.22,4.54,5.33,10.94,13.1,10.94,9.22,0,16.2-9.14,16.27-12.82,0.07-2.66,1.58.07,1.58,0.07C162.14,532.34,153.94,543.28,141.33,543.28Z" transform="translate(-58.68 -490.79)"/><path d="M199.37,526.07c0,0.5-1.37,1.8-1.37,1.8l-0.36.86L194.9,530l2,0.22a14.65,14.65,0,0,0-3.17,1.73c-1.22.94-1.58,1.94-2.52,2.3a136.72,136.72,0,0,0-30.46,10.44c-2.23,1.08-6.34-8.35-2.74-10.23a7.85,7.85,0,0,1,1.51-.65c0-12.31.36-34-.94-38.6a13.5,13.5,0,0,1,5.69-.86c7.63-1,24.12-.65,28.8-0.58a9,9,0,0,0-.07,1.87,7.75,7.75,0,0,0-2.23,1.58c-0.22.22-1.66,1.22-1.66,1.22l1.44,0.07-2.38,1.22-0.07.86s-2.88,1.22-3.31,1.37-7.7,1.22-14,2.23c0,0.58-.07,1.15-0.07,1.73-0.07,1.87-.22,3.6-0.36,5.33a153.17,153.17,0,0,1,18.07-1.15,5.51,5.51,0,0,1-.58,1.51l-0.29,1.73-2.23,1.22,0.94,0.07-2.38,1.51,0.07,0.72-2.59.65-0.5.86s-2.59,1.22-3.6,1.58c-0.43,0-4.39,1.15-8,2-0.36,3.82-.79,6.77-1.08,8.57C177.91,527.44,191.09,524.49,199.37,526.07Z" transform="translate(-58.68 -490.79)"/><path d="M212.4,542.71c-2.59,0-7.27.36-11.74-.79-0.29.5-.58,0.94-0.79,1.37s-0.86-.07-1.08-0.79c-0.29,1.51-.14,1.94-0.65,2.23s-0.79,1.3-1.08,1.37a50.94,50.94,0,0,1-.29-5.69c-3.6-1.94-6.48-5.4-7.27-11.67a25.9,25.9,0,0,0,7.06,2.66c-0.07-3.67-.14-7.63-0.29-11.52-1.15,0-2.38.07-3.67,0.14,0,0-3.82-2.3-1.44-7.78a4.81,4.81,0,0,1,1.8-.58l-0.07-.79s1.22-.29,3.1-0.79c-0.14-2.52-.29-4.9-0.43-7a3.49,3.49,0,0,1-1.66-.29c-1.15-.86-2.23-4.68-1.22-6.41l2.09-.36a2.44,2.44,0,0,0-.29-0.86s5.26-2.23,8.35-.14c6.62-.72,15-1.15,19.87.29,2.38,1.73,3,6.12,3,9.58,0,0-.65,3.31-6.26,6.34,7.78,1.87,14.26,6.26,14.76,15.41C234.79,538,224.64,542.63,212.4,542.71Zm-7.2-23c-0.22,5.83-.65,9.94-1,12.6,6.91,0.22,14.76-1.15,21-5.69C225.22,526.65,226.3,520.24,205.2,519.74Zm0.07-12.53c4.18-1.44,8.35-3.17,10.51-5-0.86-.5-5.69-0.14-10.59.29C205.2,504.18,205.27,505.69,205.27,507.21Z" transform="translate(-58.68 -490.79)"/><path d="M240,494c3-1.37,7,2,7.27,3.46,0.14,0.5.07,1.58-.72,1.73a17.66,17.66,0,0,0-3,9.72c0,8.14,4.18,10.8,5,10.87,1.37,0.14,5.33-3.6,5.33-12,0-10.58-6.55-10.15-6.55-10.15l-0.29-.07s0.72-.22.58-0.5a1.68,1.68,0,0,1-.5-0.5,1.5,1.5,0,0,1,.86-1c3.67-1.66,14.54,1.44,14.54,14.62,0,10.66-5.47,19.66-13.83,19.51-9.43-.14-14.83-12.46-14.83-18.72C233.92,500.87,239.25,494.32,240,494Zm-0.65,49.9c6-1.94,29.81-6,49.68-3l0.65,0.36s0.65-2.45.79-3a3.22,3.22,0,0,0-.72-1.66c-0.14-.22-18.79-3.89-31.32-2.74,12-1.66,29.09,1.66,29.09,1.66l-0.94-1.15s0.43,0.14.36,0c-2.23-3.89-44.43-4.82-52-.43C232.92,538.6,234.36,545.51,239.4,543.86ZM269.14,494c3-1.37,7,2,7.27,3.46,0.14,0.5.07,1.58-.72,1.73a17.66,17.66,0,0,0-3,9.72c0,8.14,4.18,10.8,5,10.87,1.37,0.14,5.33-3.6,5.33-12,0-10.58-6.55-10.15-6.55-10.15l-0.29-.07s0.72-.22.58-0.5a1.68,1.68,0,0,1-.5-0.5,1.5,1.5,0,0,1,.86-1c3.67-1.66,14.55,1.44,14.55,14.62,0,10.66-5.47,19.66-13.83,19.51C268.42,529.53,263,517.21,263,511,263,500.87,268.34,494.32,269.14,494Z" transform="translate(-58.68 -490.79)"/><path d="M316.44,517.29c5.62,5.62,10.87,18.72,8.93,25.92a23.54,23.54,0,0,0-2.59-11.59s2.81,9.29,1.8,12.46a3.4,3.4,0,0,0-.36-0.43s-0.79,1.51-1.3,1.58a15.28,15.28,0,0,0-2,.36l-0.65-.72c-1.66-6.48-7.85-17.07-11.59-21.46a43.5,43.5,0,0,1-5.11,3c-0.36,6-.72,10.23-0.72,10.23s-0.5.79-1.22,2.09a19.23,19.23,0,0,0-1.51,3,3.64,3.64,0,0,0-1.44.86c-0.14.22-.65,1.44-0.65,1.44h-0.58l-0.86,1.44a1.69,1.69,0,0,0-.72-0.36c-0.36.22-.58,1-0.86,1-0.58-2.88-.86-42.12-2.66-50.26a1.25,1.25,0,0,1,1.08-1.08c3-.86,11.45-1.87,11.09,10.8-0.07,3.46-.22,6.91-0.36,10.3a40.87,40.87,0,0,0,13.25-21c2.16-3.82,11.52,1.94,10.44,6.34C326.59,506.41,321.84,512.39,316.44,517.29Z" transform="translate(-58.68 -490.79)"/><path class="a" d="M92.45,502.25c-0.36,0-9,.58-16.2,1l-0.22,6c5.9-.65,12.6-0.94,16.06-0.94a5.5,5.5,0,0,1-.58,1.51l-0.22,1.73-2.23,1.22,0.86,0.07-2.3,1.51,0.07,0.72-2.59.65-0.5.86s-2.52,1.22-3.6,1.66c-0.29,0-2.74.65-5.47,1.37-0.5,8.28-1,14.69-1,14.69l-0.5-.58-0.29,1.8-0.86.22-0.94,2.74-2.09,1.3-1.22,1.73L68,541.2l-0.58,1.87a2.45,2.45,0,0,1-.86.86c-0.43-2.23-.65-25.49-1.51-40.4l-0.86-.22,0.5-.86L63.29,502l-1.94-.43,0.65-.72-1.08-.94,1.15-1-2.81-.07a3.69,3.69,0,0,1-.58-1.3c0.58-.07,2.74-0.43,5.83-0.94a33,33,0,0,0-.58-4.1,1.28,1.28,0,0,1,1-1.15c2.38-.72,7.85-1.73,10.23,3.6,8.86-1.44,18.43-3.1,20.81-3.89C97.5,492.38,101,502.25,92.45,502.25Z" transform="translate(-58.68 -490.79)"/><path class="a" d="M124.42,540.19c-0.14.5-.79,3-0.79,3l-0.65-.36c-7.71-1.08-21.75.58-27.72,2.52-5,1.66-6.48-5.26-4.39-9.94,7.56-4.39,30.31-2.45,32.55,1.44,0.14,0.14-.36-0.07-0.36-0.07l1,1.22-0.65.14S124.57,539.69,124.42,540.19ZM90.58,525a120.86,120.86,0,0,0,8.5-31.75c5.9-.86,9.22-0.65,10.87.5,2.81-.07,5.47.86,6,4.18a159.72,159.72,0,0,0,8.5,32.69c-0.07,0-1.15-1.15-1.15-1.15l-0.5.79-0.79-.5-0.65-.36-0.79.65s-0.29-.65-0.65-1.3c-0.22.58-1.15,2.81-1.15,2.81l-0.65-.43c-7.42-2.09-15.84-1.15-22,0-3.31.58-4.68-2-4.61-5.11A1.27,1.27,0,0,0,90.58,525Zm21-4.1c-1.58-3.67-3-7.34-4.32-10.8a101.86,101.86,0,0,1-4.25,9.36A40.23,40.23,0,0,1,111.61,520.9Z" transform="translate(-58.68 -490.79)"/><path class="a" d="M140.33,542.28c-9.72,0-19.87-7.2-19.37-23,0.94-27.58,31.25-30.89,31-21.67-0.07,3.17-1.73,8.14-4,9.07-11.45-5.83-21,4.75-21.24,13.68-0.22,4.54,5.33,10.94,13.1,10.94,9.22,0,16.2-9.14,16.27-12.82,0.07-2.66,1.58.07,1.58,0.07C161.14,531.34,152.94,542.28,140.33,542.28Z" transform="translate(-58.68 -490.79)"/><path class="a" d="M198.37,525.07c0,0.5-1.37,1.8-1.37,1.8l-0.36.86L193.9,529l2,0.22a14.65,14.65,0,0,0-3.17,1.73c-1.22.94-1.58,1.94-2.52,2.3a136.72,136.72,0,0,0-30.46,10.44c-2.23,1.08-6.34-8.35-2.74-10.23a7.85,7.85,0,0,1,1.51-.65c0-12.31.36-34-.94-38.6a13.5,13.5,0,0,1,5.69-.86c7.63-1,24.12-.65,28.8-0.58a9,9,0,0,0-.07,1.87,7.75,7.75,0,0,0-2.23,1.58c-0.22.22-1.66,1.22-1.66,1.22l1.44,0.07-2.38,1.22-0.07.86s-2.88,1.22-3.31,1.37-7.7,1.22-14,2.23c0,0.58-.07,1.15-0.07,1.73-0.07,1.87-.22,3.6-0.36,5.33a153.17,153.17,0,0,1,18.07-1.15,5.51,5.51,0,0,1-.58,1.51l-0.29,1.73-2.23,1.22,0.94,0.07-2.38,1.51,0.07,0.72-2.59.65-0.5.86s-2.59,1.22-3.6,1.58c-0.43,0-4.39,1.15-8,2-0.36,3.82-.79,6.77-1.08,8.57C176.91,526.44,190.09,523.49,198.37,525.07Z" transform="translate(-58.68 -490.79)"/><path class="a" d="M211.4,541.71c-2.59,0-7.27.36-11.74-.79-0.29.5-.58,0.94-0.79,1.37s-0.86-.07-1.08-0.79c-0.29,1.51-.14,1.94-0.65,2.23s-0.79,1.3-1.08,1.37a50.94,50.94,0,0,1-.29-5.69c-3.6-1.94-6.48-5.4-7.27-11.67a25.9,25.9,0,0,0,7.06,2.66c-0.07-3.67-.14-7.63-0.29-11.52-1.15,0-2.38.07-3.67,0.14,0,0-3.82-2.3-1.44-7.78a4.81,4.81,0,0,1,1.8-.58l-0.07-.79s1.22-.29,3.1-0.79c-0.14-2.52-.29-4.9-0.43-7a3.49,3.49,0,0,1-1.66-.29c-1.15-.86-2.23-4.68-1.22-6.41l2.09-.36a2.44,2.44,0,0,0-.29-0.86s5.26-2.23,8.35-.14c6.62-.72,15-1.15,19.87.29,2.38,1.73,3,6.12,3,9.58,0,0-.65,3.31-6.26,6.34,7.78,1.87,14.26,6.26,14.76,15.41C233.79,537,223.64,541.63,211.4,541.71Zm-7.2-23c-0.22,5.83-.65,9.94-1,12.6,6.91,0.22,14.76-1.15,21-5.69C224.22,525.65,225.3,519.24,204.2,518.74Zm0.07-12.53c4.18-1.44,8.35-3.17,10.51-5-0.86-.5-5.69-0.14-10.59.29C204.2,503.18,204.27,504.69,204.27,506.21Z" transform="translate(-58.68 -490.79)"/><path class="a" d="M239,493c3-1.37,7,2,7.27,3.46,0.14,0.5.07,1.58-.72,1.73a17.66,17.66,0,0,0-3,9.72c0,8.14,4.18,10.8,5,10.87,1.37,0.14,5.33-3.6,5.33-12,0-10.58-6.55-10.15-6.55-10.15l-0.29-.07s0.72-.22.58-0.5a1.68,1.68,0,0,1-.5-0.5,1.5,1.5,0,0,1,.86-1c3.67-1.66,14.54,1.44,14.54,14.62,0,10.66-5.47,19.66-13.83,19.51-9.43-.14-14.83-12.46-14.83-18.72C232.92,499.87,238.25,493.32,239,493Zm-0.65,49.9c6-1.94,29.81-6,49.68-3l0.65,0.36s0.65-2.45.79-3a3.22,3.22,0,0,0-.72-1.66c-0.14-.22-18.79-3.89-31.32-2.74,12-1.66,29.09,1.66,29.09,1.66l-0.94-1.15s0.43,0.14.36,0c-2.23-3.89-44.43-4.82-52-.43C231.92,537.6,233.36,544.51,238.4,542.86ZM268.14,493c3-1.37,7,2,7.27,3.46,0.14,0.5.07,1.58-.72,1.73a17.66,17.66,0,0,0-3,9.72c0,8.14,4.18,10.8,5,10.87,1.37,0.14,5.33-3.6,5.33-12,0-10.58-6.55-10.15-6.55-10.15l-0.29-.07s0.72-.22.58-0.5a1.68,1.68,0,0,1-.5-0.5,1.5,1.5,0,0,1,.86-1c3.67-1.66,14.55,1.44,14.55,14.62,0,10.66-5.47,19.66-13.83,19.51C267.42,528.53,262,516.21,262,510,262,499.87,267.34,493.32,268.14,493Z" transform="translate(-58.68 -490.79)"/><path class="a" d="M315.44,516.29c5.62,5.62,10.87,18.72,8.93,25.92a23.54,23.54,0,0,0-2.59-11.59s2.81,9.29,1.8,12.46a3.4,3.4,0,0,0-.36-0.43s-0.79,1.51-1.3,1.58a15.28,15.28,0,0,0-2,.36l-0.65-.72c-1.66-6.48-7.85-17.07-11.59-21.46a43.5,43.5,0,0,1-5.11,3c-0.36,6-.72,10.23-0.72,10.23s-0.5.79-1.22,2.09a19.23,19.23,0,0,0-1.51,3,3.64,3.64,0,0,0-1.44.86c-0.14.22-.65,1.44-0.65,1.44h-0.58l-0.86,1.44a1.69,1.69,0,0,0-.72-0.36c-0.36.22-.58,1-0.86,1-0.58-2.88-.86-42.12-2.66-50.26a1.25,1.25,0,0,1,1.08-1.08c3-.86,11.45-1.87,11.09,10.8-0.07,3.46-.22,6.91-0.36,10.3a40.87,40.87,0,0,0,13.25-21c2.16-3.82,11.52,1.94,10.44,6.34C325.59,505.41,320.84,511.39,315.44,516.29Z" transform="translate(-58.68 -490.79)"/></svg>