<svg xmlns="http://www.w3.org/2000/svg" viewBox="0 0 154.8 54.17"><defs><style>.a{fill:#fff;}</style></defs><title>home</title><path d="M107.69,98.59a241.3,241.3,0,0,0-1.8,29.16l-0.29.72-0.43-.07-0.43,2.23-0.5-.07-0.5-.14-1,4.39-0.79-.65-0.36.65-0.86.07a2.26,2.26,0,0,1-.5,1.15,1.22,1.22,0,0,1-.5.07c-1.58-4-2.59-9.65-3.17-15.84a2.74,2.74,0,0,1-.94.43c-2.88,0-8.5,1.08-12.6,1.8-0.22,3.24-.36,5.26-0.36,5.26l-0.5-.65L81.77,129l-0.86.22L80,131.93l-2.09,1.3L76.65,135,76,134.52l-0.58,1.94a3.74,3.74,0,0,1-.94.86c-0.5-3-.58-43.06-2.3-51.41a1.2,1.2,0,0,1,1-1.15c3.17-1,11.67-2.38,11.23,10.87-0.14,5.54-.43,11.45-0.72,16.71A58.79,58.79,0,0,1,96,112.2c-0.5-11.38.14-22.68,0.79-26.79,3.1-1.37,10.37-1.37,11.52,2C109,89.44,108.48,92.47,107.69,98.59Z" transform="translate(-71.18 -83.16)"/><path d="M114.45,86.42c3-1.37,7,2,7.27,3.46,0.14,0.5.07,1.58-.72,1.73a17.66,17.66,0,0,0-3,9.72c0,8.14,4.18,10.8,5,10.87,1.37,0.14,5.33-3.6,5.33-12,0-10.58-6.55-10.15-6.55-10.15L121.51,90s0.72-.22.58-0.5a1.69,1.69,0,0,1-.5-0.5,1.5,1.5,0,0,1,.86-1c3.67-1.66,14.55,1.44,14.55,14.62,0,10.66-5.47,19.66-13.83,19.51-9.43-.14-14.83-12.46-14.83-18.72C108.33,93.33,113.66,86.78,114.45,86.42Zm-0.07,49.9c6-1.94,14.19-4,21.89-3l0.65,0.36s0.65-2.45.79-3-1-2.09-1-2.09l0.58-.14-0.94-1.15s0.43,0.14.36,0c-2.23-3.89-19.15-5.4-26.71-1C107.9,131.06,109.34,138,114.38,136.32Z" transform="translate(-71.18 -83.16)"/><path d="M185.52,127.39L184.8,130l-0.72.14-0.29,1.8-0.58,2.16-0.94.14-0.14,1.66A2.21,2.21,0,0,0,181,136c-0.22.07-.14,0.72-0.36,0.79-3.89-7.06-6.55-19.73-8.06-30.89-2.45,7.7-6.12,18.07-8.42,24.27-0.5,1.51-7.27,4-7.92-2.52-1.73-4-4.54-11.09-7.56-18.29-1.15,10.8-2.52,19-2.52,19l-0.94-.14L142.46,133l-1.87.58L140,134.74s-1.15-.94-1.8-0.65-1,1.87-1.44,1.87c0.86-8.86,2.38-38,1.37-48.75A0.38,0.38,0,0,0,138,87a0.25,0.25,0,0,0,.14-0.07,14.37,14.37,0,0,0-.29-2.16,11.52,11.52,0,0,1,5.83-.29c3.89-.79,8.14-0.14,9.15,3.17,2.88,9.94,5.47,19.23,7,25.06,4-10.73,9.07-21.39,11-25.27a13.31,13.31,0,0,1-.07-1.58c2.88-1.8,10.08-2.81,11.74.5,0.94,1.94.65,4.68,0.72,11A254.77,254.77,0,0,0,185.52,127.39Z" transform="translate(-71.18 -83.16)"/><path d="M226,117.6c0,0.5-1.37,1.8-1.37,1.8l-0.36.86-2.74,1.3,2,0.22a14.66,14.66,0,0,0-3.17,1.73c-1.22.94-1.58,1.94-2.52,2.3a136.71,136.71,0,0,0-30.46,10.44c-2.23,1.08-6.34-8.35-2.74-10.23a7.88,7.88,0,0,1,1.51-.65c0-12.31.36-34-.94-38.6a13.5,13.5,0,0,1,5.69-.86c7.63-1,24.12-.65,28.8-0.58a9,9,0,0,0-.07,1.87,7.76,7.76,0,0,0-2.23,1.58C217.2,89,215.76,90,215.76,90l1.44,0.07-2.38,1.22-0.07.86s-2.88,1.22-3.31,1.37-7.7,1.22-14,2.23c0,0.58-.07,1.15-0.07,1.73-0.07,1.87-.22,3.6-0.36,5.33A153.15,153.15,0,0,1,215,101.69a5.51,5.51,0,0,1-.58,1.51l-0.29,1.73-2.23,1.22,0.94,0.07-2.38,1.51,0.07,0.72-2.59.65-0.5.86s-2.59,1.22-3.6,1.58c-0.43,0-4.39,1.15-8,2-0.36,3.82-.79,6.77-1.08,8.57C204.52,119,217.7,116,226,117.6Z" transform="translate(-71.18 -83.16)"/><path class="a" d="M106.69,97.59a241.3,241.3,0,0,0-1.8,29.16l-0.29.72-0.43-.07-0.43,2.23-0.5-.07-0.5-.14-1,4.39-0.79-.65-0.36.65-0.86.07a2.26,2.26,0,0,1-.5,1.15,1.22,1.22,0,0,1-.5.07c-1.58-4-2.59-9.65-3.17-15.84a2.74,2.74,0,0,1-.94.43c-2.88,0-8.5,1.08-12.6,1.8-0.22,3.24-.36,5.26-0.36,5.26l-0.5-.65L80.77,128l-0.86.22L79,130.93l-2.09,1.3L75.65,134,75,133.52l-0.58,1.94a3.74,3.74,0,0,1-.94.86c-0.5-3-.58-43.06-2.3-51.41a1.2,1.2,0,0,1,1-1.15c3.17-1,11.67-2.38,11.23,10.87-0.14,5.54-.43,11.45-0.72,16.71A58.79,58.79,0,0,1,95,111.2c-0.5-11.38.14-22.68,0.79-26.79,3.1-1.37,10.37-1.37,11.52,2C108,88.44,107.48,91.47,106.69,97.59Z" transform="translate(-71.18 -83.16)"/><path class="a" d="M113.45,85.42c3-1.37,7,2,7.27,3.46,0.14,0.5.07,1.58-.72,1.73a17.66,17.66,0,0,0-3,9.72c0,8.14,4.18,10.8,5,10.87,1.37,0.14,5.33-3.6,5.33-12,0-10.58-6.55-10.15-6.55-10.15L120.51,89s0.72-.22.58-0.5a1.69,1.69,0,0,1-.5-0.5,1.5,1.5,0,0,1,.86-1c3.67-1.66,14.55,1.44,14.55,14.62,0,10.66-5.47,19.66-13.83,19.51-9.43-.14-14.83-12.46-14.83-18.72C107.33,92.33,112.66,85.78,113.45,85.42Zm-0.07,49.9c6-1.94,14.19-4,21.89-3l0.65,0.36s0.65-2.45.79-3-1-2.09-1-2.09l0.58-.14-0.94-1.15s0.43,0.14.36,0c-2.23-3.89-19.15-5.4-26.71-1C106.9,130.06,108.34,137,113.38,135.32Z" transform="translate(-71.18 -83.16)"/><path class="a" d="M184.52,126.39L183.8,129l-0.72.14-0.29,1.8-0.58,2.16-0.94.14-0.14,1.66A2.21,2.21,0,0,0,180,135c-0.22.07-.14,0.72-0.36,0.79-3.89-7.06-6.55-19.73-8.06-30.89-2.45,7.7-6.12,18.07-8.42,24.27-0.5,1.51-7.27,4-7.92-2.52-1.73-4-4.54-11.09-7.56-18.29-1.15,10.8-2.52,19-2.52,19l-0.94-.14L141.46,132l-1.87.58L139,133.74s-1.15-.94-1.8-0.65-1,1.87-1.44,1.87c0.86-8.86,2.38-38,1.37-48.75A0.38,0.38,0,0,0,137,86a0.25,0.25,0,0,0,.14-0.07,14.37,14.37,0,0,0-.29-2.16,11.52,11.52,0,0,1,5.83-.29c3.89-.79,8.14-0.14,9.15,3.17,2.88,9.94,5.47,19.23,7,25.06,4-10.73,9.07-21.39,11-25.27a13.31,13.31,0,0,1-.07-1.58c2.88-1.8,10.08-2.81,11.74.5,0.94,1.94.65,4.68,0.72,11A254.77,254.77,0,0,0,184.52,126.39Z" transform="translate(-71.18 -83.16)"/><path class="a" d="M225,116.6c0,0.5-1.37,1.8-1.37,1.8l-0.36.86-2.74,1.3,2,0.22a14.66,14.66,0,0,0-3.17,1.73c-1.22.94-1.58,1.94-2.52,2.3a136.71,136.71,0,0,0-30.46,10.44c-2.23,1.08-6.34-8.35-2.74-10.23a7.88,7.88,0,0,1,1.51-.65c0-12.31.36-34-.94-38.6a13.5,13.5,0,0,1,5.69-.86c7.63-1,24.12-.65,28.8-0.58a9,9,0,0,0-.07,1.87,7.76,7.76,0,0,0-2.23,1.58C216.2,88,214.76,89,214.76,89l1.44,0.07-2.38,1.22-0.07.86s-2.88,1.22-3.31,1.37-7.7,1.22-14,2.23c0,0.58-.07,1.15-0.07,1.73-0.07,1.87-.22,3.6-0.36,5.33A153.15,153.15,0,0,1,214,100.69a5.51,5.51,0,0,1-.58,1.51l-0.29,1.73-2.23,1.22,0.94,0.07-2.38,1.51,0.07,0.72-2.59.65-0.5.86s-2.59,1.22-3.6,1.58c-0.43,0-4.39,1.15-8,2-0.36,3.82-.79,6.77-1.08,8.57C203.52,118,216.7,115,225,116.6Z" transform="translate(-71.18 -83.16)"/></svg>