<svg xmlns="http://www.w3.org/2000/svg" viewBox="0 0 297.58 58.25"><defs><style>.a{fill:#fff;}</style></defs><title>instagram</title><path d="M74.25,586.81c-0.58,14.91-2.09,32.4-2.09,32.4l-0.5-.65-0.36,1.8-0.86.22-0.94,2.66-2.09,1.22-1.22,1.66-0.58-.5L65,627.57a2.69,2.69,0,0,1-.94.79c-0.5-3-.29-43.56-1.94-52.13a1.16,1.16,0,0,1,1-1.08C66.33,574.36,74.69,573.49,74.25,586.81Z" transform="translate(-61.15 -570.12)"/><path d="M112.41,623.54c-1,2.88-8.86,6.48-10.87-1.94-5-7.78-10-18.36-14.55-27.43-0.86,12.38-2.16,24-2.16,24L84.4,618l-1.8,3.82-1.08.58-0.86,2.52-0.86-.79-1,2.66a3.79,3.79,0,0,0-1.3.22,2.39,2.39,0,0,0-.86.86c-0.5-3.1.43-46.44-1.3-52.78a10.91,10.91,0,0,1,3-.65c4-1.8,9.5-1.44,11.23,3.31,3.53,10.08,8.79,22,12,29.16,0.94-13.61,3-31,4.25-35.79,0.22,0.22.29,1.66,0.5,1.87s0.43-1,.58-0.86,0.72,2.66.94,3a1.46,1.46,0,0,0,1.3.14,47.75,47.75,0,0,1,3,7c0.07,0.22.14,0.43,0.22,0.72C110.18,619.58,113.13,621.38,112.41,623.54Z" transform="translate(-61.15 -570.12)"/><path d="M143.3,584.8c-8.5,0-19.87,3.6-19.87,4.1-0.14,1.3,26.71,5.54,25.71,21.82-0.79,13.32-9.72,16.2-19.66,16.2s-16.42-10.3-16.06-15.91a37.31,37.31,0,0,1,1.51-9.22,66.83,66.83,0,0,0-.22,7.06,58.75,58.75,0,0,1,.86-7.85l1.15-1.3,0.36,0.86c-1.3,22.25,25.78,13.83,26,10.37,0.36-6.26-30.89-8.28-30.17-20.74,0.36-6.26,1.15-6,1.15-6,0.43-7.85,24.41-9.65,26.79-9.65C140.85,574.57,147.19,578.1,143.3,584.8Z" transform="translate(-61.15 -570.12)"/><path d="M186.79,576.66c-0.29,2.66-2.59,7.49-8.86,9.5-3.67.14-7.06,0.36-10.08,0.5-0.43,14.55-2.45,31.11-2.45,31.11l-1.58,3.53-0.58-.07-1.15,2.59s-0.36-.58-0.86.07a7.79,7.79,0,0,0-.65,1.51H160l-0.94,1.44-0.65-1.8s-0.65,2.45-.94,2.52c-0.36-2.23-.29-25.2-0.94-40.32l-11.38.65c-6,.14-6.19-11.67-2.3-12.24a97.26,97.26,0,0,1,12.89-.65,2.26,2.26,0,0,1,.79-0.58c1.8-.5,5.11-1,7.71.79C171.38,575.51,179.09,576.08,186.79,576.66Z" transform="translate(-61.15 -570.12)"/><path d="M208.32,622.89c-0.14.5-.79,3-0.79,3l-0.65-.36c-7.7-1.08-21.75.58-27.72,2.52-5,1.66-6.48-5.26-4.39-9.94,7.56-4.39,30.31-2.45,32.55,1.44,0.14,0.14-.36-0.07-0.36-0.07l1,1.22-0.65.14S208.46,622.38,208.32,622.89Zm-33.84-15.19a120.88,120.88,0,0,0,8.5-31.75c5.91-.86,9.22-0.65,10.87.5,2.81-.07,5.47.86,6,4.18a159.76,159.76,0,0,0,8.5,32.69c-0.07,0-1.15-1.15-1.15-1.15l-0.5.79-0.79-.5-0.65-.36-0.79.65s-0.29-.65-0.65-1.3c-0.22.58-1.15,2.81-1.15,2.81l-0.65-.43c-7.42-2.09-15.84-1.15-22,0-3.31.58-4.68-2-4.61-5.11A1.27,1.27,0,0,0,174.48,607.69Zm21-4.1c-1.58-3.67-3-7.34-4.32-10.8a102,102,0,0,1-4.25,9.36A40.23,40.23,0,0,1,195.5,603.59Z" transform="translate(-61.15 -570.12)"/><path d="M224.95,624.83c-9.72,0-19.87-7.2-19.37-23,0.94-27.58,31.25-30.89,31-21.67-0.07,3.17-1.73,8.14-4,9.07-11.45-5.83-21,4.75-21.24,13.68-0.22,4.54,5.33,10.95,13.11,10.95,6,0,11.16-4,14-7.71-5.26-.36-14.11-1.3-14.62-1.3-3-.86-5.54-3.74-7.34-6-0.22-.22,3.1-0.86,9.58-1.8a70.69,70.69,0,0,0-10.58.72,1,1,0,0,1-.86-0.58c4.82-.58,18.43-2.88,24.7-2,3,0.36,4.18,6.63,3.67,9.58C244.1,615.9,236.33,624.83,224.95,624.83Z" transform="translate(-61.15 -570.12)"/><path d="M270.81,608c2.74,5,4,11.09,3,15.48a20.53,20.53,0,0,0-2.52-11.38s2.74,9.22,1.8,12.24a5.37,5.37,0,0,1-.36-0.43,4.67,4.67,0,0,1-1.3,1.51c-0.43.07-1.87,0.43-1.87,0.43l-0.65-.72c-1.44-5.62-4.75-10.66-7.92-14.69a47.35,47.35,0,0,1-6.41.43h-0.43c-0.29,4.46-.5,7.42-0.5,7.42s-0.5.86-1.22,2c-0.43.65-1.44,2.88-1.44,2.88a3.26,3.26,0,0,0-1.37.94,14.63,14.63,0,0,0-.58,1.44l-0.58-.07-0.86,1.37a1.35,1.35,0,0,0-.65-0.29c-0.36.14-.58,0.94-0.86,0.94-0.22-1.22-.43-9.58-0.72-19.23a11.9,11.9,0,0,1-5.18-7,8.27,8.27,0,0,1-.29-3c0.36,1.94,1.44,4.61,2.16,5.26-1.37-2.74-1.8-5.4-1.44-7,0.36,1.08,2,2.38,4.54,3.38-0.22-4.75-.43-9.43-0.65-13.32-1.44.22-2.88,0.5-4.39,0.86-2.3-.86-4.54-7-2-9.29s42.63-11.59,42.41,16.2C280.39,601.65,276.07,605.68,270.81,608Zm-15.7-22.54c0.07,0.72.07,1.58,0.07,2.52-0.07,4.54-.29,9.36-0.58,13.83,8.71-.07,19.87-4.61,20.23-9.36C275.13,588.4,267.93,584.94,255.12,585.44Z" transform="translate(-61.15 -570.12)"/><path d="M312.07,622.89c-0.14.5-.79,3-0.79,3l-0.65-.36c-7.7-1.08-21.75.58-27.72,2.52-5,1.66-6.48-5.26-4.39-9.94,7.56-4.39,30.31-2.45,32.55,1.44,0.14,0.14-.36-0.07-0.36-0.07l1,1.22-0.65.14S312.21,622.38,312.07,622.89Zm-33.84-15.19a120.88,120.88,0,0,0,8.5-31.75c5.91-.86,9.22-0.65,10.87.5,2.81-.07,5.47.86,6,4.18a159.76,159.76,0,0,0,8.5,32.69c-0.07,0-1.15-1.15-1.15-1.15l-0.5.79-0.79-.5-0.65-.36-0.79.65s-0.29-.65-0.65-1.3c-0.22.58-1.15,2.81-1.15,2.81l-0.65-.43c-7.42-2.09-15.84-1.15-22,0-3.31.58-4.68-2-4.61-5.11A1.27,1.27,0,0,0,278.23,607.69Zm21-4.1c-1.58-3.67-3-7.34-4.32-10.8a102,102,0,0,1-4.25,9.36A40.23,40.23,0,0,1,299.25,603.59Z" transform="translate(-61.15 -570.12)"/><path d="M358.73,617.56L358,620.15l-0.72.14L357,622.1l-0.58,2.16-0.94.14-0.14,1.66a2.21,2.21,0,0,0-1.15.07c-0.22.07-.14,0.72-0.36,0.79-3.89-7.06-6.55-19.73-8.06-30.89-2.45,7.7-6.12,18.07-8.42,24.27-0.5,1.51-7.27,4-7.92-2.52-1.73-4-4.54-11.09-7.56-18.29-1.15,10.8-2.52,19-2.52,19l-0.94-.14-2.74,4.83-1.87.58-0.58,1.15s-1.15-.94-1.8-0.65-1,1.87-1.44,1.87c0.86-8.86,2.38-38,1.37-48.75a0.38,0.38,0,0,0-.14-0.22,0.25,0.25,0,0,0,.14-0.07,14.45,14.45,0,0,0-.29-2.16,11.51,11.51,0,0,1,5.83-.29c3.89-.79,8.14-0.14,9.15,3.17,2.88,9.94,5.47,19.23,7,25.06,4-10.73,9.07-21.39,11-25.27A13.5,13.5,0,0,1,344,576c2.88-1.8,10.08-2.81,11.74.5,0.94,1.94.65,4.68,0.72,11A254.71,254.71,0,0,0,358.73,617.56Z" transform="translate(-61.15 -570.12)"/><path class="a" d="M73.25,585.81c-0.58,14.91-2.09,32.4-2.09,32.4l-0.5-.65-0.36,1.8-0.86.22-0.94,2.66-2.09,1.22-1.22,1.66-0.58-.5L64,626.57a2.69,2.69,0,0,1-.94.79c-0.5-3-.29-43.56-1.94-52.13a1.16,1.16,0,0,1,1-1.08C65.33,573.36,73.69,572.49,73.25,585.81Z" transform="translate(-61.15 -570.12)"/><path class="a" d="M111.41,622.54c-1,2.88-8.86,6.48-10.87-1.94-5-7.78-10-18.36-14.55-27.43-0.86,12.38-2.16,24-2.16,24L83.4,617l-1.8,3.82-1.08.58-0.86,2.52-0.86-.79-1,2.66a3.79,3.79,0,0,0-1.3.22,2.39,2.39,0,0,0-.86.86c-0.5-3.1.43-46.44-1.3-52.78a10.91,10.91,0,0,1,3-.65c4-1.8,9.5-1.44,11.23,3.31,3.53,10.08,8.79,22,12,29.16,0.94-13.61,3-31,4.25-35.79,0.22,0.22.29,1.66,0.5,1.87s0.43-1,.58-0.86,0.72,2.66.94,3a1.46,1.46,0,0,0,1.3.14,47.75,47.75,0,0,1,3,7c0.07,0.22.14,0.43,0.22,0.72C109.18,618.58,112.13,620.38,111.41,622.54Z" transform="translate(-61.15 -570.12)"/><path class="a" d="M142.3,583.8c-8.5,0-19.87,3.6-19.87,4.1-0.14,1.3,26.71,5.54,25.71,21.82-0.79,13.32-9.72,16.2-19.66,16.2s-16.42-10.3-16.06-15.91a37.31,37.31,0,0,1,1.51-9.22,66.83,66.83,0,0,0-.22,7.06,58.75,58.75,0,0,1,.86-7.85l1.15-1.3,0.36,0.86c-1.3,22.25,25.78,13.83,26,10.37,0.36-6.26-30.89-8.28-30.17-20.74,0.36-6.26,1.15-6,1.15-6,0.43-7.85,24.41-9.65,26.79-9.65C139.85,573.57,146.19,577.1,142.3,583.8Z" transform="translate(-61.15 -570.12)"/><path class="a" d="M185.79,575.66c-0.29,2.66-2.59,7.49-8.86,9.5-3.67.14-7.06,0.36-10.08,0.5-0.43,14.55-2.45,31.11-2.45,31.11l-1.58,3.53-0.58-.07-1.15,2.59s-0.36-.58-0.86.07a7.79,7.79,0,0,0-.65,1.51H159l-0.94,1.44-0.65-1.8s-0.65,2.45-.94,2.52c-0.36-2.23-.29-25.2-0.94-40.32l-11.38.65c-6,.14-6.19-11.67-2.3-12.24a97.26,97.26,0,0,1,12.89-.65,2.26,2.26,0,0,1,.79-0.58c1.8-.5,5.11-1,7.71.79C170.38,574.51,178.09,575.08,185.79,575.66Z" transform="translate(-61.15 -570.12)"/><path class="a" d="M207.32,621.89c-0.14.5-.79,3-0.79,3l-0.65-.36c-7.7-1.08-21.75.58-27.72,2.52-5,1.66-6.48-5.26-4.39-9.94,7.56-4.39,30.31-2.45,32.55,1.44,0.14,0.14-.36-0.07-0.36-0.07l1,1.22-0.65.14S207.46,621.38,207.32,621.89Zm-33.84-15.19a120.88,120.88,0,0,0,8.5-31.75c5.91-.86,9.22-0.65,10.87.5,2.81-.07,5.47.86,6,4.18a159.76,159.76,0,0,0,8.5,32.69c-0.07,0-1.15-1.15-1.15-1.15l-0.5.79-0.79-.5-0.65-.36-0.79.65s-0.29-.65-0.65-1.3c-0.22.58-1.15,2.81-1.15,2.81l-0.65-.43c-7.42-2.09-15.84-1.15-22,0-3.31.58-4.68-2-4.61-5.11A1.27,1.27,0,0,0,173.48,606.69Zm21-4.1c-1.58-3.67-3-7.34-4.32-10.8a102,102,0,0,1-4.25,9.36A40.23,40.23,0,0,1,194.5,602.59Z" transform="translate(-61.15 -570.12)"/><path class="a" d="M223.95,623.83c-9.72,0-19.87-7.2-19.37-23,0.94-27.58,31.25-30.89,31-21.67-0.07,3.17-1.73,8.14-4,9.07-11.45-5.83-21,4.75-21.24,13.68-0.22,4.54,5.33,10.95,13.11,10.95,6,0,11.16-4,14-7.71-5.26-.36-14.11-1.3-14.62-1.3-3-.86-5.54-3.74-7.34-6-0.22-.22,3.1-0.86,9.58-1.8a70.69,70.69,0,0,0-10.58.72,1,1,0,0,1-.86-0.58c4.82-.58,18.43-2.88,24.7-2,3,0.36,4.18,6.63,3.67,9.58C243.1,614.9,235.33,623.83,223.95,623.83Z" transform="translate(-61.15 -570.12)"/><path class="a" d="M269.81,607c2.74,5,4,11.09,3,15.48a20.53,20.53,0,0,0-2.52-11.38s2.74,9.22,1.8,12.24a5.37,5.37,0,0,1-.36-0.43,4.67,4.67,0,0,1-1.3,1.51c-0.43.07-1.87,0.43-1.87,0.43l-0.65-.72c-1.44-5.62-4.75-10.66-7.92-14.69a47.35,47.35,0,0,1-6.41.43h-0.43c-0.29,4.46-.5,7.42-0.5,7.42s-0.5.86-1.22,2c-0.43.65-1.44,2.88-1.44,2.88a3.26,3.26,0,0,0-1.37.94,14.63,14.63,0,0,0-.58,1.44l-0.58-.07-0.86,1.37a1.35,1.35,0,0,0-.65-0.29c-0.36.14-.58,0.94-0.86,0.94-0.22-1.22-.43-9.58-0.72-19.23a11.9,11.9,0,0,1-5.18-7,8.27,8.27,0,0,1-.29-3c0.36,1.94,1.44,4.61,2.16,5.26-1.37-2.74-1.8-5.4-1.44-7,0.36,1.08,2,2.38,4.54,3.38-0.22-4.75-.43-9.43-0.65-13.32-1.44.22-2.88,0.5-4.39,0.86-2.3-.86-4.54-7-2-9.29s42.63-11.59,42.41,16.2C279.39,600.65,275.07,604.68,269.81,607Zm-15.7-22.54c0.07,0.72.07,1.58,0.07,2.52-0.07,4.54-.29,9.36-0.58,13.83,8.71-.07,19.87-4.61,20.23-9.36C274.13,587.4,266.93,583.94,254.12,584.44Z" transform="translate(-61.15 -570.12)"/><path class="a" d="M311.07,621.89c-0.14.5-.79,3-0.79,3l-0.65-.36c-7.7-1.08-21.75.58-27.72,2.52-5,1.66-6.48-5.26-4.39-9.94,7.56-4.39,30.31-2.45,32.55,1.44,0.14,0.14-.36-0.07-0.36-0.07l1,1.22-0.65.14S311.21,621.38,311.07,621.89Zm-33.84-15.19a120.88,120.88,0,0,0,8.5-31.75c5.91-.86,9.22-0.65,10.87.5,2.81-.07,5.47.86,6,4.18a159.76,159.76,0,0,0,8.5,32.69c-0.07,0-1.15-1.15-1.15-1.15l-0.5.79-0.79-.5-0.65-.36-0.79.65s-0.29-.65-0.65-1.3c-0.22.58-1.15,2.81-1.15,2.81l-0.65-.43c-7.42-2.09-15.84-1.15-22,0-3.31.58-4.68-2-4.61-5.11A1.27,1.27,0,0,0,277.23,606.69Zm21-4.1c-1.58-3.67-3-7.34-4.32-10.8a102,102,0,0,1-4.25,9.36A40.23,40.23,0,0,1,298.25,602.59Z" transform="translate(-61.15 -570.12)"/><path class="a" d="M357.73,616.56L357,619.15l-0.72.14L356,621.1l-0.58,2.16-0.94.14-0.14,1.66a2.21,2.21,0,0,0-1.15.07c-0.22.07-.14,0.72-0.36,0.79-3.89-7.06-6.55-19.73-8.06-30.89-2.45,7.7-6.12,18.07-8.42,24.27-0.5,1.51-7.27,4-7.92-2.52-1.73-4-4.54-11.09-7.56-18.29-1.15,10.8-2.52,19-2.52,19l-0.94-.14-2.74,4.83-1.87.58-0.58,1.15s-1.15-.94-1.8-0.65-1,1.87-1.44,1.87c0.86-8.86,2.38-38,1.37-48.75a0.38,0.38,0,0,0-.14-0.22,0.25,0.25,0,0,0,.14-0.07,14.45,14.45,0,0,0-.29-2.16,11.51,11.51,0,0,1,5.83-.29c3.89-.79,8.14-0.14,9.15,3.17,2.88,9.94,5.47,19.23,7,25.06,4-10.73,9.07-21.39,11-25.27A13.5,13.5,0,0,1,343,575c2.88-1.8,10.08-2.81,11.74.5,0.94,1.94.65,4.68,0.72,11A254.71,254.71,0,0,0,357.73,616.56Z" transform="translate(-61.15 -570.12)"/></svg>