<svg xmlns="http://www.w3.org/2000/svg" viewBox="0 0 169.57 55.02"><defs><style>.a{fill:#fff;}</style></defs><title>media</title><path d="M432.61,88.61l-0.72,2.59-0.72.14-0.29,1.8-0.58,2.16-0.94.14-0.14,1.66a2.21,2.21,0,0,0-1.15.07c-0.22.07-.14,0.72-0.36,0.79-3.89-7.06-6.55-19.73-8.06-30.89-2.45,7.7-6.12,18.07-8.42,24.27-0.5,1.51-7.27,4-7.92-2.52-1.73-4-4.54-11.09-7.56-18.29-1.15,10.8-2.52,19-2.52,19l-0.94-.14-2.74,4.83-1.87.58L387.1,96S386,95,385.3,95.31s-1,1.87-1.44,1.87c0.86-8.86,2.38-38,1.37-48.75a0.38,0.38,0,0,0-.14-0.22,0.25,0.25,0,0,0,.14-0.07,14.37,14.37,0,0,0-.29-2.16,11.51,11.51,0,0,1,5.83-.29c3.89-.79,8.14-0.14,9.15,3.17,2.88,9.94,5.47,19.23,7,25.06a275.66,275.66,0,0,1,11-25.27,13.32,13.32,0,0,1-.07-1.58c2.88-1.8,10.08-2.81,11.74.5,0.94,1.94.65,4.68,0.72,11A254.77,254.77,0,0,0,432.61,88.61Z" transform="translate(-382.86 -44.39)"/><path d="M473.07,78.82c0,0.5-1.37,1.8-1.37,1.8l-0.36.86-2.74,1.3,2,0.22a14.65,14.65,0,0,0-3.17,1.73c-1.22.94-1.58,1.94-2.52,2.3a136.72,136.72,0,0,0-30.46,10.44c-2.23,1.08-6.34-8.35-2.74-10.23a7.85,7.85,0,0,1,1.51-.65c0-12.31.36-34-.94-38.6a13.5,13.5,0,0,1,5.69-.86c7.63-1,24.12-.65,28.8-0.58a9,9,0,0,0-.07,1.87A7.75,7.75,0,0,0,464.51,50c-0.22.22-1.66,1.22-1.66,1.22l1.44,0.07-2.38,1.22-0.07.86s-2.88,1.22-3.31,1.37-7.7,1.22-14,2.23c0,0.58-.07,1.15-0.07,1.73-0.07,1.87-.22,3.6-0.36,5.33a153.17,153.17,0,0,1,18.07-1.15,5.51,5.51,0,0,1-.58,1.51l-0.29,1.73L459,67.37,460,67.44,457.59,69l0.07,0.72-2.59.65-0.5.86S452,72.41,451,72.77c-0.43,0-4.39,1.15-8,2-0.36,3.82-.79,6.77-1.08,8.57C451.62,80.19,464.79,77.23,473.07,78.82Z" transform="translate(-382.86 -44.39)"/><path d="M509.22,74C509.15,92.64,488,95.45,481.35,95.45c-0.65,0-1.3-.07-2-0.14l-0.43.94-1.3-.07-0.79,1.94L476,97.9a3.38,3.38,0,0,1-.65.86c-0.07-.5-0.14-2.16-0.22-4.46C470.34,92.5,465,88,465,77.31c0,0,1.22-2.52,1.22.07,0,1.94,3.53,4.75,8.64,6.12-0.22-8.35-.5-18.29-1-25.13a49,49,0,0,0-5.4,1.3c-2.38-1.08-4.82-8.57-2.09-11.38S509.43,39.72,509.22,74Zm-27.65,10.3c-0.07-4.32,0-9.14,0-9.14l-0.65,9.14h0.65Zm2.16-25.85c-0.14,8.5-.58,19.87-0.86,25.78,9.07-.72,19.95-7.27,20.31-12.75C503.46,66.87,494.82,60.17,483.73,58.44Z" transform="translate(-382.86 -44.39)"/><path d="M519.08,57.87C518.5,72.77,517,90.27,517,90.27l-0.5-.65-0.36,1.8-0.86.22-0.94,2.66-2.09,1.22L511,97.18l-0.58-.5-0.58,1.94a2.68,2.68,0,0,1-.94.79c-0.5-3-.29-43.56-1.94-52.13a1.16,1.16,0,0,1,1-1.08C511.16,45.41,519.51,44.54,519.08,57.87Z" transform="translate(-382.86 -44.39)"/><path d="M552.42,93.94c-0.14.5-.79,3-0.79,3L551,96.53c-7.71-1.08-21.75.58-27.72,2.52-5,1.66-6.48-5.26-4.39-9.94,7.56-4.39,30.31-2.45,32.55,1.44,0.14,0.14-.36-0.07-0.36-0.07l1,1.22-0.65.14S552.56,93.44,552.42,93.94ZM518.57,78.75A120.86,120.86,0,0,0,527.07,47c5.9-.86,9.22-0.65,10.87.5,2.81-.07,5.47.86,6,4.18a159.72,159.72,0,0,0,8.5,32.69c-0.07,0-1.15-1.15-1.15-1.15l-0.5.79L550,83.5l-0.65-.36-0.79.65s-0.29-.65-0.65-1.3c-0.22.58-1.15,2.81-1.15,2.81l-0.65-.43c-7.42-2.09-15.84-1.15-22,0-3.31.58-4.68-2-4.61-5.11A1.27,1.27,0,0,0,518.57,78.75Zm21-4.1c-1.58-3.67-3-7.34-4.32-10.8A101.86,101.86,0,0,1,531,73.2,40.23,40.23,0,0,1,539.6,74.64Z" transform="translate(-382.86 -44.39)"/><path class="a" d="M431.61,87.61l-0.72,2.59-0.72.14-0.29,1.8-0.58,2.16-0.94.14-0.14,1.66a2.21,2.21,0,0,0-1.15.07c-0.22.07-.14,0.72-0.36,0.79-3.89-7.06-6.55-19.73-8.06-30.89-2.45,7.7-6.12,18.07-8.42,24.27-0.5,1.51-7.27,4-7.92-2.52-1.73-4-4.54-11.09-7.56-18.29-1.15,10.8-2.52,19-2.52,19l-0.94-.14-2.74,4.83-1.87.58L386.1,95S385,94,384.3,94.31s-1,1.87-1.44,1.87c0.86-8.86,2.38-38,1.37-48.75a0.38,0.38,0,0,0-.14-0.22,0.25,0.25,0,0,0,.14-0.07,14.37,14.37,0,0,0-.29-2.16,11.51,11.51,0,0,1,5.83-.29c3.89-.79,8.14-0.14,9.15,3.17,2.88,9.94,5.47,19.23,7,25.06a275.66,275.66,0,0,1,11-25.27,13.32,13.32,0,0,1-.07-1.58c2.88-1.8,10.08-2.81,11.74.5,0.94,1.94.65,4.68,0.72,11A254.77,254.77,0,0,0,431.61,87.61Z" transform="translate(-382.86 -44.39)"/><path class="a" d="M472.07,77.82c0,0.5-1.37,1.8-1.37,1.8l-0.36.86-2.74,1.3,2,0.22a14.65,14.65,0,0,0-3.17,1.73c-1.22.94-1.58,1.94-2.52,2.3a136.72,136.72,0,0,0-30.46,10.44c-2.23,1.08-6.34-8.35-2.74-10.23a7.85,7.85,0,0,1,1.51-.65c0-12.31.36-34-.94-38.6a13.5,13.5,0,0,1,5.69-.86c7.63-1,24.12-.65,28.8-0.58a9,9,0,0,0-.07,1.87A7.75,7.75,0,0,0,463.51,49c-0.22.22-1.66,1.22-1.66,1.22l1.44,0.07-2.38,1.22-0.07.86s-2.88,1.22-3.31,1.37-7.7,1.22-14,2.23c0,0.58-.07,1.15-0.07,1.73-0.07,1.87-.22,3.6-0.36,5.33a153.17,153.17,0,0,1,18.07-1.15,5.51,5.51,0,0,1-.58,1.51l-0.29,1.73L458,66.37,459,66.44,456.59,68l0.07,0.72-2.59.65-0.5.86S451,71.41,450,71.77c-0.43,0-4.39,1.15-8,2-0.36,3.82-.79,6.77-1.08,8.57C450.62,79.19,463.79,76.23,472.07,77.82Z" transform="translate(-382.86 -44.39)"/><path class="a" d="M508.22,73C508.15,91.64,487,94.45,480.35,94.45c-0.65,0-1.3-.07-2-0.14l-0.43.94-1.3-.07-0.79,1.94L475,96.9a3.38,3.38,0,0,1-.65.86c-0.07-.5-0.14-2.16-0.22-4.46C469.34,91.5,464,87,464,76.31c0,0,1.22-2.52,1.22.07,0,1.94,3.53,4.75,8.64,6.12-0.22-8.35-.5-18.29-1-25.13a49,49,0,0,0-5.4,1.3c-2.38-1.08-4.82-8.57-2.09-11.38S508.43,38.72,508.22,73Zm-27.65,10.3c-0.07-4.32,0-9.14,0-9.14l-0.65,9.14h0.65Zm2.16-25.85c-0.14,8.5-.58,19.87-0.86,25.78,9.07-.72,19.95-7.27,20.31-12.75C502.46,65.87,493.82,59.17,482.73,57.44Z" transform="translate(-382.86 -44.39)"/><path class="a" d="M518.08,56.87C517.5,71.77,516,89.27,516,89.27l-0.5-.65-0.36,1.8-0.86.22-0.94,2.66-2.09,1.22L510,96.18l-0.58-.5-0.58,1.94a2.68,2.68,0,0,1-.94.79c-0.5-3-.29-43.56-1.94-52.13a1.16,1.16,0,0,1,1-1.08C510.16,44.41,518.51,43.54,518.08,56.87Z" transform="translate(-382.86 -44.39)"/><path class="a" d="M551.42,92.94c-0.14.5-.79,3-0.79,3L550,95.53c-7.71-1.08-21.75.58-27.72,2.52-5,1.66-6.48-5.26-4.39-9.94,7.56-4.39,30.31-2.45,32.55,1.44,0.14,0.14-.36-0.07-0.36-0.07l1,1.22-0.65.14S551.56,92.44,551.42,92.94ZM517.57,77.75A120.86,120.86,0,0,0,526.07,46c5.9-.86,9.22-0.65,10.87.5,2.81-.07,5.47.86,6,4.18a159.72,159.72,0,0,0,8.5,32.69c-0.07,0-1.15-1.15-1.15-1.15l-0.5.79L549,82.5l-0.65-.36-0.79.65s-0.29-.65-0.65-1.3c-0.22.58-1.15,2.81-1.15,2.81l-0.65-.43c-7.42-2.09-15.84-1.15-22,0-3.31.58-4.68-2-4.61-5.11A1.27,1.27,0,0,0,517.57,77.75Zm21-4.1c-1.58-3.67-3-7.34-4.32-10.8A101.86,101.86,0,0,1,530,72.2,40.23,40.23,0,0,1,538.6,73.64Z" transform="translate(-382.86 -44.39)"/></svg>