<svg xmlns="http://www.w3.org/2000/svg" viewBox="0 0 277 54.45"><defs><style>.a{fill:#fff;}</style></defs><title>members</title><path d="M111.18,372.48l-0.72,2.59-0.72.14-0.29,1.8-0.58,2.16-0.94.14L107.8,381a2.21,2.21,0,0,0-1.15.07c-0.22.07-.14,0.72-0.36,0.79-3.89-7.06-6.55-19.73-8.06-30.89-2.45,7.7-6.12,18.07-8.42,24.27-0.5,1.51-7.27,4-7.92-2.52-1.73-4-4.54-11.09-7.56-18.29-1.15,10.8-2.52,19-2.52,19l-0.94-.14-2.74,4.82-1.87.58-0.58,1.15s-1.15-.94-1.8-0.65-1,1.87-1.44,1.87c0.86-8.86,2.38-38,1.37-48.75a0.38,0.38,0,0,0-.14-0.22A0.25,0.25,0,0,0,63.8,332a14.38,14.38,0,0,0-.29-2.16,11.52,11.52,0,0,1,5.83-.29c3.89-.79,8.14-0.14,9.15,3.17,2.88,9.94,5.47,19.23,7,25.06,4-10.73,9.07-21.39,11-25.27a13.31,13.31,0,0,1-.07-1.58c2.88-1.8,10.08-2.81,11.74.5,0.94,1.94.65,4.68,0.72,11A254.77,254.77,0,0,0,111.18,372.48Z" transform="translate(-61.43 -328.25)"/><path d="M151.64,362.68c0,0.5-1.37,1.8-1.37,1.8l-0.36.86-2.74,1.3,2,0.22a14.66,14.66,0,0,0-3.17,1.73c-1.22.94-1.58,1.94-2.52,2.3A136.71,136.71,0,0,0,113,381.33c-2.23,1.08-6.34-8.35-2.74-10.23a7.88,7.88,0,0,1,1.51-.65c0-12.31.36-34-.94-38.6a13.5,13.5,0,0,1,5.69-.86c7.63-1,24.12-.65,28.8-0.58a9,9,0,0,0-.07,1.87,7.76,7.76,0,0,0-2.23,1.58c-0.22.22-1.66,1.22-1.66,1.22l1.44,0.07-2.38,1.22-0.07.86s-2.88,1.22-3.31,1.37-7.7,1.22-14,2.23c0,0.58-.07,1.15-0.07,1.73-0.07,1.87-.22,3.6-0.36,5.33a153.15,153.15,0,0,1,18.07-1.15,5.51,5.51,0,0,1-.58,1.51L139.83,350l-2.23,1.22,0.94,0.07-2.38,1.51,0.07,0.72-2.59.65-0.5.86s-2.59,1.22-3.6,1.58c-0.43,0-4.39,1.15-8,2-0.36,3.82-.79,6.77-1.08,8.57C130.19,364.05,143.36,361.1,151.64,362.68Z" transform="translate(-61.43 -328.25)"/><path d="M192,372.48l-0.72,2.59-0.72.14-0.29,1.8-0.58,2.16-0.94.14L188.58,381a2.21,2.21,0,0,0-1.15.07c-0.22.07-.14,0.72-0.36,0.79-3.89-7.06-6.55-19.73-8.06-30.89-2.45,7.7-6.12,18.07-8.42,24.27-0.5,1.51-7.27,4-7.92-2.52-1.73-4-4.54-11.09-7.56-18.29-1.15,10.8-2.52,19-2.52,19l-0.94-.14-2.74,4.82-1.87.58-0.58,1.15s-1.15-.94-1.8-0.65-1,1.87-1.44,1.87c0.86-8.86,2.38-38,1.37-48.75a0.38,0.38,0,0,0-.14-0.22,0.25,0.25,0,0,0,.14-0.07,14.38,14.38,0,0,0-.29-2.16,11.52,11.52,0,0,1,5.83-.29c3.89-.79,8.14-0.14,9.15,3.17,2.88,9.94,5.47,19.23,7,25.06,4-10.73,9.07-21.39,11-25.27a13.31,13.31,0,0,1-.07-1.58c2.88-1.8,10.08-2.81,11.74.5,0.94,1.94.65,4.68,0.72,11A254.77,254.77,0,0,0,192,372.48Z" transform="translate(-61.43 -328.25)"/><path d="M211.19,379.32c-2.59,0-7.27.36-11.74-.79-0.29.5-.58,0.94-0.79,1.37s-0.86-.07-1.08-0.79c-0.29,1.51-.14,1.94-0.65,2.23s-0.79,1.3-1.08,1.37a50.92,50.92,0,0,1-.29-5.69c-3.6-1.94-6.48-5.4-7.27-11.67a25.9,25.9,0,0,0,7.06,2.66c-0.07-3.67-.14-7.63-0.29-11.52-1.15,0-2.38.07-3.67,0.14,0,0-3.82-2.3-1.44-7.78a4.82,4.82,0,0,1,1.8-.58l-0.07-.79s1.22-.29,3.1-0.79c-0.14-2.52-.29-4.9-0.43-7a3.5,3.5,0,0,1-1.66-.29c-1.15-.86-2.23-4.68-1.22-6.41l2.09-.36a2.43,2.43,0,0,0-.29-0.86s5.26-2.23,8.35-.14c6.62-.72,15-1.15,19.87.29,2.38,1.73,3,6.12,3,9.58,0,0-.65,3.31-6.26,6.34,7.78,1.87,14.26,6.26,14.76,15.41C233.58,374.64,223.43,379.24,211.19,379.32Zm-7.2-23c-0.22,5.83-.65,9.94-1,12.6,6.91,0.22,14.76-1.15,21-5.69C224,363.26,225.08,356.85,204,356.35Zm0.07-12.53c4.18-1.44,8.35-3.17,10.51-5-0.86-.5-5.69-0.14-10.58.29C204,340.79,204.06,342.3,204.06,343.82Z" transform="translate(-61.43 -328.25)"/><path d="M271.52,362.68c0,0.5-1.37,1.8-1.37,1.8l-0.36.86-2.74,1.3,2,0.22a14.66,14.66,0,0,0-3.17,1.73c-1.22.94-1.58,1.94-2.52,2.3a136.72,136.72,0,0,0-30.46,10.44c-2.23,1.08-6.34-8.35-2.74-10.23a7.88,7.88,0,0,1,1.51-.65c0-12.31.36-34-.94-38.6a13.5,13.5,0,0,1,5.69-.86c7.63-1,24.12-.65,28.8-0.58a9,9,0,0,0-.07,1.87,7.75,7.75,0,0,0-2.23,1.58c-0.22.22-1.66,1.22-1.66,1.22l1.44,0.07-2.38,1.22-0.07.86s-2.88,1.22-3.31,1.37-7.71,1.22-14,2.23c0,0.58-.07,1.15-0.07,1.73-0.07,1.87-.22,3.6-0.36,5.33a153.16,153.16,0,0,1,18.07-1.15,5.51,5.51,0,0,1-.58,1.51L259.71,350l-2.23,1.22,0.94,0.07L256,352.82l0.07,0.72-2.59.65L253,355s-2.59,1.22-3.6,1.58c-0.43,0-4.39,1.15-8,2-0.36,3.82-.79,6.77-1.08,8.57C250.06,364.05,263.24,361.1,271.52,362.68Z" transform="translate(-61.43 -328.25)"/><path d="M295.21,362.9c2.74,5,4,11.09,3,15.48A20.53,20.53,0,0,0,295.64,367s2.74,9.22,1.8,12.24a5.44,5.44,0,0,1-.36-0.43,4.67,4.67,0,0,1-1.3,1.51c-0.43.07-1.87,0.43-1.87,0.43l-0.65-.72c-1.44-5.62-4.75-10.66-7.92-14.69a47.29,47.29,0,0,1-6.41.43H278.5c-0.29,4.46-.5,7.42-0.5,7.42s-0.5.86-1.22,2c-0.43.65-1.44,2.88-1.44,2.88A3.26,3.26,0,0,0,274,379a14.63,14.63,0,0,0-.58,1.44l-0.58-.07L272,381.76a1.35,1.35,0,0,0-.65-0.29c-0.36.14-.58,0.94-0.86,0.94-0.22-1.22-.43-9.58-0.72-19.23a11.9,11.9,0,0,1-5.18-7,8.27,8.27,0,0,1-.29-3c0.36,1.94,1.44,4.61,2.16,5.26-1.37-2.74-1.8-5.4-1.44-7,0.36,1.08,2,2.38,4.54,3.38-0.22-4.75-.43-9.43-0.65-13.32-1.44.22-2.88,0.5-4.39,0.86-2.3-.86-4.54-7-2-9.29s42.63-11.59,42.41,16.2C304.79,356.56,300.47,360.59,295.21,362.9Zm-15.7-22.54c0.07,0.72.07,1.58,0.07,2.52-0.07,4.54-.29,9.36-0.58,13.83,8.71-.07,19.87-4.61,20.23-9.36C299.53,343.31,292.33,339.86,279.51,340.36Z" transform="translate(-61.43 -328.25)"/><path d="M332.58,339.71c-8.5,0-19.87,3.6-19.87,4.1-0.14,1.3,26.71,5.54,25.71,21.82-0.79,13.32-9.72,16.2-19.66,16.2s-16.42-10.3-16.06-15.91a37.34,37.34,0,0,1,1.51-9.22,66.83,66.83,0,0,0-.22,7.06,58.83,58.83,0,0,1,.86-7.85l1.15-1.3,0.36,0.86c-1.3,22.25,25.78,13.83,26,10.37,0.36-6.26-30.89-8.28-30.17-20.74,0.36-6.26,1.15-6,1.15-6,0.43-7.85,24.41-9.65,26.79-9.65C330.13,329.49,336.46,333,332.58,339.71Z" transform="translate(-61.43 -328.25)"/><path class="a" d="M110.18,371.48l-0.72,2.59-0.72.14-0.29,1.8-0.58,2.16-0.94.14L106.8,380a2.21,2.21,0,0,0-1.15.07c-0.22.07-.14,0.72-0.36,0.79-3.89-7.06-6.55-19.73-8.06-30.89-2.45,7.7-6.12,18.07-8.42,24.27-0.5,1.51-7.27,4-7.92-2.52-1.73-4-4.54-11.09-7.56-18.29-1.15,10.8-2.52,19-2.52,19l-0.94-.14-2.74,4.82-1.87.58-0.58,1.15s-1.15-.94-1.8-0.65-1,1.87-1.44,1.87c0.86-8.86,2.38-38,1.37-48.75a0.38,0.38,0,0,0-.14-0.22A0.25,0.25,0,0,0,62.8,331a14.38,14.38,0,0,0-.29-2.16,11.52,11.52,0,0,1,5.83-.29c3.89-.79,8.14-0.14,9.15,3.17,2.88,9.94,5.47,19.23,7,25.06,4-10.73,9.07-21.39,11-25.27a13.31,13.31,0,0,1-.07-1.58c2.88-1.8,10.08-2.81,11.74.5,0.94,1.94.65,4.68,0.72,11A254.77,254.77,0,0,0,110.18,371.48Z" transform="translate(-61.43 -328.25)"/><path class="a" d="M150.64,361.68c0,0.5-1.37,1.8-1.37,1.8l-0.36.86-2.74,1.3,2,0.22a14.66,14.66,0,0,0-3.17,1.73c-1.22.94-1.58,1.94-2.52,2.3A136.71,136.71,0,0,0,112,380.33c-2.23,1.08-6.34-8.35-2.74-10.23a7.88,7.88,0,0,1,1.51-.65c0-12.31.36-34-.94-38.6a13.5,13.5,0,0,1,5.69-.86c7.63-1,24.12-.65,28.8-0.58a9,9,0,0,0-.07,1.87,7.76,7.76,0,0,0-2.23,1.58c-0.22.22-1.66,1.22-1.66,1.22l1.44,0.07-2.38,1.22-0.07.86s-2.88,1.22-3.31,1.37-7.7,1.22-14,2.23c0,0.58-.07,1.15-0.07,1.73-0.07,1.87-.22,3.6-0.36,5.33a153.15,153.15,0,0,1,18.07-1.15,5.51,5.51,0,0,1-.58,1.51L138.83,349l-2.23,1.22,0.94,0.07-2.38,1.51,0.07,0.72-2.59.65-0.5.86s-2.59,1.22-3.6,1.58c-0.43,0-4.39,1.15-8,2-0.36,3.82-.79,6.77-1.08,8.57C129.19,363.05,142.36,360.1,150.64,361.68Z" transform="translate(-61.43 -328.25)"/><path class="a" d="M191,371.48l-0.72,2.59-0.72.14-0.29,1.8-0.58,2.16-0.94.14L187.58,380a2.21,2.21,0,0,0-1.15.07c-0.22.07-.14,0.72-0.36,0.79-3.89-7.06-6.55-19.73-8.06-30.89-2.45,7.7-6.12,18.07-8.42,24.27-0.5,1.51-7.27,4-7.92-2.52-1.73-4-4.54-11.09-7.56-18.29-1.15,10.8-2.52,19-2.52,19l-0.94-.14-2.74,4.82-1.87.58-0.58,1.15s-1.15-.94-1.8-0.65-1,1.87-1.44,1.87c0.86-8.86,2.38-38,1.37-48.75a0.38,0.38,0,0,0-.14-0.22,0.25,0.25,0,0,0,.14-0.07,14.38,14.38,0,0,0-.29-2.16,11.52,11.52,0,0,1,5.83-.29c3.89-.79,8.14-0.14,9.15,3.17,2.88,9.94,5.47,19.23,7,25.06,4-10.73,9.07-21.39,11-25.27a13.31,13.31,0,0,1-.07-1.58c2.88-1.8,10.08-2.81,11.74.5,0.94,1.94.65,4.68,0.72,11A254.77,254.77,0,0,0,191,371.48Z" transform="translate(-61.43 -328.25)"/><path class="a" d="M210.19,378.32c-2.59,0-7.27.36-11.74-.79-0.29.5-.58,0.94-0.79,1.37s-0.86-.07-1.08-0.79c-0.29,1.51-.14,1.94-0.65,2.23s-0.79,1.3-1.08,1.37a50.92,50.92,0,0,1-.29-5.69c-3.6-1.94-6.48-5.4-7.27-11.67a25.9,25.9,0,0,0,7.06,2.66c-0.07-3.67-.14-7.63-0.29-11.52-1.15,0-2.38.07-3.67,0.14,0,0-3.82-2.3-1.44-7.78a4.82,4.82,0,0,1,1.8-.58l-0.07-.79s1.22-.29,3.1-0.79c-0.14-2.52-.29-4.9-0.43-7a3.5,3.5,0,0,1-1.66-.29c-1.15-.86-2.23-4.68-1.22-6.41l2.09-.36a2.43,2.43,0,0,0-.29-0.86s5.26-2.23,8.35-.14c6.62-.72,15-1.15,19.87.29,2.38,1.73,3,6.12,3,9.58,0,0-.65,3.31-6.26,6.34,7.78,1.87,14.26,6.26,14.76,15.41C232.58,373.64,222.43,378.24,210.19,378.32Zm-7.2-23c-0.22,5.83-.65,9.94-1,12.6,6.91,0.22,14.76-1.15,21-5.69C223,362.26,224.08,355.85,203,355.35Zm0.07-12.53c4.18-1.44,8.35-3.17,10.51-5-0.86-.5-5.69-0.14-10.58.29C203,339.79,203.06,341.3,203.06,342.82Z" transform="translate(-61.43 -328.25)"/><path class="a" d="M270.52,361.68c0,0.5-1.37,1.8-1.37,1.8l-0.36.86-2.74,1.3,2,0.22a14.66,14.66,0,0,0-3.17,1.73c-1.22.94-1.58,1.94-2.52,2.3a136.72,136.72,0,0,0-30.46,10.44c-2.23,1.08-6.34-8.35-2.74-10.23a7.88,7.88,0,0,1,1.51-.65c0-12.31.36-34-.94-38.6a13.5,13.5,0,0,1,5.69-.86c7.63-1,24.12-.65,28.8-0.58a9,9,0,0,0-.07,1.87,7.75,7.75,0,0,0-2.23,1.58c-0.22.22-1.66,1.22-1.66,1.22l1.44,0.07-2.38,1.22-0.07.86s-2.88,1.22-3.31,1.37-7.71,1.22-14,2.23c0,0.58-.07,1.15-0.07,1.73-0.07,1.87-.22,3.6-0.36,5.33a153.16,153.16,0,0,1,18.07-1.15,5.51,5.51,0,0,1-.58,1.51L258.71,349l-2.23,1.22,0.94,0.07L255,351.82l0.07,0.72-2.59.65L252,354s-2.59,1.22-3.6,1.58c-0.43,0-4.39,1.15-8,2-0.36,3.82-.79,6.77-1.08,8.57C249.06,363.05,262.24,360.1,270.52,361.68Z" transform="translate(-61.43 -328.25)"/><path class="a" d="M294.21,361.9c2.74,5,4,11.09,3,15.48A20.53,20.53,0,0,0,294.64,366s2.74,9.22,1.8,12.24a5.44,5.44,0,0,1-.36-0.43,4.67,4.67,0,0,1-1.3,1.51c-0.43.07-1.87,0.43-1.87,0.43l-0.65-.72c-1.44-5.62-4.75-10.66-7.92-14.69a47.29,47.29,0,0,1-6.41.43H277.5c-0.29,4.46-.5,7.42-0.5,7.42s-0.5.86-1.22,2c-0.43.65-1.44,2.88-1.44,2.88A3.26,3.26,0,0,0,273,378a14.63,14.63,0,0,0-.58,1.44l-0.58-.07L271,380.76a1.35,1.35,0,0,0-.65-0.29c-0.36.14-.58,0.94-0.86,0.94-0.22-1.22-.43-9.58-0.72-19.23a11.9,11.9,0,0,1-5.18-7,8.27,8.27,0,0,1-.29-3c0.36,1.94,1.44,4.61,2.16,5.26-1.37-2.74-1.8-5.4-1.44-7,0.36,1.08,2,2.38,4.54,3.38-0.22-4.75-.43-9.43-0.65-13.32-1.44.22-2.88,0.5-4.39,0.86-2.3-.86-4.54-7-2-9.29s42.63-11.59,42.41,16.2C303.79,355.56,299.47,359.59,294.21,361.9Zm-15.7-22.54c0.07,0.72.07,1.58,0.07,2.52-0.07,4.54-.29,9.36-0.58,13.83,8.71-.07,19.87-4.61,20.23-9.36C298.53,342.31,291.33,338.86,278.51,339.36Z" transform="translate(-61.43 -328.25)"/><path class="a" d="M331.58,338.71c-8.5,0-19.87,3.6-19.87,4.1-0.14,1.3,26.71,5.54,25.71,21.82-0.79,13.32-9.72,16.2-19.66,16.2s-16.42-10.3-16.06-15.91a37.34,37.34,0,0,1,1.51-9.22,66.83,66.83,0,0,0-.22,7.06,58.83,58.83,0,0,1,.86-7.85l1.15-1.3,0.36,0.86c-1.3,22.25,25.78,13.83,26,10.37,0.36-6.26-30.89-8.28-30.17-20.74,0.36-6.26,1.15-6,1.15-6,0.43-7.85,24.41-9.65,26.79-9.65C329.13,328.49,335.46,332,331.58,338.71Z" transform="translate(-61.43 -328.25)"/></svg>