<svg xmlns="http://www.w3.org/2000/svg" viewBox="0 0 90.13 99.63"><defs><style>.a,.b{fill:#fff;}.a{stroke:#fff;stroke-linecap:round;stroke-linejoin:round;stroke-width:0;}</style></defs><title>spray-3</title><path class="a" d="M407.77,354.32a12.06,12.06,0,0,0-12.14-18.68,36.38,36.38,0,0,0-63.72,22.08,24.59,24.59,0,0,0,31.15,37.9,36.67,36.67,0,0,0,5.2.38,36.26,36.26,0,0,0,25.29-10.23c0.6-.58,1.19-1.18,1.75-1.81A16.58,16.58,0,0,0,407.77,354.32Z" transform="translate(-324.25 -323.22)"/><path class="b" d="M332.06,384.46c1,0,3.11-1.48,1.17-1.48-1,0-3.11,1.48-1.17,1.48h0Z" transform="translate(-324.25 -323.22)"/><path class="b" d="M331.2,384.11v23.39c0,0.83,2.9.31,2.9-.78V383.34c0-.83-2.9-0.31-2.9.78h0Z" transform="translate(-324.25 -323.22)"/><path class="b" d="M335.62,389.8v32.88c0,0.41,2.9,0,2.9-.78V389c0-.41-2.9,0-2.9.78h0Z" transform="translate(-324.25 -323.22)"/><path class="b" d="M410.86,370.61v22.76c0,1.29,2.91.71,2.91-.33V370.28c0-1.29-2.91-.71-2.91.33h0Z" transform="translate(-324.25 -323.22)"/><path class="b" d="M404.54,377.79v9.48c0,0.62,2.9.16,2.9-.78V377c0-.62-2.9-0.16-2.9.78h0Z" transform="translate(-324.25 -323.22)"/></svg>