<svg xmlns="http://www.w3.org/2000/svg" viewBox="0 0 105.06 81.89"><defs><style>.a{fill:#231f20;}.b,.d{fill:none;stroke-miterlimit:10;}.b{stroke:#231f20;}.c{fill:#fff;}.d{stroke:#fff;}</style></defs><title>spray-1</title><path class="a" d="M199.87,116.68a21.56,21.56,0,0,0-12.67,4.1,38.66,38.66,0,0,0-55.68,29.77,13.58,13.58,0,1,0,6.18,26.24,38.83,38.83,0,0,0,14.81,13.1,38.66,38.66,0,0,0,55.93-31.66A21.66,21.66,0,0,0,199.87,116.68Z" transform="translate(-116.96 -114.18)"/><path class="b" d="M199.87,116.68a21.56,21.56,0,0,0-12.67,4.1,38.66,38.66,0,0,0-55.68,29.77,13.58,13.58,0,1,0,6.18,26.24,38.83,38.83,0,0,0,14.81,13.1,38.66,38.66,0,0,0,55.93-31.66A21.66,21.66,0,0,0,199.87,116.68Z" transform="translate(-116.96 -114.18)"/><path class="c" d="M197.87,114.68a21.56,21.56,0,0,0-12.67,4.1,38.66,38.66,0,0,0-55.68,29.77,13.58,13.58,0,1,0,6.18,26.24,38.83,38.83,0,0,0,14.81,13.1,38.66,38.66,0,0,0,55.93-31.66A21.66,21.66,0,0,0,197.87,114.68Z" transform="translate(-116.96 -114.18)"/><path class="d" d="M197.87,114.68a21.56,21.56,0,0,0-12.67,4.1,38.66,38.66,0,0,0-55.68,29.77,13.58,13.58,0,1,0,6.18,26.24,38.83,38.83,0,0,0,14.81,13.1,38.66,38.66,0,0,0,55.93-31.66A21.66,21.66,0,0,0,197.87,114.68Z" transform="translate(-116.96 -114.18)"/><path class="c" d="M131.39,171.66v24c0,0.79,2.9.28,2.9-.78v-24c0-.79-2.9-0.28-2.9.78h0Z" transform="translate(-116.96 -114.18)"/><path class="c" d="M135.19,167.87v14.54c0,0.41,2.9,0,2.9-.78V167.09c0-.41-2.9,0-2.9.78h0Z" transform="translate(-116.96 -114.18)"/><path class="c" d="M203.47,150.8V190c0,0.72,2.9.23,2.9-.78V150c0-.72-2.9-0.23-2.9.78h0Z" transform="translate(-116.96 -114.18)"/><path class="c" d="M194,165.68v19.6c0,1.58,2.95,1.21,2.95-.19v-19.6c0-1.58-2.95-1.21-2.95.19h0Z" transform="translate(-116.96 -114.18)"/><path class="c" d="M198.41,172.7v7.59c0,1.29,2.91.71,2.91-.33v-7.59c0-1.29-2.91-.71-2.91.33h0Z" transform="translate(-116.96 -114.18)"/></svg>