<svg xmlns="http://www.w3.org/2000/svg" viewBox="0 0 92.13 111.87"><defs><style>.a{fill:#231f20;}.b{fill:#fff;}</style></defs><title>spray-2</title><path class="a" d="M178.65,422.74a26.06,26.06,0,0,0-40.91-32.16h-0.29a36.32,36.32,0,0,0-31.2,17.7,8.35,8.35,0,1,0-5,15.92c-0.07.9-.11,1.81-0.11,2.73A36.34,36.34,0,0,0,161,454.6,18.53,18.53,0,0,0,178.65,422.74Z" transform="translate(-93.23 -379.76)"/><path class="b" d="M176.65,420.74a26.06,26.06,0,0,0-40.91-32.16h-0.29a36.32,36.32,0,0,0-31.2,17.7,8.35,8.35,0,1,0-5,15.92c-0.07.9-.11,1.81-0.11,2.73A36.34,36.34,0,0,0,159,452.6,18.53,18.53,0,0,0,176.65,420.74Z" transform="translate(-93.23 -379.76)"/><path class="b" d="M134.78,434.42c1,0,3.11-1.48,1.17-1.48-1,0-3.11,1.48-1.17,1.48h0Z" transform="translate(-93.23 -379.76)"/><path class="b" d="M133.9,454.66v36c0,1.48,2.93,1,2.93-.24v-36c0-1.48-2.93-1-2.93.24h0Z" transform="translate(-93.23 -379.76)"/><path class="b" d="M125.68,452.11v12.65c0,1.57,2.94,1.18,2.94-.19V451.92c0-1.57-2.94-1.18-2.94.19h0Z" transform="translate(-93.23 -379.76)"/><path class="b" d="M139,455.56v20.23c0,0.75,2.9.26,2.9-.78V454.79c0-.75-2.9-0.26-2.9.78h0Z" transform="translate(-93.23 -379.76)"/></svg>