<svg xmlns="http://www.w3.org/2000/svg" viewBox="0 0 242.2 70.79"><defs><style>.a{fill:#fff;}</style></defs><title>youtube</title><path d="M88.92,663.83c-0.14.86-8,26.21-5.76,47.88-0.14,1.08-.29,2-0.36,2.88,0,0.14-1.15-7.63-1.15-7.63s0.94,9,.86,9.14c-0.07,1-.14,1.87-0.22,2.67,0,0.07-.22-1.15-0.22-1.08s0.14,1.87.14,2a22.37,22.37,0,0,0,.07,4c0,0.14-.14-0.07-0.36-0.22a2.43,2.43,0,0,1-.58,1.22c-1,.65-2.38,1.08-2.81.22-5.9-11.59-6.62-25.2-5.69-37.44-3.31,8.79-5.54,15.91-7.13,17.07-1,.79-2.74.79-4.61,0.58-14.11-1.87-6.41-34.56-10.87-43.28a4,4,0,0,0-1.15-1.37c0-2.74,2.09-3.6,5.62-3.1,9.14,1.15,6.26,9.94,7.34,29.52,1.15,0.14,9.87-18.72,14.47-25.49,0.07-.43.07-0.79,0.14-1.22,0.43-3.31,4.9-3.1,6.55-2.88A6.24,6.24,0,0,1,88.92,663.83Z" transform="translate(-48.1 -654.65)"/><path d="M136,708c-17.14-.79-20.74-17-21.39-26.43-2,6.84-6.62,11.67-12.75,11.52C92.44,692.92,87,680.6,87,674.34c0-10.08,5.33-16.63,6.12-17,3-1.37,7,2,7.27,3.46v0.07a0.39,0.39,0,0,0,.36-0.43,1.7,1.7,0,0,1-.5-0.5,1.5,1.5,0,0,1,.86-1c3.24-1.44,12,.79,14.11,10.37,0.79-4.68,1.87-8.86,1.87-8.86s-0.58-1.87-.14-2.23c2-1.73,11.88-1.58,11.81,4.82,0,1.87-6.77,26.64,1.8,38.09,15.41-5.26,11.31-39.17,4.18-44l0.5-.65a7,7,0,0,1,1.22.07c0.07,0.07,5.11,3.6,6.55,7.42-1.37-4.68-5.54-7.56-5.4-7.56C156.6,660.59,157,709,136,708Zm-42.92-.72c6-1.94,15-4,22.75-2.88l0.65,0.36s0.65-2.45.79-3-1-2.09-1-2.09l0.58-.14-0.94-1.15s0.43,0.14.36,0c-2.23-3.89-20-5.47-27.58-1.08C86.61,702,88,708.9,93.09,707.25Zm14-36.08c0-10.58-6.55-10.15-6.55-10.15a1.21,1.21,0,0,1-.79,1.51,17.66,17.66,0,0,0-3,9.72c0,8.14,4.18,10.8,5,10.87C103.1,683.27,107.06,679.52,107.06,671.17Z" transform="translate(-48.1 -654.65)"/><path d="M192.74,658.35c-0.29,2.66-2.59,7.49-8.86,9.5-3.67.14-7.06,0.36-10.08,0.5-0.43,14.54-2.45,31.11-2.45,31.11L169.77,703l-0.58-.07L168,705.52s-0.36-.58-0.86.07a7.86,7.86,0,0,0-.65,1.51H166L165,708.54l-0.65-1.8s-0.65,2.45-.94,2.52c-0.36-2.23-.29-25.2-0.94-40.32l-11.38.65c-6,.14-6.19-11.67-2.3-12.24a97.28,97.28,0,0,1,12.89-.65,2.24,2.24,0,0,1,.79-0.58c1.8-.5,5.11-1,7.71.79C177.33,657.2,185,657.78,192.74,658.35Z" transform="translate(-48.1 -654.65)"/><path d="M183.45,658.21c3-1.37,8.64,2,8.28,3.53-4.82,19.95,1.73,22.9,2.52,23,1.37,0.14,6.63-3,6.63-11.3,0-10-2.23-12.75-2.23-12.75l-0.29-.07s0.72-.22.58-0.5a1.47,1.47,0,0,1-.43-0.5,1.18,1.18,0,0,1,.86-1c3.67-1.58,10,2.74,9.87,15.26-0.14,10.66-5.47,19.66-13.83,19.51-9.36-.14-14.69-11-14.83-18.72C180.35,664.62,182.66,658.57,183.45,658.21Zm2.88,49.54c5.9-1.87,13.75-3.89,21.24-2.88l0.65,0.36s0.58-2.38.79-2.88-1-2-1-2l0.58-.14L207.64,699a0.78,0.78,0,0,0,.36.07c-2.16-3.82-18.58-5.26-25.85-1C180.14,702.64,181.51,709.33,186.33,707.75Z" transform="translate(-48.1 -654.65)"/><path d="M230,706.09c-2.59,0-7.27.36-11.74-.79-0.29.5-.58,0.94-0.79,1.37s-0.86-.07-1.08-0.79c-0.29,1.51-.14,1.94-0.65,2.23s-0.79,1.3-1.08,1.37a51.05,51.05,0,0,1-.29-5.69c-3.6-1.94-6.48-5.4-7.27-11.67a25.9,25.9,0,0,0,7.06,2.66c-0.07-3.67-.14-7.63-0.29-11.52-1.15,0-2.38.07-3.67,0.14,0,0-3.82-2.3-1.44-7.78a4.8,4.8,0,0,1,1.8-.58l-0.07-.79s1.22-.29,3.1-0.79c-0.14-2.52-.29-4.9-0.43-7a3.51,3.51,0,0,1-1.66-.29c-1.15-.86-2.23-4.68-1.22-6.41l2.09-.36a2.44,2.44,0,0,0-.29-0.86s5.26-2.23,8.35-.14c6.62-.72,15-1.15,19.87.29,2.38,1.73,3,6.12,3,9.58,0,0-.65,3.31-6.26,6.34,7.78,1.87,14.26,6.26,14.76,15.41C252.36,701.41,242.2,706,230,706.09Zm-7.2-23c-0.22,5.83-.65,9.94-1,12.6,6.91,0.22,14.76-1.15,21-5.69C242.78,690,243.86,683.63,222.76,683.12Zm0.07-12.53c4.18-1.44,8.35-3.17,10.51-5-0.86-.5-5.69-0.14-10.58.29C222.76,667.57,222.83,669.08,222.83,670.59Z" transform="translate(-48.1 -654.65)"/><path d="M290.3,689.46c0,0.5-1.37,1.8-1.37,1.8l-0.36.86-2.74,1.3,2,0.22a14.63,14.63,0,0,0-3.17,1.73c-1.22.94-1.58,1.94-2.52,2.3a136.71,136.71,0,0,0-30.46,10.44c-2.23,1.08-6.34-8.35-2.74-10.22a7.8,7.8,0,0,1,1.51-.65c0-12.31.36-34-.94-38.6a13.51,13.51,0,0,1,5.69-.86c7.63-1,24.12-.65,28.8-0.58a9,9,0,0,0-.07,1.87,7.77,7.77,0,0,0-2.23,1.58c-0.22.22-1.66,1.22-1.66,1.22l1.44,0.07-2.38,1.22-0.07.86s-2.88,1.22-3.31,1.37-7.7,1.22-14,2.23c0,0.58-.07,1.15-0.07,1.73-0.07,1.87-.22,3.6-0.36,5.33a153.38,153.38,0,0,1,18.07-1.15,5.5,5.5,0,0,1-.58,1.51l-0.29,1.73L276.26,678l0.94,0.07-2.38,1.51,0.07,0.72-2.59.65-0.5.86s-2.59,1.22-3.6,1.58c-0.43,0-4.39,1.15-8,2-0.36,3.82-.79,6.77-1.08,8.57C268.84,690.83,282,687.88,290.3,689.46Z" transform="translate(-48.1 -654.65)"/><path class="a" d="M87.92,662.83c-0.14.86-8,26.21-5.76,47.88-0.14,1.08-.29,2-0.36,2.88,0,0.14-1.15-7.63-1.15-7.63s0.94,9,.86,9.14c-0.07,1-.14,1.87-0.22,2.67,0,0.07-.22-1.15-0.22-1.08s0.14,1.87.14,2a22.37,22.37,0,0,0,.07,4c0,0.14-.14-0.07-0.36-0.22a2.43,2.43,0,0,1-.58,1.22c-1,.65-2.38,1.08-2.81.22-5.9-11.59-6.62-25.2-5.69-37.44-3.31,8.79-5.54,15.91-7.13,17.07-1,.79-2.74.79-4.61,0.58-14.11-1.87-6.41-34.56-10.87-43.28a4,4,0,0,0-1.15-1.37c0-2.74,2.09-3.6,5.62-3.1,9.14,1.15,6.26,9.94,7.34,29.52,1.15,0.14,9.87-18.72,14.47-25.49,0.07-.43.07-0.79,0.14-1.22,0.43-3.31,4.9-3.1,6.55-2.88A6.24,6.24,0,0,1,87.92,662.83Z" transform="translate(-48.1 -654.65)"/><path class="a" d="M135,707c-17.14-.79-20.74-17-21.39-26.43-2,6.84-6.62,11.67-12.75,11.52C91.44,691.92,86,679.6,86,673.34c0-10.08,5.33-16.63,6.12-17,3-1.37,7,2,7.27,3.46v0.07a0.39,0.39,0,0,0,.36-0.43,1.7,1.7,0,0,1-.5-0.5,1.5,1.5,0,0,1,.86-1c3.24-1.44,12,.79,14.11,10.37,0.79-4.68,1.87-8.86,1.87-8.86s-0.58-1.87-.14-2.23c2-1.73,11.88-1.58,11.81,4.82,0,1.87-6.77,26.64,1.8,38.09,15.41-5.26,11.31-39.17,4.18-44l0.5-.65a7,7,0,0,1,1.22.07c0.07,0.07,5.11,3.6,6.55,7.42-1.37-4.68-5.54-7.56-5.4-7.56C155.6,659.59,156,708,135,707Zm-42.92-.72c6-1.94,15-4,22.75-2.88l0.65,0.36s0.65-2.45.79-3-1-2.09-1-2.09l0.58-.14-0.94-1.15s0.43,0.14.36,0c-2.23-3.89-20-5.47-27.58-1.08C85.61,701,87,707.9,92.09,706.25Zm14-36.08c0-10.58-6.55-10.15-6.55-10.15a1.21,1.21,0,0,1-.79,1.51,17.66,17.66,0,0,0-3,9.72c0,8.14,4.18,10.8,5,10.87C102.1,682.27,106.06,678.52,106.06,670.17Z" transform="translate(-48.1 -654.65)"/><path class="a" d="M191.74,657.35c-0.29,2.66-2.59,7.49-8.86,9.5-3.67.14-7.06,0.36-10.08,0.5-0.43,14.54-2.45,31.11-2.45,31.11L168.77,702l-0.58-.07L167,704.52s-0.36-.58-0.86.07a7.86,7.86,0,0,0-.65,1.51H165L164,707.54l-0.65-1.8s-0.65,2.45-.94,2.52c-0.36-2.23-.29-25.2-0.94-40.32l-11.38.65c-6,.14-6.19-11.67-2.3-12.24a97.28,97.28,0,0,1,12.89-.65,2.24,2.24,0,0,1,.79-0.58c1.8-.5,5.11-1,7.71.79C176.33,656.2,184,656.78,191.74,657.35Z" transform="translate(-48.1 -654.65)"/><path class="a" d="M182.45,657.21c3-1.37,8.64,2,8.28,3.53-4.82,19.95,1.73,22.9,2.52,23,1.37,0.14,6.63-3,6.63-11.3,0-10-2.23-12.75-2.23-12.75l-0.29-.07s0.72-.22.58-0.5a1.47,1.47,0,0,1-.43-0.5,1.18,1.18,0,0,1,.86-1c3.67-1.58,10,2.74,9.87,15.26-0.14,10.66-5.47,19.66-13.83,19.51-9.36-.14-14.69-11-14.83-18.72C179.35,663.62,181.66,657.57,182.45,657.21Zm2.88,49.54c5.9-1.87,13.75-3.89,21.24-2.88l0.65,0.36s0.58-2.38.79-2.88-1-2-1-2l0.58-.14L206.64,698a0.78,0.78,0,0,0,.36.07c-2.16-3.82-18.58-5.26-25.85-1C179.14,701.64,180.51,708.33,185.33,706.75Z" transform="translate(-48.1 -654.65)"/><path class="a" d="M229,705.09c-2.59,0-7.27.36-11.74-.79-0.29.5-.58,0.94-0.79,1.37s-0.86-.07-1.08-0.79c-0.29,1.51-.14,1.94-0.65,2.23s-0.79,1.3-1.08,1.37a51.05,51.05,0,0,1-.29-5.69c-3.6-1.94-6.48-5.4-7.27-11.67a25.9,25.9,0,0,0,7.06,2.66c-0.07-3.67-.14-7.63-0.29-11.52-1.15,0-2.38.07-3.67,0.14,0,0-3.82-2.3-1.44-7.78a4.8,4.8,0,0,1,1.8-.58l-0.07-.79s1.22-.29,3.1-0.79c-0.14-2.52-.29-4.9-0.43-7a3.51,3.51,0,0,1-1.66-.29c-1.15-.86-2.23-4.68-1.22-6.41l2.09-.36a2.44,2.44,0,0,0-.29-0.86s5.26-2.23,8.35-.14c6.62-.72,15-1.15,19.87.29,2.38,1.73,3,6.12,3,9.58,0,0-.65,3.31-6.26,6.34,7.78,1.87,14.26,6.26,14.76,15.41C251.36,700.41,241.2,705,229,705.09Zm-7.2-23c-0.22,5.83-.65,9.94-1,12.6,6.91,0.22,14.76-1.15,21-5.69C241.78,689,242.86,682.63,221.76,682.12Zm0.07-12.53c4.18-1.44,8.35-3.17,10.51-5-0.86-.5-5.69-0.14-10.58.29C221.76,666.57,221.83,668.08,221.83,669.59Z" transform="translate(-48.1 -654.65)"/><path class="a" d="M289.3,688.46c0,0.5-1.37,1.8-1.37,1.8l-0.36.86-2.74,1.3,2,0.22a14.63,14.63,0,0,0-3.17,1.73c-1.22.94-1.58,1.94-2.52,2.3a136.71,136.71,0,0,0-30.46,10.44c-2.23,1.08-6.34-8.35-2.74-10.22a7.8,7.8,0,0,1,1.51-.65c0-12.31.36-34-.94-38.6a13.51,13.51,0,0,1,5.69-.86c7.63-1,24.12-.65,28.8-0.58a9,9,0,0,0-.07,1.87,7.77,7.77,0,0,0-2.23,1.58c-0.22.22-1.66,1.22-1.66,1.22l1.44,0.07-2.38,1.22-0.07.86s-2.88,1.22-3.31,1.37-7.7,1.22-14,2.23c0,0.58-.07,1.15-0.07,1.73-0.07,1.87-.22,3.6-0.36,5.33a153.38,153.38,0,0,1,18.07-1.15,5.5,5.5,0,0,1-.58,1.51l-0.29,1.73L275.26,677l0.94,0.07-2.38,1.51,0.07,0.72-2.59.65-0.5.86s-2.59,1.22-3.6,1.58c-0.43,0-4.39,1.15-8,2-0.36,3.82-.79,6.77-1.08,8.57C267.84,689.83,281,686.88,289.3,688.46Z" transform="translate(-48.1 -654.65)"/></svg>